{"glyphs":{"0":{"ha":883,"x_min":0,"x_max":0,"o":"m 442 881 b 564 846 488 881 529 869 b 611 806 581 834 596 820 b 649 754 626 791 638 774 b 676 693 659 735 668 714 b 696 628 685 672 691 650 b 708 559 701 606 705 583 b 711 486 710 535 711 511 b 708 413 711 461 710 437 b 696 344 705 390 701 367 b 676 279 691 322 685 300 b 649 218 668 258 659 238 b 611 167 638 199 626 181 b 564 126 596 152 581 138 b 507 101 546 115 527 107 b 442 92 487 95 465 92 b 321 126 396 92 356 103 b 272 167 303 138 287 152 b 235 218 257 181 245 199 b 208 279 225 238 216 258 b 189 344 200 300 194 322 b 176 413 183 367 179 390 b 172 486 174 437 172 461 b 176 559 172 511 174 535 b 189 628 179 583 183 606 b 208 693 194 650 200 672 b 235 754 216 714 225 735 b 272 806 245 774 257 791 b 321 846 287 820 303 834 b 377 872 338 858 356 867 b 442 881 398 878 419 881 m 442 989 b 240 919 365 989 298 966 b 157 832 208 894 180 865 b 101 719 134 799 115 761 b 74 607 89 683 80 646 b 64 486 67 568 64 528 b 74 366 64 445 67 405 b 101 253 80 327 89 289 b 157 140 115 211 134 174 b 240 53 180 107 208 78 b 442 -17 298 6 365 -17 b 642 53 518 -17 584 6 b 727 140 675 78 703 107 b 783 253 751 174 769 211 b 811 366 795 289 805 327 b 821 486 818 405 821 445 b 811 607 821 528 818 568 b 783 719 805 646 795 683 b 727 832 769 761 751 799 b 642 919 703 865 675 894 b 442 989 584 966 518 989 "},"1":{"ha":581,"x_min":0,"x_max":0,"o":"m 83 778 l 154 694 l 315 831 l 315 0 l 425 0 l 425 972 l 315 972 "},"2":{"ha":724,"x_min":0,"x_max":0,"o":"m 338 989 b 156 926 270 989 209 968 b 50 767 103 886 68 832 l 157 740 b 181 798 163 762 171 781 b 222 843 192 815 206 830 b 339 881 255 868 294 881 b 474 826 392 881 437 863 b 526 693 509 791 526 747 b 456 547 526 647 503 598 l 39 108 l 39 0 l 642 0 l 642 108 l 190 108 l 538 479 b 635 693 602 550 635 622 b 547 903 635 775 606 845 b 338 989 490 960 420 989 "},"3":{"ha":746,"x_min":0,"x_max":0,"o":"m 363 989 b 204 946 305 989 252 975 b 101 835 156 918 122 881 l 200 790 b 263 856 212 817 233 839 b 310 874 278 864 294 870 b 363 881 327 878 344 881 b 485 839 411 881 451 867 b 536 729 519 811 536 775 b 485 619 536 684 519 647 b 364 576 450 591 410 576 l 271 576 l 271 467 l 364 467 b 510 414 420 467 469 449 b 574 279 552 379 574 334 b 513 144 574 225 553 180 b 365 93 472 110 423 93 b 308 100 345 93 326 95 b 256 119 290 105 272 111 b 210 151 238 129 223 139 b 179 192 198 163 188 177 l 82 147 b 128 80 94 122 109 100 b 197 29 147 60 170 43 b 364 -17 250 -1 306 -17 b 589 68 452 -17 527 12 b 682 278 651 125 682 195 b 635 421 682 330 666 377 b 518 525 604 463 565 497 b 617 629 562 557 594 592 b 638 678 626 645 633 661 b 644 731 642 696 644 713 b 563 915 644 805 617 866 b 363 989 507 964 440 989 "},"4":{"ha":806,"x_min":0,"x_max":0,"o":"m 60 344 l 60 236 l 481 236 l 481 0 l 590 0 l 590 236 l 765 236 l 765 344 l 590 344 l 590 617 l 481 617 l 481 344 l 181 344 l 454 928 l 356 974 "},"5":{"ha":742,"x_min":0,"x_max":0,"o":"m 143 510 l 369 510 b 513 446 426 509 474 488 b 569 299 550 405 569 356 b 555 218 569 269 565 242 b 510 153 545 194 530 172 b 363 92 470 112 421 92 b 174 199 281 92 218 127 l 81 147 b 199 29 108 100 148 61 b 364 -17 248 -1 303 -17 b 586 76 451 -17 525 14 b 679 299 648 138 679 212 b 588 522 679 385 649 459 b 369 618 526 585 454 617 l 253 618 l 253 864 l 625 864 l 625 972 l 143 972 "},"6":{"ha":747,"x_min":0,"x_max":0,"o":"m 385 519 b 536 457 445 519 495 499 b 599 306 578 416 599 366 b 583 223 599 276 594 248 b 536 154 573 197 557 175 b 385 92 495 113 445 92 b 233 154 325 92 274 113 b 171 306 192 195 171 245 b 233 457 171 366 192 416 b 385 519 274 499 325 519 m 104 465 b 73 389 90 441 80 416 b 63 306 66 362 63 334 b 157 78 63 217 94 141 b 385 -17 219 15 295 -17 b 613 78 475 -17 550 15 b 684 182 645 109 669 144 b 707 306 699 220 707 261 b 617 529 707 394 677 468 b 401 624 557 589 486 621 b 357 621 387 624 372 623 b 314 611 342 619 328 616 l 532 989 l 407 989 "},"7":{"ha":744,"x_min":0,"x_max":0,"o":"m 582 864 l 117 0 l 240 0 l 704 864 l 704 972 l 58 972 l 58 864 "},"8":{"ha":786,"x_min":0,"x_max":0,"o":"m 394 469 b 540 415 448 469 497 451 b 603 279 582 380 603 335 b 540 143 603 224 582 178 b 394 90 499 108 450 90 b 247 143 339 90 290 108 b 185 279 206 178 185 224 b 247 415 185 335 206 380 b 394 469 291 451 340 469 m 394 881 b 513 839 438 881 477 867 b 563 731 546 811 563 775 b 513 621 563 686 546 650 b 457 589 496 607 477 596 b 394 578 437 581 416 578 b 275 622 349 578 309 593 b 224 731 241 651 224 687 b 275 839 224 775 241 811 b 394 881 310 867 350 881 m 394 989 b 199 917 319 989 253 965 b 115 736 143 868 115 807 b 199 554 115 664 143 603 b 216 541 204 550 210 545 b 233 528 222 537 228 532 b 171 485 211 517 190 502 b 76 276 108 429 76 360 b 171 67 76 192 108 122 b 394 -17 234 11 308 -17 b 618 67 481 -17 555 11 b 711 276 680 122 711 192 b 618 485 711 360 680 429 b 588 509 608 494 598 502 b 556 528 578 516 568 522 b 573 541 562 532 568 537 b 589 554 578 545 583 550 b 672 736 644 603 672 664 b 589 917 672 807 644 868 b 394 989 534 965 469 989 "},"9":{"ha":747,"x_min":0,"x_max":0,"o":"m 364 453 b 213 515 304 453 253 474 b 150 667 171 556 150 606 b 213 818 150 727 171 777 b 364 881 253 860 304 881 b 515 818 424 881 475 860 b 578 667 557 777 578 727 b 515 515 578 606 557 556 b 364 453 475 474 424 453 m 644 507 b 686 667 672 555 686 608 b 592 894 686 756 655 832 b 364 989 529 957 453 989 b 136 894 275 989 199 957 b 65 790 105 864 81 829 b 42 667 50 751 42 710 b 132 443 42 579 72 504 b 346 349 191 383 263 351 b 390 351 361 349 375 350 b 435 361 405 353 420 356 l 219 0 l 344 0 "},"Ɛ":{"ha":694,"x_min":0,"x_max":0,"o":"m 69 1111 l 625 1111 l 625 -278 l 69 -278 m 556 -208 l 556 1042 l 139 1042 l 139 -208 "},"Ƒ":{"ha":694,"x_min":0,"x_max":0,"o":"m 69 -278 l 625 -278 l 625 1111 l 69 1111 m 139 -208 l 139 1042 l 556 1042 l 556 -208 "},"ƞ":{"ha":694,"x_min":0,"x_max":0,"o":"m 69 1111 l 625 1111 l 625 -278 l 69 -278 m 556 -208 l 556 1042 l 139 1042 l 139 -208 "},"Ɵ":{"ha":694,"x_min":0,"x_max":0,"o":"m 69 -278 l 625 -278 l 625 1111 l 69 1111 m 139 -208 l 139 1042 l 556 1042 l 556 -208 "},"ɚ":{"ha":694,"x_min":0,"x_max":0,"o":"m 69 1111 l 625 1111 l 625 -278 l 69 -278 m 556 -208 l 556 1042 l 139 1042 l 139 -208 "},"̉":{"ha":694,"x_min":0,"x_max":0,"o":"m 69 -278 l 625 -278 l 625 1111 l 69 1111 m 139 -208 l 139 1042 l 556 1042 l 556 -208 "},"̤":{"ha":694,"x_min":0,"x_max":0,"o":"m 69 1111 l 625 1111 l 625 -278 l 69 -278 m 556 -208 l 556 1042 l 139 1042 l 139 -208 "},"̥":{"ha":694,"x_min":0,"x_max":0,"o":"m 69 -278 l 625 -278 l 625 1111 l 69 1111 m 139 -208 l 139 1042 l 556 1042 l 556 -208 "},"Ҕ":{"ha":694,"x_min":0,"x_max":0,"o":"m 69 1111 l 625 1111 l 625 -278 l 69 -278 m 556 -208 l 556 1042 l 139 1042 l 139 -208 "},"ҕ":{"ha":694,"x_min":0,"x_max":0,"o":"m 69 -278 l 625 -278 l 625 1111 l 69 1111 m 139 -208 l 139 1042 l 556 1042 l 556 -208 "},"Ҙ":{"ha":694,"x_min":0,"x_max":0,"o":"m 69 1111 l 625 1111 l 625 -278 l 69 -278 m 556 -208 l 556 1042 l 139 1042 l 139 -208 "},"ҙ":{"ha":694,"x_min":0,"x_max":0,"o":"m 69 -278 l 625 -278 l 625 1111 l 69 1111 m 139 -208 l 139 1042 l 556 1042 l 556 -208 "},"Ҹ":{"ha":694,"x_min":0,"x_max":0,"o":"m 69 1111 l 625 1111 l 625 -278 l 69 -278 m 556 -208 l 556 1042 l 139 1042 l 139 -208 "},"ҹ":{"ha":694,"x_min":0,"x_max":0,"o":"m 69 -278 l 625 -278 l 625 1111 l 69 1111 m 139 -208 l 139 1042 l 556 1042 l 556 -208 "},"Ӓ":{"ha":694,"x_min":0,"x_max":0,"o":"m 69 1111 l 625 1111 l 625 -278 l 69 -278 m 556 -208 l 556 1042 l 139 1042 l 139 -208 "},"ӓ":{"ha":694,"x_min":0,"x_max":0,"o":"m 69 -278 l 625 -278 l 625 1111 l 69 1111 m 139 -208 l 139 1042 l 556 1042 l 556 -208 "},"Ӗ":{"ha":694,"x_min":0,"x_max":0,"o":"m 69 1111 l 625 1111 l 625 -278 l 69 -278 m 556 -208 l 556 1042 l 139 1042 l 139 -208 "},"ӗ":{"ha":694,"x_min":0,"x_max":0,"o":"m 69 -278 l 625 -278 l 625 1111 l 69 1111 m 139 -208 l 139 1042 l 556 1042 l 556 -208 "},"―":{"ha":694,"x_min":0,"x_max":0,"o":"m 69 1111 l 625 1111 l 625 -278 l 69 -278 m 556 -208 l 556 1042 l 139 1042 l 139 -208 "},"‖":{"ha":694,"x_min":0,"x_max":0,"o":"m 69 -278 l 625 -278 l 625 1111 l 69 1111 m 139 -208 l 139 1042 l 556 1042 l 556 -208 "},"‗":{"ha":694,"x_min":0,"x_max":0,"o":"m 69 1111 l 625 1111 l 625 -278 l 69 -278 m 556 -208 l 556 1042 l 139 1042 l 139 -208 "},"‛":{"ha":694,"x_min":0,"x_max":0,"o":"m 69 -278 l 625 -278 l 625 1111 l 69 1111 m 139 -208 l 139 1042 l 556 1042 l 556 -208 "},"‟":{"ha":694,"x_min":0,"x_max":0,"o":"m 69 1111 l 625 1111 l 625 -278 l 69 -278 m 556 -208 l 556 1042 l 139 1042 l 139 -208 "},"‣":{"ha":694,"x_min":0,"x_max":0,"o":"m 69 -278 l 625 -278 l 625 1111 l 69 1111 m 139 -208 l 139 1042 l 556 1042 l 556 -208 "},"․":{"ha":694,"x_min":0,"x_max":0,"o":"m 69 1111 l 625 1111 l 625 -278 l 69 -278 m 556 -208 l 556 1042 l 139 1042 l 139 -208 "},"‥":{"ha":694,"x_min":0,"x_max":0,"o":"m 69 -278 l 625 -278 l 625 1111 l 69 1111 m 139 -208 l 139 1042 l 556 1042 l 556 -208 "},"₾":{"ha":694,"x_min":0,"x_max":0,"o":"m 69 1111 l 625 1111 l 625 -278 l 69 -278 m 556 -208 l 556 1042 l 139 1042 l 139 -208 "},"∁":{"ha":694,"x_min":0,"x_max":0,"o":"m 69 -278 l 625 -278 l 625 1111 l 69 1111 m 139 -208 l 139 1042 l 556 1042 l 556 -208 "},"∂":{"ha":694,"x_min":0,"x_max":0,"o":"m 69 1111 l 625 1111 l 625 -278 l 69 -278 m 556 -208 l 556 1042 l 139 1042 l 139 -208 "},"∄":{"ha":694,"x_min":0,"x_max":0,"o":"m 69 -278 l 625 -278 l 625 1111 l 69 1111 m 139 -208 l 139 1042 l 556 1042 l 556 -208 "},"∓":{"ha":694,"x_min":0,"x_max":0,"o":"m 69 1111 l 625 1111 l 625 -278 l 69 -278 m 556 -208 l 556 1042 l 139 1042 l 139 -208 "},"∔":{"ha":694,"x_min":0,"x_max":0,"o":"m 69 -278 l 625 -278 l 625 1111 l 69 1111 m 139 -208 l 139 1042 l 556 1042 l 556 -208 "},"≡":{"ha":694,"x_min":0,"x_max":0,"o":"m 69 1111 l 625 1111 l 625 -278 l 69 -278 m 556 -208 l 556 1042 l 139 1042 l 139 -208 "},"≢":{"ha":694,"x_min":0,"x_max":0,"o":"m 69 -278 l 625 -278 l 625 1111 l 69 1111 m 139 -208 l 139 1042 l 556 1042 l 556 -208 "},"≣":{"ha":694,"x_min":0,"x_max":0,"o":"m 69 1111 l 625 1111 l 625 -278 l 69 -278 m 556 -208 l 556 1042 l 139 1042 l 139 -208 "},"\r":{"ha":833,"x_min":0,"x_max":0,"o":""}," ":{"ha":343,"x_min":0,"x_max":0,"o":""},"!":{"ha":413,"x_min":0,"x_max":0,"o":"m 153 282 l 261 282 l 261 972 l 153 972 m 207 135 b 151 111 186 135 167 127 b 129 57 137 96 129 78 b 151 3 129 36 137 18 b 207 -19 167 -12 186 -19 b 263 3 228 -19 247 -12 b 283 57 276 18 283 36 b 263 111 283 78 276 96 b 207 135 247 127 228 135 "},"\"":{"ha":489,"x_min":0,"x_max":0,"o":"m 296 692 l 388 692 l 406 994 l 279 994 m 99 692 l 190 692 l 207 994 l 82 994 "},"#":{"ha":872,"x_min":0,"x_max":0,"o":"m 571 714 l 360 714 l 406 972 l 294 972 l 250 714 l 82 714 l 64 606 l 231 606 l 190 385 l 25 385 l 6 274 l 171 274 l 124 0 l 235 0 l 282 274 l 493 274 l 444 0 l 556 0 l 603 274 l 790 274 l 808 385 l 622 385 l 661 606 l 844 606 l 864 714 l 682 714 l 726 972 l 615 972 m 511 385 l 301 385 l 342 606 l 551 606 "},"$":{"ha":751,"x_min":0,"x_max":0,"o":"m 313 983 b 163 914 252 975 202 952 b 101 830 136 889 115 861 b 81 729 88 799 81 765 b 160 557 81 656 107 599 b 364 471 213 514 281 486 b 515 404 425 460 475 438 b 572 281 553 371 572 330 b 514 147 572 227 553 182 b 368 92 474 110 425 92 b 246 126 322 92 281 103 b 175 217 213 149 189 179 l 71 183 b 182 39 90 123 127 75 b 244 6 201 25 222 14 b 313 -11 266 -2 288 -7 l 313 -126 l 422 -126 l 422 -11 b 590 69 489 -2 545 25 b 682 281 651 128 682 198 b 594 478 682 361 653 427 b 371 578 536 530 462 563 b 228 639 305 590 257 610 b 189 729 202 663 189 693 b 239 838 189 774 206 810 b 368 881 271 866 314 881 b 476 854 412 881 448 872 b 536 779 505 837 525 812 l 640 814 b 540 942 623 868 589 910 b 485 969 524 953 505 962 b 422 983 466 976 444 981 l 422 1099 l 313 1099 "},"%":{"ha":1207,"x_min":0,"x_max":0,"o":"m 915 438 b 756 369 853 438 800 415 b 705 297 733 348 716 324 b 688 210 693 270 688 241 b 756 51 688 149 710 96 b 915 -17 800 6 853 -17 b 1075 51 977 -17 1031 6 b 1142 210 1119 95 1142 148 b 1075 369 1142 273 1119 326 b 915 438 1031 415 977 438 m 915 328 b 997 293 947 328 974 316 b 1032 210 1020 270 1032 242 b 997 128 1032 178 1020 151 b 915 92 974 104 947 92 b 832 128 883 92 855 104 b 797 210 809 151 797 178 b 832 293 797 242 809 270 b 915 328 855 316 883 328 m 242 63 l 331 0 l 967 910 l 878 972 m 293 989 b 133 922 231 989 178 967 b 65 763 88 878 65 825 b 133 601 65 700 88 646 b 293 535 178 557 231 535 b 453 601 355 535 408 557 b 503 675 475 624 492 648 b 519 763 514 702 519 731 b 453 922 519 825 497 878 b 293 989 408 967 355 989 m 293 881 b 376 846 325 881 353 869 b 411 763 400 823 411 795 b 376 678 411 729 400 701 b 293 644 353 656 325 644 b 210 678 260 644 232 656 b 175 763 187 701 175 729 b 210 846 175 795 187 823 b 293 881 232 869 260 881 "},"&":{"ha":888,"x_min":0,"x_max":0,"o":"m 357 -17 b 445 -9 387 -17 416 -14 b 533 14 474 -4 504 4 b 685 106 593 35 643 66 b 839 426 764 182 816 289 l 731 426 b 608 188 711 329 670 250 b 494 114 575 156 537 131 b 358 92 456 99 410 92 b 239 131 314 92 274 105 b 185 235 204 156 186 191 b 191 281 185 250 187 265 b 211 326 195 296 202 312 b 253 376 222 343 236 359 b 314 425 271 392 291 408 b 380 470 337 441 359 456 b 439 508 401 484 420 497 b 484 540 456 520 471 531 b 521 568 497 550 510 559 b 566 615 538 584 553 600 b 599 663 579 631 590 647 b 619 713 608 678 615 695 b 626 768 624 731 626 750 b 558 926 626 832 604 885 b 390 989 513 968 457 989 b 231 928 329 989 276 969 b 161 772 184 885 161 833 b 224 613 161 717 182 663 l 733 0 l 875 0 l 308 678 b 271 767 283 706 271 736 b 307 846 271 797 283 824 b 392 881 332 869 360 881 b 479 849 426 881 455 870 b 507 812 491 838 500 825 b 517 764 513 798 517 782 b 436 639 517 723 490 681 b 415 625 433 638 426 633 b 371 594 403 617 388 606 b 314 557 352 583 333 571 b 250 514 294 543 273 529 b 118 379 191 473 147 428 b 76 235 90 333 76 285 b 158 56 76 163 104 103 b 357 -17 213 7 279 -17 "},"'":{"ha":292,"x_min":0,"x_max":0,"o":"m 100 692 l 192 692 l 210 994 l 83 994 "},"(":{"ha":454,"x_min":0,"x_max":0,"o":"m 311 1110 b 213 972 274 1067 241 1021 b 139 818 184 923 159 872 b 79 486 99 713 79 602 b 94 317 79 429 84 372 b 139 153 103 261 119 206 b 213 0 159 99 184 48 b 311 -137 241 -48 274 -94 l 386 -58 b 239 197 323 18 274 103 b 201 340 222 244 209 292 b 188 486 192 388 188 437 b 201 634 188 536 192 585 b 240 779 211 683 224 731 b 304 914 258 826 279 871 b 390 1035 329 956 358 997 l 311 1110 "},")":{"ha":454,"x_min":0,"x_max":0,"o":"m 144 1110 b 99 1067 125 1091 110 1077 b 75 1044 88 1056 80 1049 l 67 1036 l 65 1035 b 151 914 98 997 126 956 b 214 779 176 871 197 826 b 254 634 232 731 246 683 b 267 486 263 585 267 536 b 215 197 267 387 250 291 b 68 -58 181 103 132 18 b 113 -104 88 -78 102 -93 b 134 -128 123 -115 130 -123 b 142 -136 138 -132 141 -135 l 144 -137 b 317 153 219 -52 276 44 b 362 317 337 206 352 261 b 376 486 372 372 376 429 b 362 655 376 544 372 600 b 317 818 352 710 337 764 b 244 972 296 872 272 923 b 144 1110 216 1021 182 1067 "},"*":{"ha":668,"x_min":0,"x_max":0,"o":"m 318 703 l 351 807 l 122 879 l 89 776 m 378 722 l 290 786 l 149 592 l 238 528 m 378 786 l 290 722 l 431 528 l 519 592 m 318 807 l 351 703 l 579 776 l 547 879 m 279 754 l 389 754 l 389 994 l 279 994 "},"+":{"ha":860,"x_min":0,"x_max":0,"o":"m 376 469 l 118 469 l 118 361 l 376 361 l 376 101 l 485 101 l 485 361 l 743 361 l 743 469 l 485 469 l 485 726 l 376 726 "},",":{"ha":301,"x_min":0,"x_max":0,"o":"m 135 133 b 115 -19 135 81 128 30 b 56 -160 102 -69 82 -115 l 160 -160 b 247 133 218 -78 247 19 l 135 133 "},"-":{"ha":592,"x_min":0,"x_max":0,"o":"m 511 360 l 511 468 l 81 468 l 81 360 "},".":{"ha":288,"x_min":0,"x_max":0,"o":"m 221 57 b 199 111 221 78 213 96 b 144 135 183 127 165 135 b 89 111 123 135 105 127 b 67 57 74 96 67 78 b 89 4 67 36 74 18 b 144 -19 105 -12 123 -19 b 199 4 165 -19 183 -12 b 221 57 213 19 221 37 "},"/":{"ha":515,"x_min":0,"x_max":0,"o":"m 21 -82 l 124 -118 l 496 1001 l 393 1038 "},":":{"ha":350,"x_min":0,"x_max":0,"o":"m 175 543 b 228 565 195 543 213 550 b 251 619 244 580 251 598 b 228 674 251 640 244 658 b 175 697 213 689 195 697 b 119 674 154 697 135 689 b 97 619 105 659 97 641 b 119 565 97 597 105 579 b 175 543 134 550 153 543 m 176 -3 b 231 21 197 -3 215 5 b 254 75 246 37 254 55 b 231 129 254 96 246 114 b 176 151 216 144 198 151 b 122 129 155 151 137 144 b 100 75 107 114 100 96 b 122 21 100 54 107 36 b 176 -3 137 5 155 -3 "},";":{"ha":356,"x_min":0,"x_max":0,"o":"m 138 133 b 118 -19 138 81 131 30 b 58 -160 105 -69 85 -115 l 161 -160 b 250 133 220 -78 250 19 l 138 133 m 183 542 b 238 564 205 542 223 549 b 260 618 252 580 260 598 b 238 672 260 638 252 656 b 183 696 222 688 204 696 b 128 672 162 696 144 688 b 106 618 113 657 106 639 b 128 564 106 597 113 579 b 183 542 143 549 161 542 "},"<":{"ha":865,"x_min":0,"x_max":0,"o":"m 189 472 l 189 353 l 664 132 l 664 251 l 321 413 l 664 574 l 664 693 "},"=":{"ha":865,"x_min":0,"x_max":0,"o":"m 715 499 l 715 607 l 156 607 l 156 499 m 715 219 l 715 329 l 156 329 l 156 219 "},">":{"ha":865,"x_min":0,"x_max":0,"o":"m 678 472 l 678 353 l 201 132 l 201 251 l 546 413 l 201 574 l 201 693 "},"?":{"ha":694,"x_min":0,"x_max":0,"o":"m 386 57 b 363 111 386 78 378 96 b 308 135 348 127 330 135 b 254 111 288 135 270 127 b 232 57 239 96 232 78 b 254 4 232 37 239 19 b 308 -19 270 -12 288 -19 b 363 4 330 -19 348 -12 b 386 57 378 19 386 37 m 335 989 b 146 922 264 989 201 967 b 44 753 93 879 59 822 l 151 736 b 218 839 161 778 183 812 b 335 881 252 867 291 881 b 468 824 386 881 430 862 b 522 692 504 787 522 743 b 493 593 522 655 513 622 b 460 553 484 578 473 565 b 415 524 447 541 432 531 b 348 479 390 512 368 497 b 296 417 328 462 311 441 b 250 261 265 368 250 316 l 360 261 b 386 358 360 297 369 330 b 460 425 404 386 428 408 b 531 472 487 438 510 454 b 585 535 552 491 570 512 b 632 692 616 583 632 635 b 544 901 632 773 603 843 b 335 989 486 960 416 989 "},"@":{"ha":1368,"x_min":0,"x_max":0,"o":"m 707 993 b 581 981 664 993 622 989 b 461 944 540 972 500 960 b 349 885 421 929 384 909 b 253 804 315 861 282 834 b 172 708 223 775 196 742 b 113 596 148 673 128 636 b 64 349 80 515 64 433 b 76 223 64 306 68 264 b 113 101 85 182 97 141 b 172 -9 128 63 148 26 b 253 -106 196 -44 223 -76 b 349 -187 282 -136 315 -163 b 461 -246 384 -210 421 -230 b 581 -282 500 -262 540 -274 b 707 -294 622 -290 664 -294 b 815 -285 743 -294 779 -291 b 919 -257 850 -279 885 -270 l 886 -164 b 798 -187 857 -174 828 -182 b 707 -196 768 -193 738 -196 b 596 -185 669 -196 632 -192 b 489 -150 560 -177 524 -166 b 400 -101 457 -136 428 -120 b 322 -37 372 -83 346 -62 b 258 42 298 -12 277 14 b 208 131 239 69 222 99 b 174 238 193 166 181 201 b 163 349 166 274 163 311 b 181 492 163 399 169 446 b 236 622 194 537 212 581 b 323 735 261 665 290 703 b 435 821 356 768 393 797 b 707 893 516 869 607 893 b 819 883 745 893 782 890 b 925 847 855 876 891 864 b 1015 799 956 833 986 817 b 1093 735 1043 781 1069 760 b 1158 656 1118 711 1140 684 b 1207 567 1176 628 1192 598 b 1253 349 1238 499 1253 426 b 1121 -3 1253 217 1209 100 b 1085 -21 1111 -15 1099 -21 b 1051 -7 1073 -21 1062 -16 b 1038 28 1042 3 1038 15 l 1038 349 b 942 582 1038 440 1006 518 b 707 679 877 647 799 679 b 475 582 616 679 539 647 b 378 349 410 517 378 439 b 475 115 378 258 410 180 b 707 19 539 51 616 19 b 932 113 795 19 870 50 l 932 28 b 976 -78 932 -14 947 -49 b 1083 -122 1006 -107 1042 -122 b 1194 -71 1128 -122 1165 -105 b 1261 21 1219 -41 1242 -11 b 1310 118 1281 52 1297 85 b 1341 231 1324 154 1334 192 b 1351 349 1348 269 1351 309 b 1339 475 1351 392 1347 434 b 1303 596 1331 516 1319 556 b 1243 708 1287 636 1267 673 b 1163 804 1219 742 1192 775 b 1065 885 1133 834 1100 861 b 953 944 1030 909 993 929 b 833 981 913 960 873 972 b 707 993 792 989 750 993 m 707 574 b 867 508 770 574 823 552 b 932 349 910 465 932 412 b 867 189 932 287 910 233 b 707 124 823 145 770 124 b 550 189 646 124 594 145 b 483 349 506 234 483 288 b 550 508 483 411 506 464 b 707 574 594 552 646 574 "},"A":{"ha":856,"x_min":0,"x_max":0,"o":"m 426 819 l 593 368 l 263 368 m 633 258 l 726 0 l 843 0 l 482 972 l 371 972 l 13 0 l 131 0 l 224 258 "},"B":{"ha":865,"x_min":0,"x_max":0,"o":"m 501 442 b 619 393 548 442 587 425 b 669 276 653 361 669 322 b 619 160 669 231 653 192 b 501 111 587 127 548 111 l 239 111 l 239 442 m 451 861 b 564 817 496 861 533 846 b 608 707 594 787 608 750 b 564 597 608 663 594 627 b 451 553 533 568 496 553 l 239 553 l 239 861 m 129 0 l 506 0 b 700 81 581 0 646 27 b 781 275 754 134 781 199 b 740 417 781 328 767 375 b 633 517 713 461 677 494 b 719 708 691 569 719 632 b 643 894 719 781 694 843 b 456 972 591 946 529 972 l 129 972 "},"C":{"ha":936,"x_min":0,"x_max":0,"o":"m 540 989 b 199 842 402 989 288 940 b 98 681 154 794 121 740 b 64 486 75 621 64 556 b 98 292 64 416 75 351 b 199 131 121 234 154 180 b 540 -17 288 32 402 -17 b 733 25 610 -17 674 -3 b 816 73 763 38 791 54 b 888 139 841 92 865 114 l 810 217 b 540 92 738 133 649 92 b 276 207 434 92 346 130 b 199 334 242 245 216 287 b 172 486 181 381 172 431 b 199 638 172 541 181 591 b 276 765 216 684 242 726 b 540 881 346 842 434 881 b 810 756 649 880 738 838 l 888 835 b 817 900 866 860 843 881 b 733 949 791 919 763 935 b 640 979 704 963 673 973 b 540 989 608 986 575 989 "},"D":{"ha":953,"x_min":0,"x_max":0,"o":"m 404 864 b 671 753 509 864 598 827 b 782 486 745 679 782 590 b 671 219 782 382 745 294 b 404 108 598 145 509 108 l 239 108 l 239 864 l 404 864 m 129 972 l 129 0 l 404 0 b 747 143 538 0 652 48 b 854 299 794 190 830 242 b 890 486 878 356 890 419 b 747 831 890 620 843 735 b 404 972 653 925 538 972 "},"E":{"ha":821,"x_min":0,"x_max":0,"o":"m 707 0 l 707 108 l 239 108 l 239 442 l 615 442 l 615 551 l 239 551 l 239 864 l 706 864 l 706 972 l 129 972 l 129 0 "},"F":{"ha":753,"x_min":0,"x_max":0,"o":"m 239 0 l 239 428 l 622 428 l 622 536 l 239 536 l 239 864 l 707 864 l 707 972 l 129 972 l 129 0 "},"G":{"ha":1063,"x_min":0,"x_max":0,"o":"m 539 989 b 199 843 401 989 288 940 b 64 486 109 745 64 626 b 197 129 64 346 108 227 b 539 -17 287 32 401 -17 b 732 24 607 -17 672 -3 b 815 73 762 38 789 54 b 886 138 841 92 865 113 b 1014 486 971 234 1014 350 l 1014 540 l 640 540 l 640 432 l 899 432 b 870 315 895 390 885 351 b 808 217 855 279 834 246 b 539 92 737 133 647 92 b 276 207 432 92 345 130 b 172 486 207 285 172 378 b 276 765 172 595 207 688 b 539 881 345 842 432 881 b 808 756 647 880 737 838 l 888 835 b 817 900 866 860 843 881 b 733 949 791 919 763 935 b 640 979 704 963 672 973 b 539 989 607 986 573 989 "},"H":{"ha":1008,"x_min":0,"x_max":0,"o":"m 239 0 l 239 446 l 771 446 l 771 0 l 881 0 l 881 972 l 771 972 l 771 554 l 239 554 l 239 972 l 129 972 l 129 0 "},"I":{"ha":367,"x_min":0,"x_max":0,"o":"m 239 0 l 239 972 l 129 972 l 129 0 "},"J":{"ha":572,"x_min":0,"x_max":0,"o":"m 349 246 b 303 139 349 205 333 169 b 194 93 272 108 236 93 b 86 138 152 93 116 108 l 10 61 b 194 -17 61 9 122 -17 b 381 61 267 -17 329 9 b 457 246 431 113 457 175 l 457 972 l 349 972 "},"K":{"ha":836,"x_min":0,"x_max":0,"o":"m 239 0 l 239 360 l 326 453 l 692 0 l 829 0 l 400 535 l 813 972 l 667 972 l 239 524 l 239 972 l 129 972 l 129 0 "},"L":{"ha":721,"x_min":0,"x_max":0,"o":"m 706 0 l 706 108 l 239 108 l 239 972 l 129 972 l 129 0 "},"M":{"ha":1101,"x_min":0,"x_max":0,"o":"m 17 0 l 126 0 l 258 765 l 490 117 l 613 117 l 843 765 l 975 0 l 1086 0 l 921 972 l 800 972 l 551 276 l 301 972 l 182 972 "},"N":{"ha":1014,"x_min":0,"x_max":0,"o":"m 129 0 l 239 0 l 239 778 l 776 0 l 885 0 l 885 972 l 776 972 l 776 194 l 239 972 l 129 972 "},"O":{"ha":1076,"x_min":0,"x_max":0,"o":"m 539 881 b 800 765 644 881 731 842 b 878 638 834 726 860 684 b 904 486 895 591 904 541 b 800 207 904 378 869 285 b 539 92 731 130 644 92 b 276 207 432 92 345 130 b 172 486 207 285 172 378 b 198 638 172 541 181 591 b 276 765 215 684 241 726 b 539 881 345 842 432 881 m 539 989 b 197 842 401 989 287 940 b 64 486 108 744 64 626 b 197 129 64 346 108 227 b 539 -17 287 32 401 -17 b 878 128 676 -17 789 31 b 1014 486 969 226 1014 345 b 879 843 1014 626 969 745 b 539 989 790 940 677 989 "},"P":{"ha":794,"x_min":0,"x_max":0,"o":"m 453 864 b 593 804 506 864 553 844 b 651 664 632 765 651 719 b 593 525 651 610 632 564 b 453 465 553 485 506 465 l 239 465 l 239 864 m 129 0 l 239 0 l 239 357 l 453 357 b 671 447 537 357 610 387 b 760 664 730 506 760 579 b 671 882 760 750 730 823 b 453 972 611 942 538 972 l 129 972 "},"Q":{"ha":1076,"x_min":0,"x_max":0,"o":"m 539 881 b 800 765 644 881 731 842 b 878 638 834 726 860 684 b 904 486 895 591 904 541 b 829 244 904 394 879 313 l 731 344 l 653 267 l 754 167 b 539 92 695 117 623 92 b 276 207 432 92 345 130 b 172 486 207 285 172 378 b 198 638 172 541 181 591 b 276 765 215 684 241 726 b 539 881 345 842 432 881 m 539 989 b 197 842 401 989 287 940 b 64 486 108 744 64 626 b 197 131 64 347 108 229 b 539 -17 287 32 401 -17 b 832 86 654 -17 751 18 l 938 -17 l 1014 60 l 910 164 b 1014 486 979 255 1014 362 b 878 844 1014 627 969 746 b 539 989 789 941 676 989 "},"R":{"ha":821,"x_min":0,"x_max":0,"o":"m 472 864 b 599 811 521 864 563 846 b 651 683 634 776 651 733 b 599 557 651 634 634 592 b 472 504 563 522 521 504 l 239 504 l 239 864 m 129 0 l 239 0 l 239 396 l 463 396 l 642 0 l 760 0 l 571 418 b 708 519 626 438 672 471 b 760 683 743 568 760 622 b 675 889 760 763 731 831 b 472 972 619 944 552 972 l 129 972 "},"S":{"ha":751,"x_min":0,"x_max":0,"o":"m 368 989 b 163 914 285 989 216 964 b 101 830 136 889 115 861 b 81 729 88 799 81 765 b 160 557 81 656 107 599 b 364 471 213 514 281 486 b 515 404 425 460 475 438 b 572 281 553 371 572 330 b 514 147 572 227 553 182 b 368 92 474 110 425 92 b 246 126 322 92 281 103 b 175 217 213 149 189 179 l 71 183 b 182 39 90 123 127 75 b 368 -17 236 2 298 -17 b 590 69 457 -17 531 12 b 682 281 651 128 682 198 b 594 478 682 361 653 427 b 371 578 536 530 462 563 b 225 640 303 590 255 611 b 189 729 201 663 189 693 b 239 838 189 774 206 810 b 368 881 271 866 314 881 b 476 854 412 881 448 872 b 536 779 505 837 525 812 l 640 814 b 540 942 623 868 589 910 b 368 989 492 973 435 989 "},"T":{"ha":767,"x_min":0,"x_max":0,"o":"m 15 864 l 329 864 l 329 0 l 439 0 l 439 864 l 751 864 l 751 972 l 15 972 "},"U":{"ha":982,"x_min":0,"x_max":0,"o":"m 115 401 b 224 99 115 277 151 176 b 490 -17 295 22 384 -17 b 758 99 598 -17 687 22 b 840 233 794 138 822 182 b 867 401 858 283 867 339 l 867 972 l 758 972 l 758 401 b 681 178 758 308 732 233 b 490 92 629 120 565 92 b 301 178 416 92 353 120 b 225 401 250 233 225 308 l 225 972 l 115 972 "},"V":{"ha":872,"x_min":0,"x_max":0,"o":"m 379 0 l 493 0 l 857 972 l 742 972 l 436 156 l 129 972 l 13 972 "},"W":{"ha":1276,"x_min":0,"x_max":0,"o":"m 924 200 l 697 972 l 581 972 l 356 200 l 129 972 l 13 972 l 299 0 l 413 0 l 639 769 l 867 0 l 981 0 l 1265 972 l 1147 972 "},"X":{"ha":779,"x_min":0,"x_max":0,"o":"m 390 589 l 144 972 l 17 972 l 326 488 l 15 0 l 143 0 l 390 385 l 636 0 l 767 0 l 456 488 l 765 972 l 635 972 "},"Y":{"ha":754,"x_min":0,"x_max":0,"o":"m 324 443 l 324 0 l 432 0 l 432 443 l 743 972 l 614 972 l 378 568 l 142 972 l 13 972 "},"Z":{"ha":838,"x_min":0,"x_max":0,"o":"m 769 0 l 769 108 l 204 108 l 774 864 l 774 972 l 69 972 l 69 864 l 633 864 l 65 108 l 65 0 "},"[":{"ha":449,"x_min":0,"x_max":0,"o":"m 347 1111 l 347 1001 l 244 1001 b 239 996 241 1001 239 1000 l 239 -24 b 244 -31 239 -28 241 -31 l 347 -31 l 347 -139 l 240 -139 b 161 -107 210 -139 183 -128 b 129 -29 140 -86 129 -60 l 129 1000 b 161 1079 129 1031 140 1057 b 240 1111 183 1100 210 1111 "},"\\":{"ha":518,"x_min":0,"x_max":0,"o":"m 496 -82 l 393 -118 l 21 1001 l 124 1038 "},"]":{"ha":449,"x_min":0,"x_max":0,"o":"m 114 1111 l 114 1001 l 217 1001 b 222 996 220 1001 222 1000 l 222 -24 b 217 -31 222 -28 220 -31 l 114 -31 l 114 -139 l 221 -139 b 300 -107 251 -139 278 -128 b 332 -29 321 -86 332 -60 l 332 1000 b 300 1079 332 1031 321 1057 b 221 1111 278 1100 251 1111 "},"^":{"ha":768,"x_min":0,"x_max":0,"o":"m 660 518 l 444 972 l 324 972 l 540 518 m 228 518 l 444 972 l 324 972 l 110 518 "},"_":{"ha":661,"x_min":0,"x_max":0,"o":"m 622 -108 l 622 0 l 39 0 l 39 -108 "},"`":{"ha":306,"x_min":0,"x_max":0,"o":"m 310 793 l 156 974 l 7 974 l 181 793 "},"a":{"ha":835,"x_min":0,"x_max":0,"o":"m 635 588 b 625 602 631 592 628 597 b 614 617 622 607 619 612 b 399 711 560 680 488 711 b 153 606 300 711 218 676 b 57 347 89 535 57 449 b 153 89 57 246 89 160 b 399 -17 218 19 300 -17 b 614 78 489 -17 561 15 b 625 91 619 81 622 86 b 635 106 628 96 631 101 l 635 0 l 739 0 l 739 694 l 635 694 m 401 603 b 567 529 470 603 525 578 b 613 448 587 505 603 478 b 629 347 624 418 629 384 b 613 247 629 311 624 278 b 567 165 603 217 587 189 b 401 92 525 116 470 92 b 232 165 332 92 275 116 b 167 347 188 215 167 276 b 232 529 167 419 188 480 b 401 603 275 578 332 603 "},"b":{"ha":835,"x_min":0,"x_max":0,"o":"m 433 603 b 604 529 504 603 561 578 b 669 347 648 480 669 419 b 604 165 669 276 648 215 b 433 92 561 116 504 92 b 269 165 365 92 310 116 b 222 247 249 189 233 217 b 206 347 211 278 206 311 b 222 448 206 384 211 418 b 269 529 233 478 249 505 b 433 603 310 578 365 603 m 438 711 b 229 621 350 711 281 681 b 218 606 225 616 222 611 b 206 592 214 601 210 596 l 206 972 l 97 972 l 97 0 l 201 0 l 201 106 b 212 91 205 101 209 96 b 222 76 215 86 219 81 b 438 -17 276 14 348 -17 b 683 89 537 -17 619 19 b 779 347 747 160 779 246 b 683 606 779 449 747 535 b 438 711 619 676 537 711 "},"c":{"ha":686,"x_min":0,"x_max":0,"o":"m 401 711 b 154 606 301 711 219 676 b 57 347 89 535 57 449 b 154 89 57 246 89 160 b 401 -17 219 19 301 -17 b 646 88 499 -17 580 18 l 569 167 b 401 92 525 117 469 92 b 231 165 331 92 274 116 b 165 347 187 215 165 276 b 231 529 165 419 187 480 b 401 603 274 578 331 603 b 569 528 469 603 525 578 l 646 607 b 401 711 580 676 499 711 "},"d":{"ha":835,"x_min":0,"x_max":0,"o":"m 401 603 b 232 529 332 603 275 578 b 167 347 188 480 167 419 b 232 165 167 276 188 215 b 401 92 275 116 332 92 b 567 165 470 92 525 116 b 613 247 587 189 603 217 b 629 347 624 278 629 311 b 613 448 629 384 624 418 b 567 529 603 478 587 505 b 401 603 525 578 470 603 m 399 711 b 606 621 485 711 554 681 b 618 608 610 617 614 613 b 629 592 622 603 625 597 l 629 972 l 739 972 l 739 0 l 635 0 l 635 106 b 624 90 631 100 627 95 b 611 75 620 84 616 80 b 399 -17 558 14 488 -17 b 153 89 300 -17 218 19 b 57 347 89 160 57 246 b 153 606 57 449 89 535 b 399 711 218 676 300 711 "},"e":{"ha":760,"x_min":0,"x_max":0,"o":"m 718 347 b 632 607 718 452 689 538 b 401 711 575 676 498 711 b 154 606 301 711 219 676 b 57 347 89 535 57 449 b 156 89 57 246 90 160 b 403 -17 221 19 304 -17 b 685 88 521 -17 615 18 l 610 167 b 403 92 560 117 491 92 b 249 151 343 92 291 112 b 199 217 228 171 212 193 b 174 299 187 242 178 269 l 718 299 m 400 604 b 542 547 459 604 506 585 b 604 399 575 509 596 460 l 174 399 b 246 544 182 457 206 506 b 400 604 288 584 340 604 "},"f":{"ha":482,"x_min":0,"x_max":0,"o":"m 397 992 b 235 924 333 992 279 969 b 167 761 189 879 167 825 l 167 694 l 39 694 l 39 586 l 167 586 l 167 0 l 275 0 l 275 586 l 476 586 l 476 694 l 275 694 l 275 761 b 311 847 275 795 287 824 b 397 883 334 871 363 883 l 476 883 l 476 992 l 397 992 "},"g":{"ha":835,"x_min":0,"x_max":0,"o":"m 399 711 b 153 606 300 711 218 676 b 57 347 89 535 57 449 b 153 89 57 246 89 160 b 399 -17 218 19 300 -17 b 608 74 487 -17 556 13 b 619 87 613 77 617 82 b 629 101 622 92 625 97 l 629 78 l 629 56 b 613 -40 628 20 623 -12 b 569 -119 603 -69 589 -95 b 399 -194 531 -169 474 -194 b 282 -181 356 -194 317 -190 b 182 -135 247 -171 213 -156 l 133 -222 b 213 -261 159 -237 186 -250 b 299 -287 239 -272 268 -281 b 401 -296 330 -293 364 -296 b 646 -196 502 -296 584 -262 b 739 67 708 -129 739 -42 l 739 694 l 635 694 l 635 588 b 624 603 631 592 628 597 b 613 617 621 608 617 613 b 399 711 560 680 488 711 m 401 603 b 567 529 470 603 525 578 b 613 447 587 504 603 477 b 629 347 624 418 629 384 b 613 247 629 311 624 278 b 567 165 603 217 587 189 b 401 92 525 116 470 92 b 232 165 332 92 275 116 b 167 347 188 215 167 276 b 232 529 167 419 188 480 b 401 603 275 578 332 603 "},"h":{"ha":775,"x_min":0,"x_max":0,"o":"m 697 369 b 676 508 697 420 690 467 b 615 617 663 550 642 586 b 407 711 559 680 489 711 b 221 629 330 711 268 684 b 214 620 219 626 217 623 b 207 610 211 617 209 613 l 207 972 l 97 972 l 97 0 l 207 0 l 207 371 b 261 539 207 440 225 496 b 399 603 297 581 343 603 b 535 539 453 603 499 581 b 588 371 570 498 588 442 l 588 0 l 697 0 "},"i":{"ha":321,"x_min":0,"x_max":0,"o":"m 214 0 l 214 694 l 106 694 l 106 0 m 231 925 b 211 975 231 945 224 962 b 161 994 198 988 181 994 b 113 975 142 994 125 988 b 92 925 99 961 92 944 b 113 876 92 906 99 890 b 161 856 126 863 143 856 b 211 876 181 856 197 863 b 231 925 224 889 231 906 "},"j":{"ha":338,"x_min":0,"x_max":0,"o":"m 122 4 b 65 -132 122 -49 103 -94 b -72 -190 27 -171 -19 -190 l -72 -299 b 143 -210 12 -299 84 -269 b 210 -111 173 -179 195 -146 b 232 4 225 -76 232 -37 l 232 694 l 122 694 m 247 926 b 228 978 247 948 241 965 b 176 997 215 991 198 997 b 128 978 157 997 141 991 b 107 926 114 964 107 947 b 128 878 107 908 114 892 b 176 857 142 864 158 857 b 228 878 197 857 214 864 b 247 926 241 891 247 907 "},"k":{"ha":674,"x_min":0,"x_max":0,"o":"m 206 0 l 206 225 l 310 333 l 539 0 l 672 0 l 386 414 l 651 694 l 503 694 l 206 383 l 206 972 l 97 972 l 97 0 "},"l":{"ha":303,"x_min":0,"x_max":0,"o":"m 97 0 l 206 0 l 206 972 l 97 972 "},"m":{"ha":1218,"x_min":0,"x_max":0,"o":"m 1140 369 b 1121 509 1140 421 1134 468 b 1061 617 1108 550 1088 586 b 860 711 1008 680 941 711 b 671 618 780 711 717 680 b 651 588 664 609 658 599 b 636 551 645 576 640 564 b 618 586 631 563 625 575 b 594 617 612 597 604 607 b 393 711 541 680 474 711 b 214 625 318 711 258 682 b 209 619 213 623 211 621 b 203 613 207 618 205 615 l 203 694 l 97 694 l 97 0 l 206 0 l 206 371 b 257 540 206 443 223 500 b 385 603 290 582 333 603 b 514 540 438 603 481 582 b 564 371 547 500 564 443 l 564 0 l 674 0 l 674 371 b 724 540 674 443 690 500 b 851 603 757 582 800 603 b 981 540 904 603 947 582 b 1032 371 1015 500 1032 443 l 1032 0 l 1140 0 "},"n":{"ha":774,"x_min":0,"x_max":0,"o":"m 696 369 b 676 508 696 420 689 467 b 614 617 662 550 642 586 b 406 711 558 680 489 711 b 219 628 329 711 267 683 b 211 618 217 625 214 622 l 203 607 l 203 694 l 97 694 l 97 0 l 206 0 l 206 371 b 261 539 206 440 224 496 b 397 603 297 581 343 603 b 533 539 453 603 498 581 b 588 371 569 498 588 442 l 588 0 l 696 0 "},"o":{"ha":800,"x_min":0,"x_max":0,"o":"m 401 603 b 569 529 470 603 526 578 b 635 347 613 480 635 419 b 619 248 635 311 629 278 b 569 165 608 218 592 190 b 401 92 526 116 470 92 b 231 165 331 92 274 116 b 165 347 187 215 165 276 b 182 447 165 383 171 416 b 231 529 193 477 209 504 b 401 603 274 578 331 603 m 401 711 b 154 606 301 711 219 676 b 57 347 89 535 57 449 b 154 89 57 246 89 160 b 401 -17 219 19 301 -17 b 646 89 500 -17 581 19 b 744 347 712 160 744 246 b 646 606 744 449 712 535 b 401 711 581 676 500 711 "},"p":{"ha":842,"x_min":0,"x_max":0,"o":"m 208 589 b 219 604 212 594 216 599 b 231 618 223 610 227 614 b 444 711 283 680 355 711 b 690 606 544 711 625 676 b 786 347 754 535 786 449 b 690 89 786 246 754 160 b 444 -17 625 19 544 -17 b 233 75 356 -17 286 14 b 223 88 230 79 226 83 b 213 103 220 93 216 98 l 213 -278 l 104 -278 l 104 694 l 208 694 m 440 92 b 611 165 511 92 568 116 b 676 347 655 215 676 276 b 611 529 676 419 655 480 b 440 603 568 578 511 603 b 275 529 372 603 317 578 b 213 347 233 480 213 419 b 275 165 213 276 233 215 b 440 92 317 116 372 92 "},"q":{"ha":824,"x_min":0,"x_max":0,"o":"m 635 589 b 624 605 631 594 627 600 b 611 619 620 610 616 615 b 399 711 558 681 488 711 b 153 606 300 711 218 676 b 57 347 89 535 57 449 b 153 89 57 246 89 160 b 399 -17 218 19 300 -17 b 606 74 486 -17 555 13 b 619 88 611 77 616 82 b 629 103 622 93 625 98 l 629 -278 l 739 -278 l 739 694 l 635 694 m 401 92 b 232 165 332 92 275 116 b 167 347 188 215 167 276 b 232 529 167 419 188 480 b 401 603 275 578 332 603 b 567 529 470 603 525 578 b 613 448 587 505 603 478 b 629 347 624 418 629 384 b 613 247 629 311 624 278 b 567 165 603 217 587 189 b 401 92 525 116 470 92 "},"r":{"ha":465,"x_min":0,"x_max":0,"o":"m 97 0 l 206 0 l 206 365 b 281 535 208 433 233 489 b 451 603 329 580 386 603 l 451 711 b 306 676 397 711 348 700 b 225 617 276 662 249 642 b 214 605 221 613 218 609 b 203 592 210 601 206 596 l 203 694 l 97 694 "},"s":{"ha":600,"x_min":0,"x_max":0,"o":"m 515 581 b 436 676 499 621 472 653 b 301 711 398 700 353 711 b 144 656 238 711 186 693 b 82 515 103 619 82 573 b 138 390 82 464 100 423 b 203 348 157 375 179 360 b 283 318 228 335 255 325 b 326 306 299 314 313 310 b 363 289 339 301 351 295 b 433 203 410 267 433 238 b 394 121 434 171 421 144 b 293 88 369 99 335 88 b 160 165 229 88 185 113 l 58 129 b 150 22 79 84 109 48 b 294 -17 191 -4 239 -17 b 469 44 364 -17 422 4 b 544 201 519 86 544 138 b 485 339 544 256 525 302 b 325 418 450 372 397 399 b 290 429 313 422 301 425 b 257 440 278 433 267 437 b 192 514 213 460 192 484 b 221 581 191 541 200 563 b 301 607 239 598 266 607 b 372 590 328 607 352 601 b 413 544 393 578 406 563 l 515 581 "},"t":{"ha":506,"x_min":0,"x_max":0,"o":"m 146 694 l 25 694 l 25 586 l 146 586 l 146 285 b 229 85 146 207 174 140 b 431 0 285 28 352 0 l 465 0 l 465 108 l 431 108 b 306 161 381 108 340 126 b 254 285 271 194 254 236 l 254 586 l 467 586 l 467 694 l 254 694 l 254 911 l 146 911 "},"u":{"ha":756,"x_min":0,"x_max":0,"o":"m 79 325 b 165 78 79 223 108 141 b 379 -17 224 15 295 -17 b 592 78 463 -17 533 15 b 678 325 649 141 678 223 l 678 694 l 569 694 l 569 324 b 514 156 569 254 551 198 b 379 92 478 113 433 92 b 243 156 324 92 278 113 b 188 324 206 198 188 254 l 188 694 l 79 694 "},"v":{"ha":699,"x_min":0,"x_max":0,"o":"m 292 0 l 408 0 l 688 694 l 569 694 l 350 146 l 131 694 l 13 694 "},"w":{"ha":1075,"x_min":0,"x_max":0,"o":"m 763 171 l 596 694 l 481 694 l 296 171 l 128 694 l 14 694 l 236 0 l 350 0 l 536 524 l 704 0 l 817 0 l 1063 694 l 949 694 "},"x":{"ha":632,"x_min":0,"x_max":0,"o":"m 488 0 l 619 0 l 382 347 l 619 694 l 489 694 l 317 444 l 144 694 l 13 694 l 250 347 l 13 0 l 147 0 l 317 249 "},"y":{"ha":728,"x_min":0,"x_max":0,"o":"m 307 1 l 276 -68 b 206 -154 261 -105 237 -134 b 94 -186 172 -175 135 -186 l 44 -186 l 44 -294 l 94 -294 b 264 -244 156 -294 213 -278 b 331 -186 290 -228 312 -208 b 376 -111 349 -164 364 -139 l 717 694 l 599 694 l 364 142 l 131 694 l 13 694 "},"z":{"ha":656,"x_min":0,"x_max":0,"o":"m 594 0 l 594 108 l 207 108 l 594 586 l 594 694 l 63 694 l 63 586 l 450 586 l 63 108 l 63 0 "},"{":{"ha":535,"x_min":0,"x_max":0,"o":"m 454 -31 b 368 19 417 -29 388 -12 b 325 260 339 66 325 146 b 257 458 325 349 302 415 b 240 474 252 464 247 469 b 219 486 234 478 227 482 b 249 507 231 493 241 500 b 272 533 258 514 266 523 b 325 713 307 576 325 636 b 333 850 325 766 328 812 b 361 942 339 888 348 919 b 454 1003 383 981 414 1002 l 454 1111 b 279 1018 378 1111 320 1080 b 215 711 237 950 215 848 b 189 590 215 657 206 617 b 81 540 167 557 131 540 l 81 432 b 182 390 125 432 159 418 b 215 261 204 362 215 319 b 231 83 215 194 221 134 b 279 -43 242 32 258 -10 b 454 -139 319 -107 377 -139 "},"|":{"ha":365,"x_min":0,"x_max":0,"o":"m 128 -306 l 238 -306 l 238 1097 l 128 1097 "},"}":{"ha":535,"x_min":0,"x_max":0,"o":"m 81 -31 b 165 19 118 -29 146 -12 b 211 260 196 67 211 147 b 278 458 211 349 233 415 b 296 474 283 464 289 469 b 315 486 302 478 309 482 b 285 507 304 493 294 500 b 261 533 277 514 269 523 b 211 713 228 574 211 634 b 172 942 211 819 198 895 b 81 1003 151 981 120 1002 l 81 1111 b 256 1018 157 1111 216 1080 b 319 711 298 950 319 848 b 347 590 319 657 329 617 b 454 540 369 557 405 540 l 454 432 b 354 390 410 432 376 418 b 328 338 342 377 333 360 b 319 261 322 315 319 290 b 303 83 319 194 314 134 b 257 -43 293 32 277 -10 b 81 -139 216 -107 157 -139 "},"~":{"ha":782,"x_min":0,"x_max":0,"o":"m 267 571 b 143 524 216 571 175 555 b 81 364 107 488 86 434 l 190 364 b 217 442 193 401 202 427 b 269 463 229 456 246 463 b 306 451 280 463 292 459 b 361 400 322 443 341 426 b 528 308 409 338 465 307 b 649 354 577 308 617 324 b 714 515 687 391 708 445 l 606 515 b 579 436 603 479 594 453 b 526 417 568 423 550 417 b 468 444 505 417 486 426 b 453 460 463 449 459 454 b 436 479 448 465 443 472 b 267 571 390 540 333 571 "}," ":{"ha":347,"x_min":0,"x_max":0,"o":""},"¡":{"ha":413,"x_min":0,"x_max":0,"o":"m 207 557 b 151 581 186 557 167 565 b 129 633 137 594 129 612 b 151 689 129 656 137 674 b 207 711 166 704 185 711 b 263 689 229 711 248 704 b 283 633 276 674 283 656 b 263 581 283 612 276 594 b 207 557 247 565 228 557 m 153 410 l 261 410 l 261 -281 l 153 -281 "},"¢":{"ha":681,"x_min":0,"x_max":0,"o":"m 426 972 l 335 972 l 335 844 b 238 809 300 837 268 825 b 154 744 207 793 179 771 b 57 486 89 674 57 588 b 154 228 57 385 89 299 b 238 163 179 201 207 179 b 335 128 268 147 300 135 l 335 0 l 426 0 l 426 124 b 646 226 512 128 585 163 l 569 306 b 505 256 551 284 529 268 b 426 235 480 244 454 237 l 426 738 b 569 667 484 733 531 709 l 646 746 b 426 849 585 810 512 844 m 335 242 b 278 265 314 246 295 254 b 231 306 260 276 244 290 b 165 486 187 356 165 416 b 182 585 165 522 171 555 b 231 668 193 616 209 643 b 278 707 244 684 260 697 b 335 729 295 717 314 725 "},"£":{"ha":800,"x_min":0,"x_max":0,"o":"m 258 115 b 283 167 269 132 278 149 b 290 222 288 185 290 204 l 290 390 l 568 390 l 568 506 l 290 506 l 290 708 b 339 825 290 754 306 793 b 456 874 371 857 410 874 b 572 825 500 874 539 857 b 621 708 605 792 621 753 l 738 708 b 654 907 738 786 710 852 b 456 990 600 963 533 990 b 257 907 378 990 312 963 b 175 708 202 852 175 786 l 175 506 l 67 506 l 67 390 l 175 390 l 175 222 b 143 146 175 193 164 167 b 67 115 122 125 96 115 l 67 0 l 736 0 l 736 115 "},"¤":{"ha":772,"x_min":0,"x_max":0,"o":"m 476 575 b 514 486 501 550 514 520 b 476 397 514 452 501 422 b 388 360 451 372 422 360 b 297 397 352 360 322 372 b 260 486 272 422 260 452 b 297 575 260 520 272 550 b 388 613 322 600 352 613 b 476 575 422 613 451 600 m 510 686 b 453 713 492 698 473 707 b 388 721 432 718 411 721 b 322 713 364 721 343 718 b 264 686 302 707 282 698 l 185 767 l 107 689 l 186 608 b 160 551 175 591 166 572 b 151 486 154 531 151 509 b 186 363 151 440 163 399 l 107 283 l 185 207 l 264 286 b 322 260 282 275 302 266 b 388 251 343 254 364 251 b 453 260 411 251 432 254 b 510 286 473 266 492 275 l 590 207 l 667 283 l 586 363 b 613 421 598 381 607 400 b 622 486 619 441 622 463 b 586 608 622 531 610 571 l 667 689 l 590 767 "},"¥":{"ha":739,"x_min":0,"x_max":0,"o":"m 315 383 l 315 282 l 118 282 l 118 182 l 315 182 l 315 0 l 425 0 l 425 182 l 622 182 l 622 282 l 425 282 l 425 383 l 622 383 l 622 483 l 465 483 l 726 986 l 603 986 l 369 535 l 136 986 l 14 986 l 275 483 l 118 483 l 118 383 "},"¦":{"ha":386,"x_min":0,"x_max":0,"o":"m 247 -306 l 247 306 l 139 306 l 139 -306 m 247 486 l 247 1097 l 139 1097 l 139 486 "},"§":{"ha":706,"x_min":0,"x_max":0,"o":"m 353 989 b 190 925 289 989 235 968 b 124 774 146 883 124 833 b 186 625 124 715 144 666 b 199 614 190 621 194 618 b 211 603 203 610 207 606 b 199 592 207 599 203 595 b 186 581 194 588 190 584 b 122 432 144 539 122 489 b 190 279 122 372 145 321 b 353 215 235 237 289 215 b 450 179 391 215 423 203 b 492 90 478 154 492 125 b 450 3 492 57 478 28 b 353 -33 423 -21 391 -33 b 254 3 314 -33 281 -21 b 215 90 228 27 215 56 l 124 90 b 190 -61 124 31 146 -19 b 353 -125 235 -104 289 -125 b 517 -61 417 -125 471 -104 b 582 90 560 -19 582 31 b 521 239 582 149 562 198 b 508 251 517 244 513 248 b 493 261 503 255 498 258 b 508 272 498 265 503 269 b 519 283 513 276 517 280 b 567 352 541 305 557 328 b 583 432 578 377 583 403 b 517 585 583 491 561 542 b 353 649 471 627 417 649 b 254 685 314 649 281 661 b 215 774 228 708 215 738 b 254 860 215 808 228 837 b 353 897 281 885 314 897 b 450 860 391 897 423 885 b 492 774 478 835 492 806 l 582 774 b 517 925 582 833 560 883 b 353 989 471 968 417 989 m 353 557 b 451 519 392 557 425 544 b 492 432 478 495 492 466 b 451 343 492 397 478 367 b 353 307 425 319 392 307 b 254 343 314 307 281 319 b 214 432 227 367 214 397 b 254 519 214 466 227 495 b 353 557 281 544 314 557 "},"¨":{"ha":610,"x_min":0,"x_max":0,"o":"m 133 994 b 88 975 115 994 100 988 b 67 928 74 962 67 946 b 88 881 67 909 74 894 b 133 861 100 868 116 861 b 182 881 153 861 169 868 b 200 928 194 894 200 909 b 182 975 200 947 194 963 b 133 994 169 988 153 994 m 476 994 b 429 975 458 994 442 988 b 410 928 416 962 410 946 b 429 881 410 909 416 894 b 476 861 443 868 459 861 b 524 881 494 861 510 868 b 543 928 537 894 543 909 b 524 975 543 946 537 962 b 476 994 511 988 495 994 "},"©":{"ha":1131,"x_min":0,"x_max":0,"o":"m 567 989 b 314 922 476 989 392 967 b 210 843 275 900 240 874 b 131 739 179 813 153 778 b 64 488 86 661 64 577 b 131 235 64 397 86 313 b 314 53 174 158 235 97 b 567 -15 393 7 477 -15 b 697 2 612 -15 656 -9 b 818 53 739 14 779 31 b 1001 235 896 97 957 158 b 1051 356 1024 274 1040 314 b 1068 488 1063 398 1068 442 b 1001 739 1068 577 1046 661 b 818 922 957 817 896 878 b 567 989 740 967 656 989 m 567 892 b 853 772 678 892 773 852 b 971 488 931 694 971 599 b 853 200 971 375 931 279 b 567 82 774 121 679 82 b 279 200 454 82 358 121 b 161 488 200 279 161 375 b 279 772 161 599 200 694 b 567 892 359 852 455 892 m 571 761 b 385 682 496 761 434 735 b 311 486 336 629 311 564 b 329 379 311 447 317 412 b 385 290 341 347 360 317 b 571 211 434 238 496 211 b 756 290 645 211 706 238 l 686 360 b 571 308 656 325 618 308 b 454 360 524 308 485 325 b 408 486 424 394 408 436 b 454 613 408 536 424 578 b 571 664 485 647 524 664 b 686 613 618 664 656 647 l 756 682 b 571 761 706 735 645 761 "},"ª":{"ha":513,"x_min":0,"x_max":0,"o":"m 378 919 b 244 982 346 961 302 982 b 97 919 185 982 136 961 b 40 764 59 879 40 827 b 97 608 40 702 59 650 b 244 546 136 567 185 546 b 378 606 303 546 347 566 l 378 556 l 460 556 l 460 972 l 378 972 m 251 893 b 338 857 288 893 316 881 b 371 764 360 832 371 801 b 338 671 371 727 360 696 b 251 633 316 646 288 633 b 163 671 216 633 187 646 b 129 764 140 696 129 727 b 163 857 129 801 140 832 b 251 893 186 881 215 893 "},"«":{"ha":825,"x_min":0,"x_max":0,"o":"m 75 414 l 383 106 l 461 183 l 229 414 l 461 646 l 383 722 m 360 414 l 668 106 l 746 183 l 514 414 l 746 646 l 668 722 "},"¬":{"ha":865,"x_min":0,"x_max":0,"o":"m 574 397 l 574 264 l 683 264 l 683 507 l 181 507 l 181 397 "},"­":{"ha":578,"x_min":0,"x_max":0,"o":"m 503 360 l 503 468 l 76 468 l 76 360 "},"®":{"ha":864,"x_min":0,"x_max":0,"o":"m 432 989 b 167 878 329 989 241 952 b 57 613 94 805 57 716 b 167 346 57 509 94 420 b 432 238 240 274 328 238 b 699 346 537 238 625 274 b 808 613 772 420 808 509 b 699 878 808 716 772 805 b 432 989 625 952 536 989 m 432 896 b 633 813 511 896 578 868 b 715 613 688 758 715 691 b 633 413 715 535 688 468 b 432 329 578 357 511 329 b 232 413 354 329 288 357 b 150 613 177 468 150 535 b 232 813 150 691 177 758 b 432 896 288 868 354 896 m 306 410 l 394 410 l 394 563 l 425 563 l 490 410 l 585 410 l 517 572 b 564 617 535 581 551 596 b 585 690 578 639 585 663 b 547 778 585 725 572 754 b 458 817 522 804 493 817 l 306 817 m 451 731 b 483 718 463 731 473 726 b 496 690 492 712 496 702 b 483 660 496 677 492 667 b 451 650 474 653 463 650 l 394 650 l 394 731 "},"¯":{"ha":415,"x_min":0,"x_max":0,"o":"m 421 799 l 421 903 l -4 903 l -4 799 "},"°":{"ha":511,"x_min":0,"x_max":0,"o":"m 257 997 b 121 943 203 997 158 979 b 65 807 84 905 65 860 b 121 671 65 754 84 709 b 257 617 158 635 203 617 b 392 671 310 617 355 635 b 447 807 429 709 447 754 b 392 943 447 860 429 905 b 257 997 355 979 310 997 m 257 897 b 319 869 280 897 301 888 b 346 807 337 853 346 832 b 319 744 346 782 337 761 b 257 718 302 727 281 718 b 193 744 231 718 210 727 b 167 807 175 761 167 782 b 193 869 167 832 175 853 b 257 897 211 888 232 897 "},"±":{"ha":865,"x_min":0,"x_max":0,"o":"m 747 0 l 747 108 l 118 108 l 118 0 m 378 432 l 378 203 l 488 203 l 488 432 l 710 432 l 710 543 l 488 543 l 488 774 l 378 774 l 378 543 l 156 543 l 156 432 "},"²":{"ha":500,"x_min":0,"x_max":0,"o":"m 233 1121 b 115 1079 188 1121 149 1107 b 54 976 81 1050 61 1016 l 144 957 b 156 985 147 967 151 977 b 176 1007 161 994 168 1001 b 236 1028 194 1021 214 1028 b 299 1004 261 1028 282 1020 b 320 974 308 995 315 985 b 328 938 325 964 328 951 b 292 867 328 916 316 893 l 49 619 l 49 526 l 422 526 l 422 619 l 181 619 l 360 804 b 421 938 400 846 421 890 b 367 1068 421 989 403 1033 b 233 1121 329 1103 284 1121 "},"³":{"ha":490,"x_min":0,"x_max":0,"o":"m 247 1121 b 142 1090 208 1121 173 1111 b 76 1008 110 1069 88 1042 l 165 981 b 194 1014 171 995 181 1006 b 249 1028 209 1023 227 1028 b 308 1007 271 1028 291 1021 b 335 956 326 994 335 977 b 308 900 335 932 326 914 b 250 878 290 885 270 878 l 204 878 l 204 785 l 250 785 b 318 763 277 785 300 777 b 347 697 338 746 347 724 b 319 636 347 672 338 652 b 250 611 301 619 278 611 b 196 625 230 611 212 616 b 158 663 178 634 166 647 l 69 633 b 96 588 75 617 84 601 b 139 550 108 574 122 561 b 249 518 171 529 208 518 b 383 569 301 518 346 535 b 440 697 421 606 440 648 b 414 778 440 725 431 752 b 358 835 399 800 381 819 b 388 864 369 845 379 855 b 408 892 396 873 403 882 b 422 924 414 903 418 914 b 426 956 425 935 426 945 b 375 1072 426 1002 409 1041 b 247 1121 338 1105 295 1121 "},"´":{"ha":306,"x_min":0,"x_max":0,"o":"m 129 793 l 300 972 l 151 972 l 0 793 "},"µ":{"ha":774,"x_min":0,"x_max":0,"o":"m 569 694 l 569 325 b 514 156 569 256 551 199 b 379 92 478 113 433 92 b 243 156 324 92 278 113 b 188 325 206 199 188 256 l 188 694 l 79 694 l 79 -278 l 182 -278 l 182 81 b 379 -17 230 16 296 -17 b 574 81 463 -17 527 16 l 574 0 l 678 0 l 678 694 "},"¶":{"ha":767,"x_min":0,"x_max":0,"o":"m 344 972 b 125 882 258 972 185 942 b 36 664 66 823 36 750 b 125 447 36 579 66 506 b 344 357 186 387 259 357 l 363 357 l 363 -117 l 464 -117 l 464 864 l 538 864 l 538 -117 l 638 -117 l 638 972 l 363 972 l 344 972 "},"·":{"ha":353,"x_min":0,"x_max":0,"o":"m 254 453 b 232 507 254 475 247 493 b 176 529 217 522 199 529 b 121 507 154 529 136 522 b 100 453 107 493 100 475 b 121 399 100 431 107 413 b 176 375 137 383 155 375 b 232 399 198 375 216 383 b 254 453 247 413 254 431 "},"¸":{"ha":296,"x_min":0,"x_max":0,"o":"m 172 4 b 218 -33 192 -3 207 -16 b 233 -92 228 -50 233 -69 b 201 -165 233 -119 223 -144 b 128 -197 181 -187 156 -197 b 65 -176 105 -197 84 -190 l 50 -194 b 6 -250 40 -206 25 -225 b 128 -292 41 -278 81 -292 b 269 -233 183 -292 231 -272 b 328 -92 308 -194 328 -146 b 263 57 328 -32 306 17 "},"¹":{"ha":390,"x_min":0,"x_max":0,"o":"m 31 985 l 90 914 l 181 990 l 181 528 l 275 528 l 275 1111 l 181 1111 "},"º":{"ha":500,"x_min":0,"x_max":0,"o":"m 251 982 b 100 919 189 982 139 961 b 39 764 59 877 39 825 b 100 608 39 703 59 651 b 251 546 139 567 189 546 b 401 608 313 546 363 567 b 463 764 442 651 463 703 b 401 919 463 825 442 877 b 251 982 363 961 313 982 m 251 889 b 336 853 287 889 315 877 b 369 764 358 829 369 799 b 336 674 369 728 358 698 b 251 639 316 650 288 639 b 167 674 215 639 187 650 b 132 764 144 699 132 729 b 167 853 132 798 144 828 b 251 889 188 877 216 889 "},"»":{"ha":825,"x_min":0,"x_max":0,"o":"m 461 414 l 153 106 l 75 183 l 307 414 l 75 646 l 153 722 m 744 414 l 436 106 l 360 183 l 592 414 l 360 646 l 436 722 "},"¼":{"ha":1149,"x_min":0,"x_max":0,"o":"m 674 214 l 674 121 l 931 121 l 931 0 l 1024 0 l 1024 121 l 1117 121 l 1117 214 l 1024 214 l 1024 378 l 931 378 l 931 214 l 776 214 l 932 543 l 847 583 m 190 57 l 268 3 l 911 917 l 832 971 m 31 846 l 90 775 l 181 851 l 181 389 l 275 389 l 275 972 l 181 972 "},"½":{"ha":1194,"x_min":0,"x_max":0,"o":"m 926 593 b 810 551 882 593 843 579 b 747 449 775 522 754 488 l 838 429 b 869 481 842 451 853 469 b 929 500 887 494 907 500 b 992 476 954 500 975 492 b 1021 410 1011 459 1021 437 b 985 339 1021 388 1009 364 l 742 93 l 742 0 l 1115 0 l 1115 93 l 874 93 l 1054 276 b 1114 410 1094 318 1114 363 b 1060 540 1114 462 1096 505 b 926 593 1022 575 977 593 m 190 57 l 268 3 l 911 917 l 832 971 m 31 846 l 90 775 l 181 851 l 181 389 l 275 389 l 275 972 l 181 972 "},"¾":{"ha":1250,"x_min":0,"x_max":0,"o":"m 775 214 l 775 121 l 1032 121 l 1032 0 l 1125 0 l 1125 121 l 1217 121 l 1217 214 l 1125 214 l 1125 378 l 1032 378 l 1032 214 l 878 214 l 1033 543 l 949 583 m 292 57 l 369 3 l 1011 917 l 933 971 m 247 982 b 142 951 208 982 173 972 b 76 869 110 930 88 903 l 165 842 b 194 875 171 856 181 868 b 249 889 209 884 227 889 b 308 868 271 889 291 882 b 335 817 326 855 335 838 b 308 761 335 794 326 775 b 250 739 290 746 270 739 l 204 739 l 204 646 l 250 646 b 318 624 277 646 300 638 b 347 560 338 607 347 586 b 319 497 347 534 338 513 b 250 472 301 481 278 472 b 196 486 230 472 212 477 b 158 524 178 495 166 508 l 69 494 b 96 449 75 478 84 463 b 139 411 108 435 122 422 b 249 379 171 390 208 379 b 383 431 301 379 346 396 b 440 558 421 467 440 509 b 414 638 440 585 431 612 b 358 694 399 660 381 679 b 388 724 369 705 379 715 b 408 753 396 734 403 744 b 422 785 414 764 418 775 b 426 817 425 796 426 806 b 375 933 426 863 409 902 b 247 982 338 966 295 982 "},"¿":{"ha":638,"x_min":0,"x_max":0,"o":"m 268 635 b 290 581 268 613 275 595 b 346 558 306 566 325 558 b 400 581 366 558 384 566 b 424 635 416 596 424 614 b 400 690 424 656 416 675 b 346 713 385 705 367 713 b 290 690 324 713 305 705 b 268 635 275 675 268 657 m 321 -296 b 507 -229 390 -296 452 -274 b 611 -60 562 -186 596 -129 l 503 -43 b 436 -147 494 -84 471 -119 b 321 -187 402 -174 363 -187 b 189 -131 270 -187 226 -169 b 132 1 151 -94 132 -50 b 163 100 132 37 142 69 b 197 140 173 115 184 128 b 240 168 210 151 225 161 b 307 214 265 181 288 196 b 360 276 326 231 344 252 b 393 351 375 300 386 325 b 404 432 400 376 404 403 l 296 432 b 268 335 296 396 287 363 b 194 267 250 305 226 282 b 124 222 168 255 144 240 b 69 157 103 203 85 182 b 35 83 55 134 43 109 b 24 1 28 57 24 30 b 111 -208 24 -80 53 -150 b 321 -296 169 -267 239 -296 "},"À":{"ha":856,"x_min":0,"x_max":0,"o":"m 490 1036 l 338 1217 l 189 1217 l 361 1036 m 426 819 l 593 368 l 263 368 m 633 258 l 726 0 l 843 0 l 482 972 l 371 972 l 13 0 l 131 0 l 224 258 "},"Á":{"ha":856,"x_min":0,"x_max":0,"o":"m 426 819 l 592 368 l 261 368 m 632 260 l 725 0 l 843 0 l 482 972 l 371 972 l 13 0 l 129 0 l 222 260 m 490 1033 l 661 1214 l 513 1214 l 361 1033 "},"Â":{"ha":856,"x_min":0,"x_max":0,"o":"m 318 1036 l 421 1140 l 524 1036 l 657 1036 l 488 1215 l 354 1215 l 185 1036 m 426 819 l 593 368 l 263 368 m 633 258 l 726 0 l 843 0 l 482 972 l 371 972 l 13 0 l 131 0 l 224 258 "},"Ã":{"ha":856,"x_min":0,"x_max":0,"o":"m 507 1029 b 604 1069 545 1029 577 1043 b 653 1171 631 1096 647 1130 l 557 1171 b 507 1118 551 1136 535 1118 b 472 1133 494 1118 482 1123 b 458 1149 469 1138 464 1143 b 442 1168 453 1155 447 1162 b 339 1218 413 1201 379 1218 b 240 1176 303 1218 270 1204 b 207 1132 226 1163 215 1149 b 192 1076 199 1115 194 1097 l 286 1076 b 340 1129 294 1112 313 1129 b 372 1114 351 1129 362 1124 b 387 1098 377 1109 382 1104 b 403 1079 392 1092 397 1086 b 507 1029 430 1046 464 1029 m 426 819 l 593 368 l 263 368 m 633 258 l 726 0 l 843 0 l 482 972 l 371 972 l 13 0 l 131 0 l 224 258 "},"Ä":{"ha":856,"x_min":0,"x_max":0,"o":"m 244 1238 b 197 1218 226 1238 210 1231 b 178 1171 184 1205 178 1189 b 197 1124 178 1152 184 1137 b 244 1104 211 1111 227 1104 b 292 1124 263 1104 279 1111 b 311 1171 305 1137 311 1152 b 292 1218 311 1190 305 1206 b 244 1238 280 1231 264 1238 m 588 1238 b 539 1218 568 1238 552 1231 b 521 1171 527 1206 521 1190 b 539 1124 521 1152 527 1137 b 588 1104 552 1111 568 1104 b 633 1124 605 1104 620 1111 b 654 1171 647 1137 654 1152 b 633 1218 654 1189 647 1205 b 588 1238 621 1231 606 1238 m 426 819 l 593 368 l 263 368 m 633 258 l 726 0 l 843 0 l 482 972 l 371 972 l 13 0 l 131 0 l 224 258 "},"Å":{"ha":856,"x_min":0,"x_max":0,"o":"m 425 1274 b 335 1235 390 1274 360 1261 b 306 1193 322 1222 312 1208 b 297 1144 300 1178 297 1162 b 335 1054 297 1109 310 1079 b 425 1015 361 1028 391 1015 b 517 1054 460 1015 491 1028 b 554 1144 542 1079 554 1109 b 517 1235 554 1180 542 1210 b 425 1274 492 1261 461 1274 m 425 1199 b 464 1182 440 1199 453 1193 b 476 1165 469 1177 473 1172 b 479 1144 478 1159 479 1152 b 464 1107 479 1130 474 1117 b 425 1090 453 1096 440 1090 b 388 1107 411 1090 399 1096 b 372 1144 377 1117 372 1130 b 388 1182 372 1160 377 1173 b 425 1199 399 1193 411 1199 m 426 819 l 593 368 l 263 368 m 633 258 l 726 0 l 843 0 l 482 972 l 371 972 l 13 0 l 131 0 l 224 258 "},"Æ":{"ha":1390,"x_min":0,"x_max":0,"o":"m 14 0 l 147 0 l 329 260 l 694 260 l 694 0 l 1271 0 l 1271 108 l 803 108 l 803 444 l 1181 444 l 1181 553 l 803 553 l 803 864 l 1271 864 l 1271 972 l 694 972 m 694 368 l 404 368 l 694 782 "},"Ç":{"ha":936,"x_min":0,"x_max":0,"o":"m 525 4 b 569 -33 544 -3 558 -16 b 586 -92 581 -52 586 -71 b 554 -165 586 -119 575 -144 b 481 -197 533 -187 508 -197 b 417 -176 457 -197 436 -190 l 402 -194 b 358 -250 392 -206 378 -225 b 481 -292 393 -278 433 -292 b 622 -233 535 -292 582 -272 b 681 -92 661 -194 681 -146 b 614 57 681 -32 658 17 m 540 989 b 199 842 402 989 288 940 b 98 681 154 794 121 740 b 64 486 75 621 64 556 b 98 292 64 416 75 351 b 199 131 121 234 154 180 b 540 -17 288 32 402 -17 b 733 25 610 -17 674 -3 b 816 73 763 38 791 54 b 888 139 841 92 865 114 l 810 217 b 540 92 738 133 649 92 b 276 207 434 92 346 130 b 199 334 242 245 216 287 b 172 486 181 381 172 431 b 199 638 172 541 181 591 b 276 765 216 684 242 726 b 540 881 346 842 434 881 b 810 756 649 880 738 838 l 888 835 b 817 900 866 860 843 881 b 733 949 791 919 763 935 b 640 979 704 963 673 973 b 540 989 608 986 575 989 "},"È":{"ha":821,"x_min":0,"x_max":0,"o":"m 496 1036 l 343 1217 l 194 1217 l 367 1036 m 707 0 l 707 108 l 239 108 l 239 442 l 615 442 l 615 551 l 239 551 l 239 864 l 706 864 l 706 972 l 129 972 l 129 0 "},"É":{"ha":821,"x_min":0,"x_max":0,"o":"m 707 0 l 707 108 l 239 108 l 239 442 l 615 442 l 615 551 l 239 551 l 239 864 l 706 864 l 706 972 l 129 972 l 129 0 m 474 1035 l 644 1215 l 496 1215 l 344 1035 "},"Ê":{"ha":821,"x_min":0,"x_max":0,"o":"m 319 1036 l 422 1140 l 525 1036 l 658 1036 l 489 1215 l 356 1215 l 186 1036 m 707 0 l 707 108 l 239 108 l 239 442 l 615 442 l 615 551 l 239 551 l 239 864 l 706 864 l 706 972 l 129 972 l 129 0 "},"Ë":{"ha":821,"x_min":0,"x_max":0,"o":"m 253 1238 b 207 1218 234 1238 219 1231 b 186 1171 193 1205 186 1189 b 207 1124 186 1152 193 1137 b 253 1104 220 1111 235 1104 b 300 1124 271 1104 287 1111 b 319 1171 313 1137 319 1152 b 300 1218 319 1189 313 1205 b 253 1238 287 1231 271 1238 m 596 1238 b 547 1218 576 1238 560 1231 b 529 1171 535 1206 529 1190 b 547 1124 529 1152 535 1137 b 596 1104 561 1111 577 1104 b 644 1124 614 1104 631 1111 b 663 1171 656 1137 663 1152 b 644 1218 663 1190 656 1206 b 596 1238 631 1231 615 1238 m 707 0 l 707 108 l 239 108 l 239 442 l 615 442 l 615 551 l 239 551 l 239 864 l 706 864 l 706 972 l 129 972 l 129 0 "},"Ì":{"ha":367,"x_min":0,"x_max":0,"o":"m 254 1036 l 101 1217 l -47 1217 l 125 1036 m 239 0 l 239 972 l 129 972 l 129 0 "},"Í":{"ha":367,"x_min":0,"x_max":0,"o":"m 239 0 l 239 972 l 129 972 l 129 0 m 247 1031 l 418 1210 l 269 1210 l 118 1031 "},"Î":{"ha":367,"x_min":0,"x_max":0,"o":"m 82 1036 l 185 1140 l 288 1036 l 421 1036 l 251 1215 l 118 1215 l -51 1036 m 239 0 l 239 972 l 129 972 l 129 0 "},"Ï":{"ha":367,"x_min":0,"x_max":0,"o":"m 239 0 l 239 972 l 129 972 l 129 0 m 74 1244 b 25 1225 54 1244 38 1238 b 7 1178 13 1213 7 1197 b 25 1131 7 1159 13 1144 b 74 1111 38 1118 54 1111 b 119 1131 91 1111 106 1118 b 140 1178 133 1144 140 1160 b 119 1225 140 1196 133 1212 b 74 1244 107 1238 92 1244 m 290 1244 b 243 1225 271 1244 255 1238 b 224 1178 230 1213 224 1197 b 243 1131 224 1159 230 1144 b 290 1111 256 1118 272 1111 b 339 1131 309 1111 325 1118 b 357 1178 351 1144 357 1159 b 339 1225 357 1197 351 1213 b 290 1244 326 1238 310 1244 "},"Ð":{"ha":953,"x_min":0,"x_max":0,"o":"m 404 864 b 671 753 509 864 598 827 b 782 486 745 679 782 590 b 671 219 782 382 745 294 b 404 108 598 145 509 108 l 239 108 l 239 864 l 404 864 m 129 972 l 129 0 l 404 0 b 747 143 538 0 652 48 b 854 299 794 190 830 242 b 890 486 878 356 890 419 b 747 831 890 620 843 735 b 404 972 653 925 538 972 m 428 431 l 428 539 l 63 539 l 63 431 "},"Ñ":{"ha":1014,"x_min":0,"x_max":0,"o":"m 588 1024 b 683 1065 625 1024 656 1038 b 733 1167 710 1092 727 1126 l 638 1167 b 588 1114 632 1131 615 1114 b 553 1129 575 1114 563 1119 b 538 1145 548 1134 543 1139 b 521 1164 532 1151 526 1157 b 418 1214 492 1197 458 1214 b 319 1172 382 1214 349 1200 b 286 1127 306 1158 294 1143 b 271 1072 278 1111 273 1093 l 367 1072 b 419 1124 375 1106 393 1124 b 451 1108 431 1124 441 1119 b 466 1092 456 1104 461 1098 b 482 1074 471 1086 476 1080 b 588 1024 510 1040 545 1024 m 129 0 l 239 0 l 239 778 l 776 0 l 885 0 l 885 972 l 776 972 l 776 194 l 239 972 l 129 972 "},"Ò":{"ha":1076,"x_min":0,"x_max":0,"o":"m 615 1036 l 463 1217 l 314 1217 l 488 1036 m 539 881 b 800 765 644 881 731 842 b 878 638 834 726 860 684 b 904 486 895 591 904 541 b 800 207 904 378 869 285 b 539 92 731 130 644 92 b 276 207 432 92 345 130 b 172 486 207 285 172 378 b 198 638 172 541 181 591 b 276 765 215 684 241 726 b 539 881 345 842 432 881 m 539 989 b 197 842 401 989 287 940 b 64 486 108 744 64 626 b 197 129 64 346 108 227 b 539 -17 287 32 401 -17 b 878 128 676 -17 789 31 b 1014 486 969 226 1014 345 b 879 843 1014 626 969 745 b 539 989 790 940 677 989 "},"Ó":{"ha":1076,"x_min":0,"x_max":0,"o":"m 539 881 b 800 765 644 881 731 842 b 878 638 834 726 860 684 b 904 486 895 591 904 541 b 800 207 904 378 869 285 b 539 92 731 130 644 92 b 276 207 432 92 345 130 b 172 486 207 285 172 378 b 198 638 172 541 181 591 b 276 765 215 684 241 726 b 539 881 345 842 432 881 m 539 989 b 197 842 401 989 287 940 b 64 486 108 744 64 626 b 197 129 64 346 108 227 b 539 -17 287 32 401 -17 b 878 128 676 -17 789 31 b 1014 486 969 226 1014 345 b 879 843 1014 626 969 745 b 539 989 790 940 677 989 m 604 1031 l 775 1210 l 626 1210 l 475 1031 "},"Ô":{"ha":1076,"x_min":0,"x_max":0,"o":"m 436 1036 l 539 1140 l 642 1036 l 775 1036 l 606 1215 l 472 1215 l 303 1036 m 539 881 b 800 765 644 881 731 842 b 878 638 834 726 860 684 b 904 486 895 591 904 541 b 800 207 904 378 869 285 b 539 92 731 130 644 92 b 276 207 432 92 345 130 b 172 486 207 285 172 378 b 198 638 172 541 181 591 b 276 765 215 684 241 726 b 539 881 345 842 432 881 m 539 989 b 197 842 401 989 287 940 b 64 486 108 744 64 626 b 197 129 64 346 108 227 b 539 -17 287 32 401 -17 b 878 128 676 -17 789 31 b 1014 486 969 226 1014 345 b 879 843 1014 626 969 745 b 539 989 790 940 677 989 "},"Õ":{"ha":1076,"x_min":0,"x_max":0,"o":"m 635 1029 b 732 1069 673 1029 705 1043 b 779 1171 758 1095 774 1129 l 685 1171 b 635 1118 679 1136 663 1118 b 600 1133 622 1118 610 1123 b 585 1149 595 1138 590 1143 b 568 1168 579 1155 574 1162 b 465 1218 539 1201 505 1218 b 367 1176 429 1218 396 1204 b 318 1076 338 1150 322 1116 l 414 1076 b 467 1129 422 1112 440 1129 b 499 1114 478 1129 488 1124 b 513 1098 503 1109 508 1104 b 528 1079 517 1092 522 1086 b 635 1029 556 1046 591 1029 m 539 881 b 800 765 644 881 731 842 b 878 638 834 726 860 684 b 904 486 895 591 904 541 b 800 207 904 378 869 285 b 539 92 731 130 644 92 b 276 207 432 92 345 130 b 172 486 207 285 172 378 b 198 638 172 541 181 591 b 276 765 215 684 241 726 b 539 881 345 842 432 881 m 539 989 b 197 842 401 989 287 940 b 64 486 108 744 64 626 b 197 129 64 346 108 227 b 539 -17 287 32 401 -17 b 878 128 676 -17 789 31 b 1014 486 969 226 1014 345 b 879 843 1014 626 969 745 b 539 989 790 940 677 989 "},"Ö":{"ha":1076,"x_min":0,"x_max":0,"o":"m 372 1238 b 325 1218 354 1238 338 1231 b 306 1171 312 1205 306 1189 b 325 1124 306 1152 312 1137 b 372 1104 339 1111 355 1104 b 419 1124 390 1104 406 1111 b 439 1171 432 1137 439 1152 b 419 1218 439 1189 432 1205 b 372 1238 406 1231 391 1238 m 715 1238 b 667 1218 696 1238 680 1231 b 649 1171 655 1206 649 1190 b 667 1124 649 1152 655 1137 b 715 1104 681 1111 697 1104 b 763 1124 734 1104 750 1111 b 782 1171 775 1137 782 1152 b 763 1218 782 1190 775 1206 b 715 1238 750 1231 735 1238 m 539 881 b 800 765 644 881 731 842 b 878 638 834 726 860 684 b 904 486 895 591 904 541 b 800 207 904 378 869 285 b 539 92 731 130 644 92 b 276 207 432 92 345 130 b 172 486 207 285 172 378 b 198 638 172 541 181 591 b 276 765 215 684 241 726 b 539 881 345 842 432 881 m 539 989 b 197 842 401 989 287 940 b 64 486 108 744 64 626 b 197 129 64 346 108 227 b 539 -17 287 32 401 -17 b 878 128 676 -17 789 31 b 1014 486 969 226 1014 345 b 879 843 1014 626 969 745 b 539 989 790 940 677 989 "},"×":{"ha":865,"x_min":0,"x_max":0,"o":"m 435 335 l 631 138 l 708 215 l 511 411 l 708 608 l 631 686 l 435 489 l 238 686 l 161 608 l 357 411 l 161 215 l 238 138 "},"Ø":{"ha":1076,"x_min":0,"x_max":0,"o":"m 542 881 b 804 765 647 881 735 842 b 882 638 838 726 864 684 b 908 486 900 591 908 541 b 804 207 908 378 874 285 b 542 92 735 130 647 92 b 279 207 436 92 349 130 b 176 486 211 285 176 378 b 202 638 176 541 185 591 b 279 765 219 684 245 726 b 542 881 349 842 436 881 m 542 989 b 201 842 405 989 291 940 b 67 486 112 744 67 626 b 201 129 67 346 112 227 b 542 -17 290 32 404 -17 b 882 128 680 -17 793 31 b 1017 486 972 226 1017 345 b 882 843 1017 626 972 745 b 542 989 793 940 680 989 m 967 918 l 881 986 l 118 53 l 203 -14 "},"Ù":{"ha":982,"x_min":0,"x_max":0,"o":"m 560 1036 l 407 1217 l 258 1217 l 431 1036 m 115 401 b 224 99 115 277 151 176 b 490 -17 295 22 384 -17 b 758 99 598 -17 687 22 b 840 233 794 138 822 182 b 867 401 858 283 867 339 l 867 972 l 758 972 l 758 401 b 681 178 758 308 732 233 b 490 92 629 120 565 92 b 301 178 416 92 353 120 b 225 401 250 233 225 308 l 225 972 l 115 972 "},"Ú":{"ha":982,"x_min":0,"x_max":0,"o":"m 550 1029 l 719 1208 l 571 1208 l 421 1029 m 115 401 b 224 99 115 277 151 176 b 490 -17 295 22 384 -17 b 758 99 598 -17 687 22 b 840 233 794 138 822 182 b 867 401 858 283 867 339 l 867 972 l 758 972 l 758 401 b 681 178 758 308 732 233 b 490 92 629 120 565 92 b 301 178 416 92 353 120 b 225 401 250 233 225 308 l 225 972 l 115 972 "},"Û":{"ha":982,"x_min":0,"x_max":0,"o":"m 386 1036 l 488 1140 l 590 1036 l 724 1036 l 556 1215 l 421 1215 l 253 1036 m 115 401 b 224 99 115 277 151 176 b 490 -17 295 22 384 -17 b 758 99 598 -17 687 22 b 840 233 794 138 822 182 b 867 401 858 283 867 339 l 867 972 l 758 972 l 758 401 b 681 178 758 308 732 233 b 490 92 629 120 565 92 b 301 178 416 92 353 120 b 225 401 250 233 225 308 l 225 972 l 115 972 "},"Ü":{"ha":982,"x_min":0,"x_max":0,"o":"m 310 1238 b 263 1218 290 1238 275 1231 b 243 1171 250 1206 243 1190 b 263 1124 243 1152 250 1137 b 310 1104 275 1111 291 1104 b 357 1124 328 1104 344 1111 b 376 1171 370 1137 376 1152 b 357 1218 376 1189 370 1205 b 310 1238 345 1231 329 1238 m 653 1238 b 604 1218 633 1238 617 1231 b 586 1171 592 1206 586 1190 b 604 1124 586 1152 592 1137 b 653 1104 618 1111 634 1104 b 701 1124 671 1104 688 1111 b 719 1171 713 1137 719 1152 b 701 1218 719 1190 713 1206 b 653 1238 688 1231 672 1238 m 115 401 b 224 99 115 277 151 176 b 490 -17 295 22 384 -17 b 758 99 598 -17 687 22 b 840 233 794 138 822 182 b 867 401 858 283 867 339 l 867 972 l 758 972 l 758 401 b 681 178 758 308 732 233 b 490 92 629 120 565 92 b 301 178 416 92 353 120 b 225 401 250 233 225 308 l 225 972 l 115 972 "},"Ý":{"ha":754,"x_min":0,"x_max":0,"o":"m 422 1029 l 593 1208 l 443 1208 l 292 1029 m 324 443 l 324 0 l 432 0 l 432 443 l 743 972 l 614 972 l 378 568 l 142 972 l 13 972 "},"Þ":{"ha":800,"x_min":0,"x_max":0,"o":"m 132 1 l 240 1 l 240 192 l 456 192 b 674 283 541 192 613 222 b 764 500 734 343 764 415 b 674 718 764 586 734 659 b 456 808 614 778 542 808 l 240 808 l 240 974 l 132 974 m 456 699 b 596 640 510 699 557 679 b 654 500 635 601 654 555 b 596 360 654 445 635 399 b 456 301 557 321 510 301 l 240 301 l 240 699 "},"ß":{"ha":767,"x_min":0,"x_max":0,"o":"m 388 989 b 182 907 307 989 238 962 b 97 713 125 853 97 788 l 97 0 l 206 0 l 206 713 b 260 831 206 759 224 798 b 388 881 295 864 338 881 b 515 832 438 881 480 864 b 568 714 550 800 568 760 b 519 597 568 669 552 630 b 403 550 488 566 449 550 l 346 550 l 346 442 l 403 442 b 539 393 456 442 501 425 b 594 275 576 361 594 321 b 539 157 594 229 576 189 b 403 108 501 125 456 108 l 340 108 l 340 0 l 403 0 b 615 81 485 0 556 27 b 704 275 675 135 704 200 b 695 343 704 298 701 321 b 667 407 689 365 680 387 b 626 460 656 426 642 444 b 571 501 609 475 591 489 b 615 544 588 514 602 528 b 649 594 628 559 639 576 b 676 714 667 632 676 672 b 592 908 676 789 648 854 b 388 989 535 962 467 989 "},"à":{"ha":835,"x_min":0,"x_max":0,"o":"m 499 793 l 344 974 l 196 974 l 369 793 m 635 588 b 625 602 631 592 628 597 b 614 617 622 607 619 612 b 399 711 560 680 488 711 b 153 606 300 711 218 676 b 57 347 89 535 57 449 b 153 89 57 246 89 160 b 399 -17 218 19 300 -17 b 614 78 489 -17 561 15 b 625 91 619 81 622 86 b 635 106 628 96 631 101 l 635 0 l 739 0 l 739 694 l 635 694 m 401 603 b 567 529 470 603 525 578 b 613 448 587 505 603 478 b 629 347 624 418 629 384 b 613 247 629 311 624 278 b 567 165 603 217 587 189 b 401 92 525 116 470 92 b 232 165 332 92 275 116 b 167 347 188 215 167 276 b 232 529 167 419 188 480 b 401 603 275 578 332 603 "},"á":{"ha":835,"x_min":0,"x_max":0,"o":"m 483 793 l 654 972 l 506 972 l 354 793 m 635 588 b 625 602 631 592 628 597 b 614 617 622 607 619 612 b 399 711 560 680 488 711 b 153 606 300 711 218 676 b 57 347 89 535 57 449 b 153 89 57 246 89 160 b 399 -17 218 19 300 -17 b 614 78 489 -17 561 15 b 625 91 619 81 622 86 b 635 106 628 96 631 101 l 635 0 l 739 0 l 739 694 l 635 694 m 401 603 b 567 529 470 603 525 578 b 613 448 587 505 603 478 b 629 347 624 418 629 384 b 613 247 629 311 624 278 b 567 165 603 217 587 189 b 401 92 525 116 470 92 b 232 165 332 92 275 116 b 167 347 188 215 167 276 b 232 529 167 419 188 480 b 401 603 275 578 332 603 "},"â":{"ha":835,"x_min":0,"x_max":0,"o":"m 314 793 l 417 897 l 519 793 l 653 793 l 483 972 l 350 972 l 181 793 m 635 588 b 625 602 631 592 628 597 b 614 617 622 607 619 612 b 399 711 560 680 488 711 b 153 606 300 711 218 676 b 57 347 89 535 57 449 b 153 89 57 246 89 160 b 399 -17 218 19 300 -17 b 614 78 489 -17 561 15 b 625 91 619 81 622 86 b 635 106 628 96 631 101 l 635 0 l 739 0 l 739 694 l 635 694 m 401 603 b 567 529 470 603 525 578 b 613 448 587 505 603 478 b 629 347 624 418 629 384 b 613 247 629 311 624 278 b 567 165 603 217 587 189 b 401 92 525 116 470 92 b 232 165 332 92 275 116 b 167 347 188 215 167 276 b 232 529 167 419 188 480 b 401 603 275 578 332 603 "},"ã":{"ha":835,"x_min":0,"x_max":0,"o":"m 500 786 b 596 826 537 786 569 800 b 644 928 623 853 639 887 l 550 928 b 500 875 544 893 528 875 b 465 890 486 875 475 880 b 450 906 461 895 456 900 b 433 925 444 912 439 919 b 331 975 405 958 370 975 b 232 933 294 975 262 961 b 199 889 218 920 207 906 b 183 833 190 872 185 854 l 279 833 b 332 886 288 869 305 886 b 364 871 343 886 354 881 b 378 855 369 866 373 861 b 394 836 384 849 389 843 b 500 786 421 803 456 786 m 635 588 b 625 602 631 592 628 597 b 614 617 622 607 619 612 b 399 711 560 680 488 711 b 153 606 300 711 218 676 b 57 347 89 535 57 449 b 153 89 57 246 89 160 b 399 -17 218 19 300 -17 b 614 78 489 -17 561 15 b 625 91 619 81 622 86 b 635 106 628 96 631 101 l 635 0 l 739 0 l 739 694 l 635 694 m 401 603 b 567 529 470 603 525 578 b 613 448 587 505 603 478 b 629 347 624 418 629 384 b 613 247 629 311 624 278 b 567 165 603 217 587 189 b 401 92 525 116 470 92 b 232 165 332 92 275 116 b 167 347 188 215 167 276 b 232 529 167 419 188 480 b 401 603 275 578 332 603 "},"ä":{"ha":835,"x_min":0,"x_max":0,"o":"m 246 994 b 197 975 226 994 210 988 b 179 928 185 963 179 947 b 197 881 179 909 185 894 b 246 861 211 868 227 861 b 293 881 263 861 279 868 b 313 928 306 894 313 909 b 293 975 313 946 306 962 b 246 994 280 988 264 994 m 589 994 b 542 975 569 994 554 988 b 522 928 529 962 522 946 b 542 881 522 909 529 894 b 589 861 555 868 570 861 b 636 881 607 861 623 868 b 656 928 649 894 656 909 b 636 975 656 947 649 963 b 589 994 624 988 608 994 m 635 588 b 625 602 631 592 628 597 b 614 617 622 607 619 612 b 399 711 560 680 488 711 b 153 606 300 711 218 676 b 57 347 89 535 57 449 b 153 89 57 246 89 160 b 399 -17 218 19 300 -17 b 614 78 489 -17 561 15 b 625 91 619 81 622 86 b 635 106 628 96 631 101 l 635 0 l 739 0 l 739 694 l 635 694 m 401 603 b 567 529 470 603 525 578 b 613 448 587 505 603 478 b 629 347 624 418 629 384 b 613 247 629 311 624 278 b 567 165 603 217 587 189 b 401 92 525 116 470 92 b 232 165 332 92 275 116 b 167 347 188 215 167 276 b 232 529 167 419 188 480 b 401 603 275 578 332 603 "},"å":{"ha":835,"x_min":0,"x_max":0,"o":"m 415 1031 b 324 992 379 1031 349 1018 b 295 950 311 979 301 965 b 286 901 289 935 286 919 b 324 810 286 865 299 835 b 415 772 349 785 379 772 b 507 810 450 772 481 785 b 544 901 532 835 544 865 b 507 992 544 937 532 967 b 415 1031 481 1018 450 1031 m 415 956 b 453 939 430 956 443 950 b 465 922 458 933 462 928 b 468 901 467 916 468 909 b 453 864 468 887 463 874 b 415 847 443 853 430 847 b 376 864 400 847 388 853 b 363 901 367 874 363 887 b 376 939 363 916 367 929 b 415 956 388 950 400 956 m 635 588 b 625 602 631 592 628 597 b 614 617 622 607 619 612 b 399 711 560 680 488 711 b 153 606 300 711 218 676 b 57 347 89 535 57 449 b 153 89 57 246 89 160 b 399 -17 218 19 300 -17 b 614 78 489 -17 561 15 b 625 91 619 81 622 86 b 635 106 628 96 631 101 l 635 0 l 739 0 l 739 694 l 635 694 m 401 603 b 567 529 470 603 525 578 b 613 448 587 505 603 478 b 629 347 624 418 629 384 b 613 247 629 311 624 278 b 567 165 603 217 587 189 b 401 92 525 116 470 92 b 232 165 332 92 275 116 b 167 347 188 215 167 276 b 232 529 167 419 188 480 b 401 603 275 578 332 603 "},"æ":{"ha":1469,"x_min":0,"x_max":0,"o":"m 635 588 b 625 602 631 592 628 597 b 614 617 622 607 619 612 b 399 711 560 680 488 711 b 153 606 300 711 218 676 b 57 347 89 535 57 449 b 153 89 57 246 89 160 b 399 -17 218 19 300 -17 b 614 78 489 -17 561 15 b 625 91 619 81 622 86 b 635 106 628 96 631 101 l 635 0 l 739 0 l 739 694 l 635 694 m 401 603 b 567 529 470 603 525 578 b 613 448 587 505 603 478 b 629 347 624 418 629 384 b 613 247 629 311 624 278 b 567 165 603 217 587 189 b 401 92 525 116 470 92 b 232 165 332 92 275 116 b 167 347 188 215 167 276 b 232 529 167 419 188 480 b 401 603 275 578 332 603 m 1418 346 b 1332 606 1418 450 1389 537 b 1101 710 1275 675 1198 710 b 854 604 1001 710 919 675 b 757 346 789 534 757 448 b 856 88 757 245 790 159 b 1103 -18 921 17 1004 -18 b 1385 86 1221 -18 1315 17 l 1310 165 b 1103 90 1260 115 1191 90 b 949 150 1043 90 991 110 b 899 216 928 169 912 191 b 874 297 887 241 878 268 l 1418 297 m 1100 603 b 1242 546 1159 603 1206 584 b 1304 397 1275 508 1296 458 l 874 397 b 899 478 878 427 887 454 b 946 543 911 503 926 525 b 1100 603 988 583 1040 603 "},"ç":{"ha":686,"x_min":0,"x_max":0,"o":"m 389 4 b 433 -33 407 -3 422 -16 b 450 -92 444 -52 450 -71 b 418 -167 450 -120 439 -145 b 344 -199 397 -188 372 -199 b 282 -176 321 -199 300 -191 l 267 -195 b 222 -250 256 -208 242 -226 b 344 -292 257 -278 298 -292 b 486 -233 400 -292 447 -272 b 544 -92 525 -194 544 -147 b 479 57 544 -32 523 17 m 401 711 b 154 606 301 711 219 676 b 57 347 89 535 57 449 b 154 89 57 246 89 160 b 401 -17 219 19 301 -17 b 646 88 499 -17 580 18 l 569 167 b 401 92 525 117 469 92 b 231 165 331 92 274 116 b 165 347 187 215 165 276 b 231 529 165 419 187 480 b 401 603 274 578 331 603 b 569 528 469 603 525 578 l 646 607 b 401 711 580 676 499 711 "},"è":{"ha":760,"x_min":0,"x_max":0,"o":"m 482 793 l 329 974 l 181 974 l 353 793 m 718 347 b 632 607 718 452 689 538 b 401 711 575 676 498 711 b 154 606 301 711 219 676 b 57 347 89 535 57 449 b 156 89 57 246 90 160 b 403 -17 221 19 304 -17 b 685 88 521 -17 615 18 l 610 167 b 403 92 560 117 491 92 b 249 151 343 92 291 112 b 199 217 228 171 212 193 b 174 299 187 242 178 269 l 718 299 m 400 604 b 542 547 459 604 506 585 b 604 399 575 509 596 460 l 174 399 b 246 544 182 457 206 506 b 400 604 288 584 340 604 "},"é":{"ha":760,"x_min":0,"x_max":0,"o":"m 456 793 l 626 972 l 478 972 l 326 793 m 718 347 b 632 607 718 452 689 538 b 401 711 575 676 498 711 b 154 606 301 711 219 676 b 57 347 89 535 57 449 b 156 89 57 246 90 160 b 403 -17 221 19 304 -17 b 685 88 521 -17 615 18 l 610 167 b 403 92 560 117 491 92 b 249 151 343 92 291 112 b 199 217 228 171 212 193 b 174 299 187 242 178 269 l 718 299 m 400 604 b 542 547 459 604 506 585 b 604 399 575 509 596 460 l 174 399 b 246 544 182 457 206 506 b 400 604 288 584 340 604 "},"ê":{"ha":760,"x_min":0,"x_max":0,"o":"m 292 793 l 394 897 l 497 793 l 631 793 l 461 972 l 328 972 l 158 793 m 718 347 b 632 607 718 452 689 538 b 401 711 575 676 498 711 b 154 606 301 711 219 676 b 57 347 89 535 57 449 b 156 89 57 246 90 160 b 403 -17 221 19 304 -17 b 685 88 521 -17 615 18 l 610 167 b 403 92 560 117 491 92 b 249 151 343 92 291 112 b 199 217 228 171 212 193 b 174 299 187 242 178 269 l 718 299 m 400 604 b 542 547 459 604 506 585 b 604 399 575 509 596 460 l 174 399 b 246 544 182 457 206 506 b 400 604 288 584 340 604 "},"ë":{"ha":760,"x_min":0,"x_max":0,"o":"m 225 994 b 178 975 206 994 191 988 b 158 928 165 962 158 946 b 178 881 158 909 165 894 b 225 861 191 868 206 861 b 272 881 243 861 258 868 b 292 928 285 894 292 909 b 272 975 292 946 285 962 b 225 994 259 988 244 994 m 568 994 b 519 975 548 994 531 988 b 500 928 506 963 500 947 b 519 881 500 909 506 894 b 568 861 532 868 549 861 b 615 881 587 861 602 868 b 635 928 628 894 635 909 b 615 975 635 947 628 963 b 568 994 603 988 588 994 m 718 347 b 632 607 718 452 689 538 b 401 711 575 676 498 711 b 154 606 301 711 219 676 b 57 347 89 535 57 449 b 156 89 57 246 90 160 b 403 -17 221 19 304 -17 b 685 88 521 -17 615 18 l 610 167 b 403 92 560 117 491 92 b 249 151 343 92 291 112 b 199 217 228 171 212 193 b 174 299 187 242 178 269 l 718 299 m 400 604 b 542 547 459 604 506 585 b 604 399 575 509 596 460 l 174 399 b 246 544 182 457 206 506 b 400 604 288 584 340 604 "},"ì":{"ha":321,"x_min":0,"x_max":0,"o":"m 224 793 l 71 974 l -78 974 l 94 793 m 214 0 l 214 694 l 106 694 l 106 0 "},"í":{"ha":321,"x_min":0,"x_max":0,"o":"m 221 793 l 390 972 l 242 972 l 92 793 m 214 0 l 214 694 l 106 694 l 106 0 "},"î":{"ha":321,"x_min":0,"x_max":0,"o":"m 58 793 l 161 897 l 264 793 l 397 793 l 228 972 l 94 972 l -75 793 m 214 0 l 214 694 l 106 694 l 106 0 "},"ï":{"ha":321,"x_min":0,"x_max":0,"o":"m 214 0 l 214 694 l 106 694 l 106 0 m 51 994 b 6 975 33 994 18 988 b -15 928 -8 962 -15 946 b 6 881 -15 909 -8 894 b 51 861 19 868 34 861 b 99 881 70 861 86 868 b 119 928 113 894 119 909 b 99 975 119 946 113 962 b 51 994 87 988 71 994 m 269 994 b 222 975 250 994 234 988 b 203 928 209 963 203 947 b 222 881 203 909 209 894 b 269 861 235 868 251 861 b 317 881 288 861 304 868 b 336 928 330 894 336 909 b 317 975 336 946 330 962 b 269 994 304 988 288 994 "},"ð":{"ha":810,"x_min":0,"x_max":0,"o":"m 400 707 b 156 601 302 707 220 672 b 58 344 91 531 58 445 b 156 89 58 244 91 159 b 400 -17 220 19 302 -17 b 646 89 499 -17 581 19 b 742 344 710 159 742 244 b 646 601 742 445 710 531 b 400 707 581 672 499 707 m 400 597 b 568 525 469 597 525 573 b 633 344 612 475 633 415 b 568 165 633 275 612 215 b 400 92 525 116 469 92 b 233 165 331 92 276 116 b 168 344 190 215 168 275 b 233 525 168 415 190 475 b 400 597 276 573 331 597 m 206 886 b 326 867 239 886 279 880 b 463 793 366 856 412 831 b 581 635 508 760 547 707 b 620 506 598 597 611 554 b 633 344 629 457 633 404 l 742 344 b 714 583 742 433 732 513 b 682 680 705 619 694 651 b 643 756 670 709 657 734 b 598 817 629 777 614 797 b 544 869 582 836 564 854 b 488 913 525 886 506 900 b 438 940 470 925 453 934 b 339 974 405 955 372 966 b 283 985 319 979 300 983 b 240 989 267 988 252 989 l 206 886 m 365 732 l 617 900 l 567 978 l 314 808 "},"ñ":{"ha":774,"x_min":0,"x_max":0,"o":"m 478 786 b 574 826 515 786 547 800 b 622 928 600 853 617 887 l 528 928 b 478 875 522 893 506 875 b 443 890 464 875 452 880 b 428 906 438 895 433 900 b 411 925 422 912 417 919 b 308 975 382 958 348 975 b 210 933 272 975 239 961 b 161 833 181 906 165 872 l 257 833 b 310 886 265 869 283 886 b 342 871 321 886 331 881 b 356 855 346 866 351 861 b 372 836 361 849 367 843 b 478 786 400 803 435 786 m 696 369 b 676 508 696 420 689 467 b 614 617 662 550 642 586 b 406 711 558 680 489 711 b 219 628 329 711 267 683 b 211 618 217 625 214 622 l 203 607 l 203 694 l 97 694 l 97 0 l 206 0 l 206 371 b 261 539 206 440 224 496 b 397 603 297 581 343 603 b 533 539 453 603 498 581 b 588 371 569 498 588 442 l 588 0 l 696 0 "},"ò":{"ha":800,"x_min":0,"x_max":0,"o":"m 478 793 l 325 974 l 176 974 l 350 793 m 401 603 b 569 529 470 603 526 578 b 635 347 613 480 635 419 b 619 248 635 311 629 278 b 569 165 608 218 592 190 b 401 92 526 116 470 92 b 231 165 331 92 274 116 b 165 347 187 215 165 276 b 182 447 165 383 171 416 b 231 529 193 477 209 504 b 401 603 274 578 331 603 m 401 711 b 154 606 301 711 219 676 b 57 347 89 535 57 449 b 154 89 57 246 89 160 b 401 -17 219 19 301 -17 b 646 89 500 -17 581 19 b 744 347 712 160 744 246 b 646 606 744 449 712 535 b 401 711 581 676 500 711 "},"ó":{"ha":800,"x_min":0,"x_max":0,"o":"m 464 793 l 633 972 l 485 972 l 335 793 m 401 603 b 569 529 470 603 526 578 b 635 347 613 480 635 419 b 619 248 635 311 629 278 b 569 165 608 218 592 190 b 401 92 526 116 470 92 b 231 165 331 92 274 116 b 165 347 187 215 165 276 b 182 447 165 383 171 416 b 231 529 193 477 209 504 b 401 603 274 578 331 603 m 401 711 b 154 606 301 711 219 676 b 57 347 89 535 57 449 b 154 89 57 246 89 160 b 401 -17 219 19 301 -17 b 646 89 500 -17 581 19 b 744 347 712 160 744 246 b 646 606 744 449 712 535 b 401 711 581 676 500 711 "},"ô":{"ha":800,"x_min":0,"x_max":0,"o":"m 311 793 l 414 897 l 517 793 l 650 793 l 481 972 l 347 972 l 178 793 m 401 603 b 569 529 470 603 526 578 b 635 347 613 480 635 419 b 619 248 635 311 629 278 b 569 165 608 218 592 190 b 401 92 526 116 470 92 b 231 165 331 92 274 116 b 165 347 187 215 165 276 b 182 447 165 383 171 416 b 231 529 193 477 209 504 b 401 603 274 578 331 603 m 401 711 b 154 606 301 711 219 676 b 57 347 89 535 57 449 b 154 89 57 246 89 160 b 401 -17 219 19 301 -17 b 646 89 500 -17 581 19 b 744 347 712 160 744 246 b 646 606 744 449 712 535 b 401 711 581 676 500 711 "},"õ":{"ha":800,"x_min":0,"x_max":0,"o":"m 497 786 b 593 826 534 786 566 800 b 642 928 620 853 636 887 l 546 928 b 497 875 541 893 525 875 b 463 890 483 875 472 880 b 447 906 458 895 453 900 b 431 925 442 912 436 919 b 328 975 402 958 368 975 b 229 933 292 975 259 961 b 196 889 215 920 204 906 b 181 833 188 872 182 854 l 276 833 b 329 886 285 869 302 886 b 361 871 340 886 351 881 b 376 855 366 866 371 861 b 392 836 381 849 386 843 b 497 786 419 803 454 786 m 401 603 b 569 529 470 603 526 578 b 635 347 613 480 635 419 b 619 248 635 311 629 278 b 569 165 608 218 592 190 b 401 92 526 116 470 92 b 231 165 331 92 274 116 b 165 347 187 215 165 276 b 182 447 165 383 171 416 b 231 529 193 477 209 504 b 401 603 274 578 331 603 m 401 711 b 154 606 301 711 219 676 b 57 347 89 535 57 449 b 154 89 57 246 89 160 b 401 -17 219 19 301 -17 b 646 89 500 -17 581 19 b 744 347 712 160 744 246 b 646 606 744 449 712 535 b 401 711 581 676 500 711 "},"ö":{"ha":800,"x_min":0,"x_max":0,"o":"m 238 994 b 190 975 218 994 202 988 b 171 928 177 963 171 947 b 190 881 171 909 177 894 b 238 861 203 868 219 861 b 286 881 256 861 272 868 b 306 928 299 894 306 909 b 286 975 306 947 299 963 b 238 994 273 988 257 994 m 581 994 b 533 975 562 994 546 988 b 514 928 520 962 514 946 b 533 881 514 909 520 894 b 581 861 547 868 563 861 b 628 881 598 861 614 868 b 647 928 641 894 647 909 b 628 975 647 946 641 962 b 581 994 615 988 599 994 m 401 603 b 569 529 470 603 526 578 b 635 347 613 480 635 419 b 619 248 635 311 629 278 b 569 165 608 218 592 190 b 401 92 526 116 470 92 b 231 165 331 92 274 116 b 165 347 187 215 165 276 b 182 447 165 383 171 416 b 231 529 193 477 209 504 b 401 603 274 578 331 603 m 401 711 b 154 606 301 711 219 676 b 57 347 89 535 57 449 b 154 89 57 246 89 160 b 401 -17 219 19 301 -17 b 646 89 500 -17 581 19 b 744 347 712 160 744 246 b 646 606 744 449 712 535 b 401 711 581 676 500 711 "},"÷":{"ha":865,"x_min":0,"x_max":0,"o":"m 433 689 b 389 671 415 689 400 683 b 369 626 376 659 369 644 b 389 581 369 608 376 593 b 433 563 400 569 415 563 b 478 581 451 563 466 569 b 496 626 490 593 496 608 b 478 671 496 644 490 659 b 433 689 466 683 451 689 m 163 358 l 703 358 l 703 468 l 163 468 m 433 264 b 389 246 415 264 400 258 b 369 201 376 234 369 219 b 389 157 369 184 376 169 b 433 138 401 144 416 138 b 478 157 450 138 465 144 b 496 201 490 169 496 184 b 478 246 496 219 490 234 b 433 264 466 258 451 264 "},"ø":{"ha":800,"x_min":0,"x_max":0,"o":"m 401 603 b 569 529 470 603 526 578 b 635 347 613 480 635 419 b 619 248 635 311 629 278 b 569 165 608 218 592 190 b 401 92 526 116 470 92 b 231 165 331 92 274 116 b 165 347 187 215 165 276 b 182 447 165 383 171 416 b 231 529 193 477 209 504 b 401 603 274 578 331 603 m 401 711 b 154 606 301 711 219 676 b 57 347 89 535 57 449 b 154 89 57 246 89 160 b 401 -17 219 19 301 -17 b 646 89 500 -17 581 19 b 744 347 712 160 744 246 b 646 606 744 449 712 535 b 401 711 581 676 500 711 m 85 47 l 160 -17 l 718 649 l 642 711 "},"ù":{"ha":756,"x_min":0,"x_max":0,"o":"m 460 793 l 307 974 l 158 974 l 331 793 m 79 325 b 165 78 79 223 108 141 b 379 -17 224 15 295 -17 b 592 78 463 -17 533 15 b 678 325 649 141 678 223 l 678 694 l 569 694 l 569 324 b 514 156 569 254 551 198 b 379 92 478 113 433 92 b 243 156 324 92 278 113 b 188 324 206 198 188 254 l 188 694 l 79 694 "},"ú":{"ha":756,"x_min":0,"x_max":0,"o":"m 451 793 l 622 972 l 474 972 l 324 793 m 79 325 b 165 78 79 223 108 141 b 379 -17 224 15 295 -17 b 592 78 463 -17 533 15 b 678 325 649 141 678 223 l 678 694 l 569 694 l 569 324 b 514 156 569 254 551 198 b 379 92 478 113 433 92 b 243 156 324 92 278 113 b 188 324 206 198 188 254 l 188 694 l 79 694 "},"û":{"ha":756,"x_min":0,"x_max":0,"o":"m 275 793 l 378 897 l 481 793 l 614 793 l 444 972 l 311 972 l 142 793 m 79 325 b 165 78 79 223 108 141 b 379 -17 224 15 295 -17 b 592 78 463 -17 533 15 b 678 325 649 141 678 223 l 678 694 l 569 694 l 569 324 b 514 156 569 254 551 198 b 379 92 478 113 433 92 b 243 156 324 92 278 113 b 188 324 206 198 188 254 l 188 694 l 79 694 "},"ü":{"ha":756,"x_min":0,"x_max":0,"o":"m 213 994 b 165 975 193 994 177 988 b 146 928 152 962 146 946 b 165 881 146 909 152 894 b 213 861 178 868 194 861 b 260 881 231 861 247 868 b 279 928 273 894 279 909 b 260 975 279 947 273 963 b 213 994 248 988 232 994 m 554 994 b 508 975 536 994 520 988 b 488 928 494 962 488 946 b 508 881 488 909 494 894 b 554 861 521 868 537 861 b 601 881 573 861 588 868 b 621 928 614 894 621 909 b 601 975 621 946 614 962 b 554 994 589 988 574 994 m 79 325 b 165 78 79 223 108 141 b 379 -17 224 15 295 -17 b 592 78 463 -17 533 15 b 678 325 649 141 678 223 l 678 694 l 569 694 l 569 324 b 514 156 569 254 551 198 b 379 92 478 113 433 92 b 243 156 324 92 278 113 b 188 324 206 198 188 254 l 188 694 l 79 694 "},"ý":{"ha":728,"x_min":0,"x_max":0,"o":"m 406 793 l 576 972 l 428 972 l 278 793 m 307 1 l 276 -68 b 206 -154 261 -105 237 -134 b 94 -186 172 -175 135 -186 l 44 -186 l 44 -294 l 94 -294 b 264 -244 156 -294 213 -278 b 331 -186 290 -228 312 -208 b 376 -111 349 -164 364 -139 l 717 694 l 599 694 l 364 142 l 131 694 l 13 694 "},"þ":{"ha":846,"x_min":0,"x_max":0,"o":"m 204 103 b 215 88 208 97 211 92 b 225 74 218 83 221 78 b 436 -17 277 13 347 -17 b 682 89 535 -17 617 19 b 778 347 746 160 778 246 b 682 606 778 449 746 535 b 436 711 617 676 535 711 b 226 621 348 711 278 681 b 215 606 223 616 219 611 b 204 592 212 601 208 596 l 204 972 l 96 972 l 96 -278 l 204 -278 m 432 603 b 601 529 501 603 558 578 b 668 347 646 478 668 418 b 601 165 668 277 646 216 b 432 92 558 116 501 92 b 267 165 363 92 308 116 b 220 247 246 189 231 217 b 204 347 209 278 204 311 b 220 448 204 384 209 418 b 267 529 231 478 246 505 b 432 603 308 578 363 603 "},"ÿ":{"ha":728,"x_min":0,"x_max":0,"o":"m 189 994 b 143 975 170 994 155 988 b 122 928 129 962 122 946 b 143 881 122 909 129 894 b 189 861 156 868 171 861 b 238 881 208 861 225 868 b 256 928 250 894 256 909 b 238 975 256 947 250 963 b 189 994 225 988 208 994 m 532 994 b 485 975 513 994 497 988 b 465 928 472 963 465 947 b 485 881 465 909 472 894 b 532 861 498 868 513 861 b 579 881 550 861 565 868 b 599 928 592 894 599 909 b 579 975 599 946 592 962 b 532 994 566 988 550 994 m 307 1 l 276 -68 b 206 -154 261 -105 237 -134 b 94 -186 172 -175 135 -186 l 44 -186 l 44 -294 l 94 -294 b 264 -244 156 -294 213 -278 b 331 -186 290 -228 312 -208 b 376 -111 349 -164 364 -139 l 717 694 l 599 694 l 364 142 l 131 694 l 13 694 "},"Ā":{"ha":856,"x_min":0,"x_max":0,"o":"m 642 1042 l 642 1146 l 215 1146 l 215 1042 m 426 819 l 593 368 l 263 368 m 633 258 l 726 0 l 843 0 l 482 972 l 371 972 l 13 0 l 131 0 l 224 258 "},"ā":{"ha":835,"x_min":0,"x_max":0,"o":"m 622 799 l 622 903 l 196 903 l 196 799 m 635 588 b 625 602 631 592 628 597 b 614 617 622 607 619 612 b 399 711 560 680 488 711 b 153 606 300 711 218 676 b 57 347 89 535 57 449 b 153 89 57 246 89 160 b 399 -17 218 19 300 -17 b 614 78 489 -17 561 15 b 625 91 619 81 622 86 b 635 106 628 96 631 101 l 635 0 l 739 0 l 739 694 l 635 694 m 401 603 b 567 529 470 603 525 578 b 613 448 587 505 603 478 b 629 347 624 418 629 384 b 613 247 629 311 624 278 b 567 165 603 217 587 189 b 401 92 525 116 470 92 b 232 165 332 92 275 116 b 167 347 188 215 167 276 b 232 529 167 419 188 480 b 401 603 275 578 332 603 "},"Ă":{"ha":856,"x_min":0,"x_max":0,"o":"m 217 1215 b 276 1082 217 1163 237 1119 b 428 1028 316 1046 367 1028 b 579 1082 489 1028 539 1046 b 639 1215 619 1119 639 1163 l 540 1215 b 508 1150 540 1188 530 1167 b 428 1124 485 1132 458 1124 b 347 1150 396 1124 369 1132 b 315 1215 326 1167 315 1188 l 217 1215 m 426 819 l 593 368 l 263 368 m 633 258 l 726 0 l 843 0 l 482 972 l 371 972 l 13 0 l 131 0 l 224 258 "},"ă":{"ha":835,"x_min":0,"x_max":0,"o":"m 199 972 b 260 839 199 920 219 876 b 411 783 299 802 349 783 b 561 839 471 783 521 802 b 622 972 602 877 622 921 l 524 972 b 490 907 524 945 513 924 b 411 881 468 889 442 881 b 331 907 380 881 353 889 b 299 972 309 924 299 945 l 199 972 m 635 588 b 625 602 631 592 628 597 b 614 617 622 607 619 612 b 399 711 560 680 488 711 b 153 606 300 711 218 676 b 57 347 89 535 57 449 b 153 89 57 246 89 160 b 399 -17 218 19 300 -17 b 614 78 489 -17 561 15 b 625 91 619 81 622 86 b 635 106 628 96 631 101 l 635 0 l 739 0 l 739 694 l 635 694 m 401 603 b 567 529 470 603 525 578 b 613 448 587 505 603 478 b 629 347 624 418 629 384 b 613 247 629 311 624 278 b 567 165 603 217 587 189 b 401 92 525 116 470 92 b 232 165 332 92 275 116 b 167 347 188 215 167 276 b 232 529 167 419 188 480 b 401 603 275 578 332 603 "},"Ą":{"ha":856,"x_min":0,"x_max":0,"o":"m 786 -181 b 783 -184 785 -181 784 -183 b 781 -189 782 -185 781 -187 b 742 -204 769 -199 756 -204 b 703 -189 727 -204 714 -199 b 686 -149 692 -177 686 -163 b 690 -128 686 -141 688 -134 b 703 -110 693 -122 697 -116 l 831 18 l 728 18 b 682 -9 711 10 696 1 b 646 -39 668 -19 656 -29 b 596 -151 613 -72 596 -110 b 639 -251 596 -190 610 -224 b 742 -294 667 -280 701 -294 b 843 -251 781 -294 815 -280 b 853 -243 847 -249 850 -246 b 860 -233 856 -240 858 -237 m 426 819 l 593 368 l 263 368 m 633 258 l 726 0 l 843 0 l 482 972 l 371 972 l 13 0 l 131 0 l 224 258 "},"ą":{"ha":835,"x_min":0,"x_max":0,"o":"m 693 -181 b 691 -184 692 -181 691 -183 b 688 -189 691 -185 689 -187 b 649 -204 677 -199 664 -204 b 610 -189 634 -204 621 -199 b 593 -149 599 -177 593 -163 b 597 -128 593 -141 594 -134 b 610 -110 600 -122 604 -116 l 738 18 l 635 18 b 589 -9 618 10 603 1 b 553 -39 575 -19 563 -29 b 503 -151 519 -72 503 -110 b 544 -251 503 -190 517 -224 b 649 -294 573 -280 608 -294 b 750 -251 688 -294 722 -280 b 760 -243 754 -249 757 -246 b 767 -233 763 -240 765 -237 m 635 588 b 625 602 631 592 628 597 b 614 617 622 607 619 612 b 399 711 560 680 488 711 b 153 606 300 711 218 676 b 57 347 89 535 57 449 b 153 89 57 246 89 160 b 399 -17 218 19 300 -17 b 614 78 489 -17 561 15 b 625 91 619 81 622 86 b 635 106 628 96 631 101 l 635 0 l 739 0 l 739 694 l 635 694 m 401 603 b 567 529 470 603 525 578 b 613 448 587 505 603 478 b 629 347 624 418 629 384 b 613 247 629 311 624 278 b 567 165 603 217 587 189 b 401 92 525 116 470 92 b 232 165 332 92 275 116 b 167 347 188 215 167 276 b 232 529 167 419 188 480 b 401 603 275 578 332 603 "},"Ć":{"ha":936,"x_min":0,"x_max":0,"o":"m 583 1036 l 754 1215 l 606 1215 l 454 1036 m 540 989 b 199 842 402 989 288 940 b 98 681 154 794 121 740 b 64 486 75 621 64 556 b 98 292 64 416 75 351 b 199 131 121 234 154 180 b 540 -17 288 32 402 -17 b 733 25 610 -17 674 -3 b 816 73 763 38 791 54 b 888 139 841 92 865 114 l 810 217 b 540 92 738 133 649 92 b 276 207 434 92 346 130 b 199 334 242 245 216 287 b 172 486 181 381 172 431 b 199 638 172 541 181 591 b 276 765 216 684 242 726 b 540 881 346 842 434 881 b 810 756 649 880 738 838 l 888 835 b 817 900 866 860 843 881 b 733 949 791 919 763 935 b 640 979 704 963 673 973 b 540 989 608 986 575 989 "},"ć":{"ha":686,"x_min":0,"x_max":0,"o":"m 458 793 l 628 972 l 479 972 l 329 793 m 401 711 b 154 606 301 711 219 676 b 57 347 89 535 57 449 b 154 89 57 246 89 160 b 401 -17 219 19 301 -17 b 646 88 499 -17 580 18 l 569 167 b 401 92 525 117 469 92 b 231 165 331 92 274 116 b 165 347 187 215 165 276 b 231 529 165 419 187 480 b 401 603 274 578 331 603 b 569 528 469 603 525 578 l 646 607 b 401 711 580 676 499 711 "},"Ĉ":{"ha":936,"x_min":0,"x_max":0,"o":"m 435 1036 l 538 1140 l 640 1036 l 774 1036 l 604 1215 l 471 1215 l 301 1036 m 540 989 b 199 842 402 989 288 940 b 98 681 154 794 121 740 b 64 486 75 621 64 556 b 98 292 64 416 75 351 b 199 131 121 234 154 180 b 540 -17 288 32 402 -17 b 733 25 610 -17 674 -3 b 816 73 763 38 791 54 b 888 139 841 92 865 114 l 810 217 b 540 92 738 133 649 92 b 276 207 434 92 346 130 b 199 334 242 245 216 287 b 172 486 181 381 172 431 b 199 638 172 541 181 591 b 276 765 216 684 242 726 b 540 881 346 842 434 881 b 810 756 649 880 738 838 l 888 835 b 817 900 866 860 843 881 b 733 949 791 919 763 935 b 640 979 704 963 673 973 b 540 989 608 986 575 989 "},"ĉ":{"ha":686,"x_min":0,"x_max":0,"o":"m 289 793 l 392 897 l 494 793 l 628 793 l 458 972 l 325 972 l 156 793 m 401 711 b 154 606 301 711 219 676 b 57 347 89 535 57 449 b 154 89 57 246 89 160 b 401 -17 219 19 301 -17 b 646 88 499 -17 580 18 l 569 167 b 401 92 525 117 469 92 b 231 165 331 92 274 116 b 165 347 187 215 165 276 b 231 529 165 419 187 480 b 401 603 274 578 331 603 b 569 528 469 603 525 578 l 646 607 b 401 711 580 676 499 711 "},"Ċ":{"ha":936,"x_min":0,"x_max":0,"o":"m 606 1168 b 586 1218 606 1188 599 1204 b 536 1238 572 1231 556 1238 b 486 1218 516 1238 499 1231 b 467 1168 473 1205 467 1188 b 486 1119 467 1149 473 1132 b 536 1099 500 1106 517 1099 b 586 1119 556 1099 572 1106 b 606 1168 599 1133 606 1150 m 540 989 b 199 842 402 989 288 940 b 98 681 154 794 121 740 b 64 486 75 621 64 556 b 98 292 64 416 75 351 b 199 131 121 234 154 180 b 540 -17 288 32 402 -17 b 733 25 610 -17 674 -3 b 816 73 763 38 791 54 b 888 139 841 92 865 114 l 810 217 b 540 92 738 133 649 92 b 276 207 434 92 346 130 b 199 334 242 245 216 287 b 172 486 181 381 172 431 b 199 638 172 541 181 591 b 276 765 216 684 242 726 b 540 881 346 842 434 881 b 810 756 649 880 738 838 l 888 835 b 817 900 866 860 843 881 b 733 949 791 919 763 935 b 640 979 704 963 673 973 b 540 989 608 986 575 989 "},"ċ":{"ha":686,"x_min":0,"x_max":0,"o":"m 468 925 b 449 975 468 944 462 961 b 399 994 435 988 418 994 b 349 975 378 994 362 988 b 329 925 336 962 329 945 b 349 876 329 906 336 889 b 399 856 363 863 379 856 b 449 876 418 856 435 863 b 468 925 462 890 468 906 m 401 711 b 154 606 301 711 219 676 b 57 347 89 535 57 449 b 154 89 57 246 89 160 b 401 -17 219 19 301 -17 b 646 88 499 -17 580 18 l 569 167 b 401 92 525 117 469 92 b 231 165 331 92 274 116 b 165 347 187 215 165 276 b 231 529 165 419 187 480 b 401 603 274 578 331 603 b 569 528 469 603 525 578 l 646 607 b 401 711 580 676 499 711 "},"Č":{"ha":936,"x_min":0,"x_max":0,"o":"m 465 1036 l 607 1036 l 772 1215 l 639 1215 l 536 1113 l 433 1215 l 301 1215 m 540 989 b 199 842 402 989 288 940 b 98 681 154 794 121 740 b 64 486 75 621 64 556 b 98 292 64 416 75 351 b 199 131 121 234 154 180 b 540 -17 288 32 402 -17 b 733 25 610 -17 674 -3 b 816 73 763 38 791 54 b 888 139 841 92 865 114 l 810 217 b 540 92 738 133 649 92 b 276 207 434 92 346 130 b 199 334 242 245 216 287 b 172 486 181 381 172 431 b 199 638 172 541 181 591 b 276 765 216 684 242 726 b 540 881 346 842 434 881 b 810 756 649 880 738 838 l 888 835 b 817 900 866 860 843 881 b 733 949 791 919 763 935 b 640 979 704 963 673 973 b 540 989 608 986 575 989 "},"č":{"ha":686,"x_min":0,"x_max":0,"o":"m 324 793 l 465 793 l 629 972 l 497 972 l 394 869 l 290 972 l 158 972 m 401 711 b 154 606 301 711 219 676 b 57 347 89 535 57 449 b 154 89 57 246 89 160 b 401 -17 219 19 301 -17 b 646 88 499 -17 580 18 l 569 167 b 401 92 525 117 469 92 b 231 165 331 92 274 116 b 165 347 187 215 165 276 b 231 529 165 419 187 480 b 401 603 274 578 331 603 b 569 528 469 603 525 578 l 646 607 b 401 711 580 676 499 711 "},"Ď":{"ha":953,"x_min":0,"x_max":0,"o":"m 353 1036 l 494 1036 l 660 1215 l 526 1215 l 424 1113 l 321 1215 l 189 1215 m 404 864 b 671 753 509 864 598 827 b 782 486 745 679 782 590 b 671 219 782 382 745 294 b 404 108 598 145 509 108 l 239 108 l 239 864 l 404 864 m 129 972 l 129 0 l 404 0 b 747 143 538 0 652 48 b 854 299 794 190 830 242 b 890 486 878 356 890 419 b 747 831 890 620 843 735 b 404 972 653 925 538 972 "},"ď":{"ha":835,"x_min":0,"x_max":0,"o":"m 836 738 l 924 971 l 808 971 l 740 738 m 401 603 b 232 529 332 603 275 578 b 167 347 188 480 167 419 b 232 165 167 276 188 215 b 401 92 275 116 332 92 b 567 165 470 92 525 116 b 613 247 587 189 603 217 b 629 347 624 278 629 311 b 613 448 629 384 624 418 b 567 529 603 478 587 505 b 401 603 525 578 470 603 m 399 711 b 606 621 485 711 554 681 b 618 608 610 617 614 613 b 629 592 622 603 625 597 l 629 972 l 739 972 l 739 0 l 635 0 l 635 106 b 624 90 631 100 627 95 b 611 75 620 84 616 80 b 399 -17 558 14 488 -17 b 153 89 300 -17 218 19 b 57 347 89 160 57 246 b 153 606 57 449 89 535 b 399 711 218 676 300 711 "},"Đ":{"ha":953,"x_min":0,"x_max":0,"o":"m 404 864 b 671 753 509 864 598 827 b 782 486 745 679 782 590 b 671 219 782 382 745 294 b 404 108 598 145 509 108 l 239 108 l 239 864 l 404 864 m 129 972 l 129 0 l 404 0 b 747 143 538 0 652 48 b 854 299 794 190 830 242 b 890 486 878 356 890 419 b 747 831 890 620 843 735 b 404 972 653 925 538 972 m 428 431 l 428 539 l 63 539 l 63 431 "},"đ":{"ha":847,"x_min":0,"x_max":0,"o":"m 401 603 b 232 529 332 603 275 578 b 167 347 188 480 167 419 b 232 165 167 276 188 215 b 401 92 275 116 332 92 b 567 165 470 92 525 116 b 613 247 587 189 603 217 b 629 347 624 278 629 311 b 613 448 629 384 624 418 b 567 529 603 478 587 505 b 401 603 525 578 470 603 m 399 711 b 606 621 485 711 554 681 b 618 608 610 617 614 613 b 629 592 622 603 625 597 l 629 972 l 739 972 l 739 0 l 635 0 l 635 106 b 624 90 631 100 627 95 b 611 75 620 84 616 80 b 399 -17 558 14 488 -17 b 153 89 300 -17 218 19 b 57 347 89 160 57 246 b 153 606 57 449 89 535 b 399 711 218 676 300 711 m 450 776 l 450 875 l 843 875 l 843 776 "},"Ē":{"ha":821,"x_min":0,"x_max":0,"o":"m 636 1042 l 636 1146 l 210 1146 l 210 1042 m 707 0 l 707 108 l 239 108 l 239 442 l 615 442 l 615 551 l 239 551 l 239 864 l 706 864 l 706 972 l 129 972 l 129 0 "},"ē":{"ha":760,"x_min":0,"x_max":0,"o":"m 610 799 l 610 903 l 183 903 l 183 799 m 718 347 b 632 607 718 452 689 538 b 401 711 575 676 498 711 b 154 606 301 711 219 676 b 57 347 89 535 57 449 b 156 89 57 246 90 160 b 403 -17 221 19 304 -17 b 685 88 521 -17 615 18 l 610 167 b 403 92 560 117 491 92 b 249 151 343 92 291 112 b 199 217 228 171 212 193 b 174 299 187 242 178 269 l 718 299 m 400 604 b 542 547 459 604 506 585 b 604 399 575 509 596 460 l 174 399 b 246 544 182 457 206 506 b 400 604 288 584 340 604 "},"Ĕ":{"ha":821,"x_min":0,"x_max":0,"o":"m 707 0 l 707 108 l 239 108 l 239 442 l 615 442 l 615 551 l 239 551 l 239 864 l 706 864 l 706 972 l 129 972 l 129 0 m 214 1215 b 275 1082 214 1164 234 1120 b 425 1028 315 1046 365 1028 b 576 1082 486 1028 537 1046 b 638 1215 617 1119 638 1163 l 538 1215 b 506 1150 538 1188 527 1167 b 425 1124 483 1132 456 1124 b 346 1150 394 1124 368 1132 b 313 1215 324 1167 313 1188 l 214 1215 "},"ĕ":{"ha":760,"x_min":0,"x_max":0,"o":"m 718 347 b 632 607 718 452 689 538 b 401 711 575 676 498 711 b 154 606 301 711 219 676 b 57 347 89 535 57 449 b 156 89 57 246 90 160 b 403 -17 221 19 304 -17 b 685 88 521 -17 615 18 l 610 167 b 403 92 560 117 491 92 b 249 151 343 92 291 112 b 199 217 228 171 212 193 b 174 299 187 242 178 269 l 718 299 m 400 604 b 542 547 459 604 506 585 b 604 399 575 509 596 460 l 174 399 b 246 544 182 457 206 506 b 400 604 288 584 340 604 m 186 972 b 249 839 186 921 207 877 b 397 783 288 802 337 783 b 549 839 459 783 510 802 b 610 972 589 876 610 920 l 510 972 b 478 907 510 945 499 924 b 397 881 456 889 429 881 b 318 907 367 881 340 889 b 286 972 297 924 286 945 l 186 972 "},"Ė":{"ha":821,"x_min":0,"x_max":0,"o":"m 493 1168 b 472 1218 493 1188 486 1204 b 424 1238 459 1231 443 1238 b 374 1218 403 1238 387 1231 b 354 1168 361 1205 354 1188 b 374 1119 354 1149 361 1132 b 424 1099 388 1106 404 1099 b 472 1119 442 1099 458 1106 b 493 1168 486 1133 493 1150 m 707 0 l 707 108 l 239 108 l 239 442 l 615 442 l 615 551 l 239 551 l 239 864 l 706 864 l 706 972 l 129 972 l 129 0 "},"ė":{"ha":760,"x_min":0,"x_max":0,"o":"m 469 925 b 449 975 469 944 463 961 b 400 994 436 988 419 994 b 350 975 380 994 363 988 b 329 925 336 962 329 945 b 350 876 329 906 336 889 b 400 856 363 863 380 856 b 449 876 419 856 435 863 b 469 925 463 890 469 906 m 718 347 b 632 607 718 452 689 538 b 401 711 575 676 498 711 b 154 606 301 711 219 676 b 57 347 89 535 57 449 b 156 89 57 246 90 160 b 403 -17 221 19 304 -17 b 685 88 521 -17 615 18 l 610 167 b 403 92 560 117 491 92 b 249 151 343 92 291 112 b 199 217 228 171 212 193 b 174 299 187 242 178 269 l 718 299 m 400 604 b 542 547 459 604 506 585 b 604 399 575 509 596 460 l 174 399 b 246 544 182 457 206 506 b 400 604 288 584 340 604 "},"Ę":{"ha":821,"x_min":0,"x_max":0,"o":"m 661 -181 b 658 -184 660 -181 659 -183 b 654 -189 657 -185 656 -187 b 617 -204 644 -199 631 -204 b 578 -189 602 -204 589 -199 b 560 -149 566 -177 560 -163 b 578 -110 560 -135 566 -122 l 706 18 l 603 18 b 521 -39 568 0 540 -19 b 471 -151 488 -72 471 -110 b 513 -251 471 -190 485 -224 b 617 -294 541 -280 576 -294 b 718 -251 656 -294 690 -280 l 726 -243 b 735 -233 729 -240 732 -237 m 707 0 l 707 108 l 239 108 l 239 442 l 615 442 l 615 551 l 239 551 l 239 864 l 706 864 l 706 972 l 129 972 l 129 0 "},"ę":{"ha":760,"x_min":0,"x_max":0,"o":"m 718 347 b 632 607 718 452 689 538 b 401 711 575 676 498 711 b 154 606 301 711 219 676 b 57 347 89 535 57 449 b 156 89 57 246 90 160 b 403 -17 221 19 304 -17 b 685 88 521 -17 615 18 l 610 167 b 403 92 560 117 491 92 b 249 151 343 92 291 112 b 199 217 228 171 212 193 b 174 299 187 242 178 269 l 718 299 m 400 604 b 542 547 459 604 506 585 b 604 399 575 509 596 460 l 174 399 b 246 544 182 457 206 506 b 400 604 288 584 340 604 m 575 -161 b 572 -165 574 -162 573 -163 b 568 -168 571 -166 570 -167 b 529 -185 557 -179 544 -185 b 490 -168 514 -185 501 -179 b 474 -129 479 -158 474 -145 b 478 -108 474 -122 475 -115 b 490 -90 481 -102 485 -96 l 618 38 l 517 38 b 435 -19 481 20 454 1 b 385 -132 401 -53 385 -90 b 426 -232 385 -171 399 -204 b 529 -275 455 -261 489 -275 b 632 -232 569 -275 603 -261 b 641 -224 635 -229 638 -226 b 649 -214 644 -221 647 -218 "},"Ě":{"ha":821,"x_min":0,"x_max":0,"o":"m 350 1036 l 492 1036 l 656 1215 l 524 1215 l 421 1113 l 318 1215 l 185 1215 m 707 0 l 707 108 l 239 108 l 239 442 l 615 442 l 615 551 l 239 551 l 239 864 l 706 864 l 706 972 l 129 972 l 129 0 "},"ě":{"ha":760,"x_min":0,"x_max":0,"o":"m 326 793 l 468 793 l 632 972 l 500 972 l 397 869 l 294 972 l 161 972 m 718 347 b 632 607 718 452 689 538 b 401 711 575 676 498 711 b 154 606 301 711 219 676 b 57 347 89 535 57 449 b 156 89 57 246 90 160 b 403 -17 221 19 304 -17 b 685 88 521 -17 615 18 l 610 167 b 403 92 560 117 491 92 b 249 151 343 92 291 112 b 199 217 228 171 212 193 b 174 299 187 242 178 269 l 718 299 m 400 604 b 542 547 459 604 506 585 b 604 399 575 509 596 460 l 174 399 b 246 544 182 457 206 506 b 400 604 288 584 340 604 "},"Ĝ":{"ha":1063,"x_min":0,"x_max":0,"o":"m 439 1038 l 542 1142 l 644 1038 l 778 1038 l 608 1217 l 475 1217 l 306 1038 m 539 989 b 199 843 401 989 288 940 b 64 486 109 745 64 626 b 197 129 64 346 108 227 b 539 -17 287 32 401 -17 b 732 24 607 -17 672 -3 b 815 73 762 38 789 54 b 886 138 841 92 865 113 b 1014 486 971 234 1014 350 l 1014 540 l 640 540 l 640 432 l 899 432 b 870 315 895 390 885 351 b 808 217 855 279 834 246 b 539 92 737 133 647 92 b 276 207 432 92 345 130 b 172 486 207 285 172 378 b 276 765 172 595 207 688 b 539 881 345 842 432 881 b 808 756 647 880 737 838 l 888 835 b 817 900 866 860 843 881 b 733 949 791 919 763 935 b 640 979 704 963 672 973 b 539 989 607 986 573 989 "},"ĝ":{"ha":810,"x_min":0,"x_max":0,"o":"m 314 793 l 417 897 l 519 793 l 653 793 l 485 972 l 350 972 l 181 793 m 390 601 b 546 532 455 601 507 578 b 606 358 586 484 606 426 b 546 185 606 291 586 233 b 390 115 507 138 455 115 b 229 185 325 115 271 138 b 167 358 188 233 167 291 b 229 531 167 425 188 482 b 390 601 271 578 325 601 m 388 711 b 150 608 292 711 213 677 b 57 358 88 541 57 457 b 150 108 57 258 88 175 b 388 4 214 39 293 4 b 590 93 473 4 540 34 b 597 104 592 97 594 100 b 606 114 600 108 603 111 l 606 61 b 546 -121 606 -10 586 -71 b 375 -194 507 -170 450 -194 b 157 -135 291 -194 218 -175 l 110 -222 b 376 -296 188 -271 276 -296 b 621 -196 477 -296 559 -262 b 714 67 683 -129 714 -42 l 714 694 l 608 694 l 608 599 b 600 611 606 603 603 607 b 592 621 597 615 594 618 b 388 711 541 681 473 711 "},"Ğ":{"ha":1063,"x_min":0,"x_max":0,"o":"m 325 1250 b 386 1118 325 1200 345 1156 b 536 1061 427 1080 477 1061 b 688 1118 597 1061 648 1080 b 749 1250 728 1155 749 1199 l 649 1250 b 617 1185 649 1223 638 1201 b 536 1158 594 1167 568 1158 b 457 1185 506 1158 479 1167 b 424 1250 435 1201 424 1223 l 325 1250 m 539 989 b 199 843 401 989 288 940 b 64 486 109 745 64 626 b 197 129 64 346 108 227 b 539 -17 287 32 401 -17 b 732 24 607 -17 672 -3 b 815 73 762 38 789 54 b 886 138 841 92 865 113 b 1014 486 971 234 1014 350 l 1014 540 l 640 540 l 640 432 l 899 432 b 870 315 895 390 885 351 b 808 217 855 279 834 246 b 539 92 737 133 647 92 b 276 207 432 92 345 130 b 172 486 207 285 172 378 b 276 765 172 595 207 688 b 539 881 345 842 432 881 b 808 756 647 880 737 838 l 888 835 b 817 900 866 860 843 881 b 733 949 791 919 763 935 b 640 979 704 963 672 973 b 539 989 607 986 573 989 "},"ğ":{"ha":810,"x_min":0,"x_max":0,"o":"m 218 972 b 278 839 218 920 238 876 b 429 783 318 802 368 783 b 579 839 489 783 539 802 b 640 972 620 877 640 921 l 542 972 b 510 907 542 945 531 924 b 429 881 487 889 460 881 b 349 907 398 881 371 889 b 317 972 327 924 317 945 l 218 972 m 390 601 b 546 532 455 601 507 578 b 606 358 586 484 606 426 b 546 185 606 291 586 233 b 390 115 507 138 455 115 b 229 185 325 115 271 138 b 167 358 188 233 167 291 b 229 531 167 425 188 482 b 390 601 271 578 325 601 m 388 711 b 150 608 292 711 213 677 b 57 358 88 541 57 457 b 150 108 57 258 88 175 b 388 4 214 39 293 4 b 590 93 473 4 540 34 b 597 104 592 97 594 100 b 606 114 600 108 603 111 l 606 61 b 546 -121 606 -10 586 -71 b 375 -194 507 -170 450 -194 b 157 -135 291 -194 218 -175 l 110 -222 b 376 -296 188 -271 276 -296 b 621 -196 477 -296 559 -262 b 714 67 683 -129 714 -42 l 714 694 l 608 694 l 608 599 b 600 611 606 603 603 607 b 592 621 597 615 594 618 b 388 711 541 681 473 711 "},"Ġ":{"ha":1063,"x_min":0,"x_max":0,"o":"m 606 1203 b 586 1253 606 1222 599 1239 b 536 1272 572 1266 556 1272 b 486 1253 517 1272 500 1266 b 467 1203 473 1239 467 1222 b 486 1153 467 1182 473 1166 b 536 1133 499 1140 516 1133 b 586 1153 556 1133 573 1140 b 606 1203 599 1166 606 1182 m 539 989 b 199 843 401 989 288 940 b 64 486 109 745 64 626 b 197 129 64 346 108 227 b 539 -17 287 32 401 -17 b 732 24 607 -17 672 -3 b 815 73 762 38 789 54 b 886 138 841 92 865 113 b 1014 486 971 234 1014 350 l 1014 540 l 640 540 l 640 432 l 899 432 b 870 315 895 390 885 351 b 808 217 855 279 834 246 b 539 92 737 133 647 92 b 276 207 432 92 345 130 b 172 486 207 285 172 378 b 276 765 172 595 207 688 b 539 881 345 842 432 881 b 808 756 647 880 737 838 l 888 835 b 817 900 866 860 843 881 b 733 949 791 919 763 935 b 640 979 704 963 672 973 b 539 989 607 986 573 989 "},"ġ":{"ha":810,"x_min":0,"x_max":0,"o":"m 488 925 b 467 975 488 944 481 961 b 417 994 453 988 436 994 b 368 975 397 994 381 988 b 347 925 354 962 347 945 b 368 876 347 906 354 889 b 417 856 381 863 397 856 b 467 876 436 856 453 863 b 488 925 481 890 488 906 m 390 601 b 546 532 455 601 507 578 b 606 358 586 484 606 426 b 546 185 606 291 586 233 b 390 115 507 138 455 115 b 229 185 325 115 271 138 b 167 358 188 233 167 291 b 229 531 167 425 188 482 b 390 601 271 578 325 601 m 388 711 b 150 608 292 711 213 677 b 57 358 88 541 57 457 b 150 108 57 258 88 175 b 388 4 214 39 293 4 b 590 93 473 4 540 34 b 597 104 592 97 594 100 b 606 114 600 108 603 111 l 606 61 b 546 -121 606 -10 586 -71 b 375 -194 507 -170 450 -194 b 157 -135 291 -194 218 -175 l 110 -222 b 376 -296 188 -271 276 -296 b 621 -196 477 -296 559 -262 b 714 67 683 -129 714 -42 l 714 694 l 608 694 l 608 599 b 600 611 606 603 603 607 b 592 621 597 615 594 618 b 388 711 541 681 473 711 "},"Ģ":{"ha":1063,"x_min":0,"x_max":0,"o":"m 557 -278 l 639 -83 l 517 -83 l 461 -278 m 539 989 b 199 843 401 989 288 940 b 64 486 109 745 64 626 b 197 129 64 346 108 227 b 539 -17 287 32 401 -17 b 732 24 607 -17 672 -3 b 815 73 762 38 789 54 b 886 138 841 92 865 113 b 1014 486 971 234 1014 350 l 1014 540 l 640 540 l 640 432 l 899 432 b 870 315 895 390 885 351 b 808 217 855 279 834 246 b 539 92 737 133 647 92 b 276 207 432 92 345 130 b 172 486 207 285 172 378 b 276 765 172 595 207 688 b 539 881 345 842 432 881 b 808 756 647 880 737 838 l 888 835 b 817 900 866 860 843 881 b 733 949 791 919 763 935 b 640 979 704 963 672 973 b 539 989 607 986 573 989 "},"ģ":{"ha":810,"x_min":0,"x_max":0,"o":"m 390 601 b 546 532 455 601 507 578 b 606 358 586 484 606 426 b 546 185 606 291 586 233 b 390 115 507 138 455 115 b 229 185 325 115 271 138 b 167 358 188 233 167 291 b 229 531 167 425 188 482 b 390 601 271 578 325 601 m 388 711 b 150 608 292 711 213 677 b 57 358 88 541 57 457 b 150 108 57 258 88 175 b 388 4 214 39 293 4 b 590 93 473 4 540 34 b 597 104 592 97 594 100 b 606 114 600 108 603 111 l 606 61 b 546 -121 606 -10 586 -71 b 375 -194 507 -170 450 -194 b 157 -135 291 -194 218 -175 l 110 -222 b 376 -296 188 -271 276 -296 b 621 -196 477 -296 559 -262 b 714 67 683 -129 714 -42 l 714 694 l 608 694 l 608 599 b 600 611 606 603 603 607 b 592 621 597 615 594 618 b 388 711 541 681 473 711 m 432 990 l 332 807 l 456 807 l 529 990 "},"Ĥ":{"ha":1008,"x_min":0,"x_max":0,"o":"m 403 1036 l 506 1140 l 608 1036 l 742 1036 l 572 1215 l 439 1215 l 269 1036 m 239 0 l 239 446 l 771 446 l 771 0 l 881 0 l 881 972 l 771 972 l 771 554 l 239 554 l 239 972 l 129 972 l 129 0 "},"ĥ":{"ha":775,"x_min":0,"x_max":0,"o":"m 49 1071 l 151 1175 l 254 1071 l 388 1071 l 218 1250 l 85 1250 l -85 1071 m 697 369 b 676 508 697 420 690 467 b 615 617 663 550 642 586 b 407 711 559 680 489 711 b 221 629 330 711 268 684 b 214 620 219 626 217 623 b 207 610 211 617 209 613 l 207 972 l 97 972 l 97 0 l 207 0 l 207 371 b 261 539 207 440 225 496 b 399 603 297 581 343 603 b 535 539 453 603 499 581 b 588 371 570 498 588 442 l 588 0 l 697 0 "},"Ħ":{"ha":1008,"x_min":0,"x_max":0,"o":"m 239 0 l 239 446 l 771 446 l 771 0 l 881 0 l 881 972 l 771 972 l 771 554 l 239 554 l 239 972 l 129 972 l 129 0 m 1001 692 l 1001 800 l 7 800 l 7 692 "},"ħ":{"ha":775,"x_min":0,"x_max":0,"o":"m 697 369 b 676 508 697 420 690 467 b 615 617 663 550 642 586 b 407 711 559 680 489 711 b 221 629 330 711 268 684 b 214 620 219 626 217 623 b 207 610 211 617 209 613 l 207 972 l 97 972 l 97 0 l 207 0 l 207 371 b 261 539 207 440 225 496 b 399 603 297 581 343 603 b 535 539 453 603 499 581 b 588 371 570 498 588 442 l 588 0 l 697 0 m 439 785 l 439 879 l 0 879 l 0 785 "},"Ĩ":{"ha":367,"x_min":0,"x_max":0,"o":"m 239 0 l 239 972 l 129 972 l 129 0 m 271 1029 b 367 1069 308 1029 340 1043 b 415 1171 394 1096 410 1130 l 321 1171 b 271 1118 315 1136 299 1118 b 236 1133 257 1118 245 1123 b 221 1149 231 1138 226 1143 b 204 1168 215 1155 210 1162 b 101 1218 175 1201 141 1218 b 3 1176 65 1218 32 1204 b -46 1076 -26 1150 -42 1116 l 50 1076 b 103 1129 58 1112 76 1129 b 135 1114 114 1129 125 1124 b 149 1098 139 1109 144 1104 b 165 1079 154 1092 160 1086 b 271 1029 193 1046 228 1029 "},"ĩ":{"ha":321,"x_min":0,"x_max":0,"o":"m 214 0 l 214 694 l 106 694 l 106 0 m 244 786 b 340 826 281 786 313 800 b 390 928 367 853 384 887 l 294 928 b 244 875 289 893 272 875 b 210 890 231 875 220 880 b 194 906 205 895 200 900 b 178 925 189 912 183 919 b 76 975 149 958 115 975 b -24 933 40 975 7 961 b -57 889 -37 920 -49 906 b -72 833 -65 872 -70 854 l 24 833 b 78 886 32 869 50 886 b 108 871 89 886 99 881 b 123 855 113 866 118 861 b 139 836 128 849 133 843 b 244 786 167 803 202 786 "},"Ī":{"ha":367,"x_min":0,"x_max":0,"o":"m 397 1042 l 397 1146 l -29 1146 l -29 1042 m 239 0 l 239 972 l 129 972 l 129 0 "},"ī":{"ha":321,"x_min":0,"x_max":0,"o":"m 340 799 l 340 900 l -18 900 l -18 799 m 214 0 l 214 694 l 106 694 l 106 0 "},"Ĭ":{"ha":367,"x_min":0,"x_max":0,"o":"m 239 0 l 239 972 l 129 972 l 129 0 m -28 1215 b 32 1082 -28 1163 -8 1119 b 183 1028 72 1046 122 1028 b 333 1082 244 1028 294 1046 b 394 1215 374 1120 394 1164 l 296 1215 b 263 1150 296 1188 285 1167 b 183 1124 240 1132 214 1124 b 103 1150 152 1124 125 1132 b 71 1215 81 1167 71 1188 l -28 1215 "},"ĭ":{"ha":321,"x_min":0,"x_max":0,"o":"m 214 0 l 214 694 l 106 694 l 106 0 m -50 972 b 11 839 -50 920 -30 876 b 161 783 50 802 100 783 b 311 839 222 783 272 802 b 372 972 352 877 372 921 l 274 972 b 242 907 274 945 263 924 b 161 881 219 889 193 881 b 82 907 131 881 104 889 b 49 972 60 924 49 945 l -50 972 "},"Į":{"ha":367,"x_min":0,"x_max":0,"o":"m 193 -181 b 190 -184 192 -181 191 -183 b 186 -189 189 -185 188 -187 b 149 -204 176 -199 163 -204 b 108 -189 133 -204 119 -199 b 92 -149 97 -178 92 -164 b 96 -128 92 -141 93 -134 b 108 -110 99 -122 103 -116 l 238 18 l 135 18 b 53 -39 100 0 72 -19 b 3 -151 19 -72 3 -110 b 44 -251 3 -190 17 -224 b 149 -294 73 -280 108 -294 b 250 -251 188 -294 222 -280 b 259 -243 253 -249 256 -246 b 267 -233 262 -240 265 -237 m 239 0 l 239 972 l 129 972 l 129 0 "},"į":{"ha":321,"x_min":0,"x_max":0,"o":"m 168 -181 b 165 -184 167 -181 166 -183 b 163 -189 164 -185 163 -187 b 124 -204 151 -199 138 -204 b 83 -189 108 -204 94 -199 b 68 -149 73 -178 68 -164 b 83 -110 68 -134 73 -121 l 213 18 l 110 18 b 64 -9 93 10 78 1 b 28 -39 50 -19 38 -29 b -22 -151 -6 -72 -22 -110 b 21 -251 -22 -190 -8 -224 b 124 -294 49 -280 83 -294 b 225 -251 163 -294 197 -280 b 235 -243 229 -249 232 -246 b 243 -233 239 -240 241 -237 m 231 925 b 211 975 231 945 224 962 b 161 994 198 988 181 994 b 113 975 142 994 125 988 b 92 925 99 961 92 944 b 113 876 92 906 99 890 b 161 856 126 863 143 856 b 211 876 181 856 197 863 b 231 925 224 889 231 906 m 214 0 l 214 694 l 106 694 l 106 0 "},"İ":{"ha":367,"x_min":0,"x_max":0,"o":"m 254 1168 b 235 1218 254 1188 248 1205 b 185 1238 222 1231 205 1238 b 136 1218 165 1238 149 1231 b 115 1168 122 1204 115 1188 b 136 1119 115 1150 122 1133 b 185 1099 150 1106 166 1099 b 235 1119 204 1099 221 1106 b 254 1168 248 1132 254 1149 m 239 0 l 239 972 l 129 972 l 129 0 "},"ı":{"ha":321,"x_min":0,"x_max":0,"o":"m 214 0 l 214 694 l 106 694 l 106 0 "},"Ĳ":{"ha":1090,"x_min":0,"x_max":0,"o":"m 725 246 b 679 139 725 205 710 169 b 571 93 649 108 613 93 b 463 138 528 93 492 108 l 386 61 b 571 -17 437 9 499 -17 b 757 61 643 -17 705 9 b 833 246 808 113 833 175 l 833 972 l 725 972 m 239 0 l 239 972 l 129 972 l 129 0 "},"ĳ":{"ha":693,"x_min":0,"x_max":0,"o":"m 444 4 b 386 -132 444 -49 425 -94 b 250 -190 348 -171 303 -190 l 250 -299 b 464 -210 333 -299 405 -269 b 531 -111 494 -179 517 -146 b 553 4 546 -76 553 -37 l 553 694 l 444 694 m 569 926 b 549 978 569 947 563 964 b 499 997 535 991 518 997 b 449 978 478 997 462 991 b 429 926 436 965 429 948 b 449 878 429 907 436 891 b 499 857 463 864 479 857 b 549 878 518 857 535 864 b 569 926 563 892 569 908 m 231 925 b 211 975 231 945 224 962 b 161 994 198 988 181 994 b 113 975 142 994 125 988 b 92 925 99 961 92 944 b 113 876 92 906 99 890 b 161 856 126 863 143 856 b 211 876 181 856 197 863 b 231 925 224 889 231 906 m 214 0 l 214 694 l 106 694 l 106 0 "},"Ĵ":{"ha":572,"x_min":0,"x_max":0,"o":"m 294 1036 l 397 1140 l 500 1036 l 632 1036 l 464 1217 l 329 1217 l 161 1036 m 349 246 b 303 139 349 205 333 169 b 194 93 272 108 236 93 b 86 138 152 93 116 108 l 10 61 b 194 -17 61 9 122 -17 b 381 61 267 -17 329 9 b 457 246 431 113 457 175 l 457 972 l 349 972 "},"ĵ":{"ha":338,"x_min":0,"x_max":0,"o":"m 72 793 l 175 897 l 278 793 l 411 793 l 242 972 l 108 972 l -61 793 m 122 4 b 65 -132 122 -49 103 -94 b -72 -190 27 -171 -19 -190 l -72 -299 b 143 -210 12 -299 84 -269 b 210 -111 173 -179 195 -146 b 232 4 225 -76 232 -37 l 232 694 l 122 694 "},"Ķ":{"ha":836,"x_min":0,"x_max":0,"o":"m 410 -278 l 492 -83 l 371 -83 l 315 -278 m 239 0 l 239 360 l 326 453 l 692 0 l 829 0 l 400 535 l 813 972 l 667 972 l 239 524 l 239 972 l 129 972 l 129 0 "},"ķ":{"ha":674,"x_min":0,"x_max":0,"o":"m 331 -278 l 413 -83 l 290 -83 l 235 -278 m 206 0 l 206 225 l 310 333 l 539 0 l 672 0 l 386 414 l 651 694 l 503 694 l 206 383 l 206 972 l 97 972 l 97 0 "},"Ĺ":{"ha":721,"x_min":0,"x_max":0,"o":"m 251 1036 l 422 1215 l 274 1215 l 122 1036 m 706 0 l 706 108 l 239 108 l 239 972 l 129 972 l 129 0 "},"ĺ":{"ha":303,"x_min":0,"x_max":0,"o":"m 215 1036 l 385 1215 l 236 1215 l 86 1036 m 97 0 l 206 0 l 206 972 l 97 972 "},"Ļ":{"ha":721,"x_min":0,"x_max":0,"o":"m 382 -278 l 464 -83 l 342 -83 l 286 -278 m 706 0 l 706 108 l 239 108 l 239 972 l 129 972 l 129 0 "},"ļ":{"ha":303,"x_min":0,"x_max":0,"o":"m 136 -278 l 218 -83 l 96 -83 l 40 -278 m 97 0 l 206 0 l 206 972 l 97 972 "},"Ľ":{"ha":721,"x_min":0,"x_max":0,"o":"m 421 819 l 510 1053 l 392 1053 l 326 819 m 706 0 l 706 108 l 239 108 l 239 972 l 129 972 l 129 0 "},"ľ":{"ha":303,"x_min":0,"x_max":0,"o":"m 324 738 l 413 971 l 294 971 l 229 738 m 97 0 l 206 0 l 206 972 l 97 972 "},"Ŀ":{"ha":721,"x_min":0,"x_max":0,"o":"m 706 0 l 706 108 l 239 108 l 239 972 l 129 972 l 129 0 m 567 522 b 547 572 567 542 560 558 b 497 592 533 585 517 592 b 449 572 478 592 462 585 b 428 522 435 558 428 542 b 449 472 428 503 435 486 b 497 453 462 459 478 453 b 547 472 517 453 533 459 b 567 522 560 486 567 503 "},"ŀ":{"ha":438,"x_min":0,"x_max":0,"o":"m 97 0 l 206 0 l 206 972 l 97 972 m 390 514 b 369 563 390 532 383 549 b 321 583 356 576 339 583 b 271 563 301 583 285 576 b 251 514 258 550 251 533 b 271 464 251 494 258 477 b 321 444 284 451 300 444 b 369 464 340 444 356 451 b 390 514 383 478 390 494 "},"Ł":{"ha":721,"x_min":0,"x_max":0,"o":"m 706 0 l 706 108 l 239 108 l 239 972 l 129 972 l 129 0 m 404 542 l 404 663 l 4 476 l 4 356 "},"ł":{"ha":390,"x_min":0,"x_max":0,"o":"m 368 529 l 368 650 l 24 481 l 24 358 m 250 0 l 250 972 l 139 972 l 139 0 "},"Ń":{"ha":1014,"x_min":0,"x_max":0,"o":"m 571 1031 l 742 1211 l 593 1211 l 443 1031 m 129 0 l 239 0 l 239 778 l 776 0 l 885 0 l 885 972 l 776 972 l 776 194 l 239 972 l 129 972 "},"ń":{"ha":774,"x_min":0,"x_max":0,"o":"m 440 793 l 610 972 l 461 972 l 311 793 m 696 369 b 676 508 696 420 689 467 b 614 617 662 550 642 586 b 406 711 558 680 489 711 b 219 628 329 711 267 683 b 211 618 217 625 214 622 l 203 607 l 203 694 l 97 694 l 97 0 l 206 0 l 206 371 b 261 539 206 440 224 496 b 397 603 297 581 343 603 b 533 539 453 603 498 581 b 588 371 569 498 588 442 l 588 0 l 696 0 "},"Ņ":{"ha":1014,"x_min":0,"x_max":0,"o":"m 518 -278 l 600 -83 l 479 -83 l 424 -278 m 129 0 l 239 0 l 239 778 l 776 0 l 885 0 l 885 972 l 776 972 l 776 194 l 239 972 l 129 972 "},"ņ":{"ha":774,"x_min":0,"x_max":0,"o":"m 372 -278 l 454 -83 l 333 -83 l 278 -278 m 696 369 b 676 508 696 420 689 467 b 614 617 662 550 642 586 b 406 711 558 680 489 711 b 219 628 329 711 267 683 b 211 618 217 625 214 622 l 203 607 l 203 694 l 97 694 l 97 0 l 206 0 l 206 371 b 261 539 206 440 224 496 b 397 603 297 581 343 603 b 533 539 453 603 498 581 b 588 371 569 498 588 442 l 588 0 l 696 0 "},"Ň":{"ha":1014,"x_min":0,"x_max":0,"o":"m 453 1031 l 594 1031 l 760 1211 l 626 1211 l 524 1107 l 421 1211 l 289 1211 m 129 0 l 239 0 l 239 778 l 776 0 l 885 0 l 885 972 l 776 972 l 776 194 l 239 972 l 129 972 "},"ň":{"ha":774,"x_min":0,"x_max":0,"o":"m 313 793 l 454 793 l 619 972 l 486 972 l 383 869 l 281 972 l 147 972 m 696 369 b 676 508 696 420 689 467 b 614 617 662 550 642 586 b 406 711 558 680 489 711 b 219 628 329 711 267 683 b 211 618 217 625 214 622 l 203 607 l 203 694 l 97 694 l 97 0 l 206 0 l 206 371 b 261 539 206 440 224 496 b 397 603 297 581 343 603 b 533 539 453 603 498 581 b 588 371 569 498 588 442 l 588 0 l 696 0 "},"Ŋ":{"ha":1014,"x_min":0,"x_max":0,"o":"m 129 0 l 239 0 l 239 778 l 776 0 l 885 0 l 885 972 l 776 972 l 776 194 l 239 972 l 129 972 m 776 -31 b 731 -140 776 -73 761 -110 b 619 -186 700 -171 663 -186 l 582 -186 l 582 -296 l 619 -296 b 807 -217 693 -296 755 -269 b 885 -31 859 -165 885 -103 l 885 0 l 776 0 "},"ŋ":{"ha":774,"x_min":0,"x_max":0,"o":"m 696 369 b 676 508 696 420 689 467 b 614 617 662 550 642 586 b 406 711 558 680 489 711 b 219 628 329 711 267 683 b 211 618 217 625 214 622 l 203 607 l 203 694 l 97 694 l 97 0 l 206 0 l 206 371 b 261 539 206 440 224 496 b 397 603 297 581 343 603 b 533 539 453 603 498 581 b 588 371 569 498 588 442 l 588 0 l 696 0 m 588 -31 b 542 -140 588 -73 572 -110 b 432 -186 511 -171 475 -186 l 393 -186 l 393 -296 l 432 -296 b 618 -217 504 -296 566 -269 b 696 -31 670 -165 696 -103 l 696 0 l 588 0 "},"Ō":{"ha":1076,"x_min":0,"x_max":0,"o":"m 539 881 b 800 765 644 881 731 842 b 878 638 834 726 860 684 b 904 486 895 591 904 541 b 800 207 904 378 869 285 b 539 92 731 130 644 92 b 276 207 432 92 345 130 b 172 486 207 285 172 378 b 198 638 172 541 181 591 b 276 765 215 684 241 726 b 539 881 345 842 432 881 m 539 989 b 197 842 401 989 287 940 b 64 486 108 744 64 626 b 197 129 64 346 108 227 b 539 -17 287 32 401 -17 b 878 128 676 -17 789 31 b 1014 486 969 226 1014 345 b 879 843 1014 626 969 745 b 539 989 790 940 677 989 m 754 1042 l 754 1146 l 328 1146 l 328 1042 "},"ō":{"ha":800,"x_min":0,"x_max":0,"o":"m 619 799 l 619 903 l 193 903 l 193 799 m 401 603 b 569 529 470 603 526 578 b 635 347 613 480 635 419 b 619 248 635 311 629 278 b 569 165 608 218 592 190 b 401 92 526 116 470 92 b 231 165 331 92 274 116 b 165 347 187 215 165 276 b 182 447 165 383 171 416 b 231 529 193 477 209 504 b 401 603 274 578 331 603 m 401 711 b 154 606 301 711 219 676 b 57 347 89 535 57 449 b 154 89 57 246 89 160 b 401 -17 219 19 301 -17 b 646 89 500 -17 581 19 b 744 347 712 160 744 246 b 646 606 744 449 712 535 b 401 711 581 676 500 711 "},"Ŏ":{"ha":1076,"x_min":0,"x_max":0,"o":"m 539 881 b 800 765 644 881 731 842 b 878 638 834 726 860 684 b 904 486 895 591 904 541 b 800 207 904 378 869 285 b 539 92 731 130 644 92 b 276 207 432 92 345 130 b 172 486 207 285 172 378 b 198 638 172 541 181 591 b 276 765 215 684 241 726 b 539 881 345 842 432 881 m 539 989 b 197 842 401 989 287 940 b 64 486 108 744 64 626 b 197 129 64 346 108 227 b 539 -17 287 32 401 -17 b 878 128 676 -17 789 31 b 1014 486 969 226 1014 345 b 879 843 1014 626 969 745 b 539 989 790 940 677 989 m 332 1215 b 393 1082 332 1164 352 1120 b 544 1028 433 1046 483 1028 b 694 1082 606 1028 656 1046 b 756 1215 735 1119 756 1163 l 656 1215 b 624 1150 656 1188 645 1167 b 544 1124 601 1132 575 1124 b 464 1150 513 1124 486 1132 b 432 1215 443 1167 432 1188 l 332 1215 "},"ŏ":{"ha":800,"x_min":0,"x_max":0,"o":"m 401 603 b 569 529 470 603 526 578 b 635 347 613 480 635 419 b 619 248 635 311 629 278 b 569 165 608 218 592 190 b 401 92 526 116 470 92 b 231 165 331 92 274 116 b 165 347 187 215 165 276 b 182 447 165 383 171 416 b 231 529 193 477 209 504 b 401 603 274 578 331 603 m 401 711 b 154 606 301 711 219 676 b 57 347 89 535 57 449 b 154 89 57 246 89 160 b 401 -17 219 19 301 -17 b 646 89 500 -17 581 19 b 744 347 712 160 744 246 b 646 606 744 449 712 535 b 401 711 581 676 500 711 m 193 972 b 253 839 193 920 213 876 b 404 783 292 802 342 783 b 554 839 464 783 514 802 b 615 972 595 877 615 921 l 517 972 b 483 907 517 945 506 924 b 404 881 461 889 435 881 b 324 907 373 881 346 889 b 292 972 302 924 292 945 l 193 972 "},"Ő":{"ha":1076,"x_min":0,"x_max":0,"o":"m 725 1036 l 869 1215 l 728 1215 l 597 1036 m 482 1036 l 626 1215 l 485 1215 l 356 1036 m 539 881 b 800 765 644 881 731 842 b 878 638 834 726 860 684 b 904 486 895 591 904 541 b 800 207 904 378 869 285 b 539 92 731 130 644 92 b 276 207 432 92 345 130 b 172 486 207 285 172 378 b 198 638 172 541 181 591 b 276 765 215 684 241 726 b 539 881 345 842 432 881 m 539 989 b 197 842 401 989 287 940 b 64 486 108 744 64 626 b 197 129 64 346 108 227 b 539 -17 287 32 401 -17 b 878 128 676 -17 789 31 b 1014 486 969 226 1014 345 b 879 843 1014 626 969 745 b 539 989 790 940 677 989 "},"ő":{"ha":800,"x_min":0,"x_max":0,"o":"m 588 793 l 732 972 l 589 972 l 460 793 m 344 793 l 489 972 l 347 972 l 218 793 m 401 603 b 569 529 470 603 526 578 b 635 347 613 480 635 419 b 619 248 635 311 629 278 b 569 165 608 218 592 190 b 401 92 526 116 470 92 b 231 165 331 92 274 116 b 165 347 187 215 165 276 b 182 447 165 383 171 416 b 231 529 193 477 209 504 b 401 603 274 578 331 603 m 401 711 b 154 606 301 711 219 676 b 57 347 89 535 57 449 b 154 89 57 246 89 160 b 401 -17 219 19 301 -17 b 646 89 500 -17 581 19 b 744 347 712 160 744 246 b 646 606 744 449 712 535 b 401 711 581 676 500 711 "},"Œ":{"ha":1596,"x_min":0,"x_max":0,"o":"m 539 881 b 800 765 644 881 731 842 b 878 638 834 726 860 684 b 904 486 895 591 904 541 b 800 207 904 378 869 285 b 539 92 731 130 644 92 b 276 207 432 92 345 130 b 172 486 207 285 172 378 b 198 638 172 541 181 591 b 276 765 215 684 241 726 b 539 881 345 842 432 881 m 539 989 b 197 842 401 989 287 940 b 64 486 108 744 64 626 b 197 129 64 346 108 227 b 539 -17 287 32 401 -17 b 878 128 676 -17 789 31 b 1014 486 969 226 1014 345 b 879 843 1014 626 969 745 b 539 989 790 940 677 989 m 1482 0 l 1482 108 l 1014 108 l 1014 442 l 1390 442 l 1390 551 l 1014 551 l 1014 864 l 1481 864 l 1481 972 l 904 972 l 904 0 "},"œ":{"ha":1339,"x_min":0,"x_max":0,"o":"m 1297 347 b 1211 607 1297 452 1269 538 b 978 711 1154 676 1076 711 b 733 606 880 711 798 676 b 635 347 668 535 635 449 b 733 89 635 246 668 160 b 981 -17 799 19 881 -17 b 1263 88 1099 -17 1193 18 l 1188 167 b 981 92 1138 117 1069 92 b 826 151 920 92 869 112 b 753 299 786 190 761 239 l 1297 299 m 978 604 b 1119 547 1037 604 1084 585 b 1182 399 1154 509 1175 460 l 751 399 b 825 544 760 457 784 506 b 978 604 867 584 918 604 m 401 603 b 569 529 470 603 526 578 b 635 347 613 480 635 419 b 619 248 635 311 629 278 b 569 165 608 218 592 190 b 401 92 526 116 470 92 b 231 165 331 92 274 116 b 165 347 187 215 165 276 b 182 447 165 383 171 416 b 231 529 193 477 209 504 b 401 603 274 578 331 603 m 401 711 b 154 606 301 711 219 676 b 57 347 89 535 57 449 b 154 89 57 246 89 160 b 401 -17 219 19 301 -17 b 646 89 500 -17 581 19 b 744 347 712 160 744 246 b 646 606 744 449 712 535 b 401 711 581 676 500 711 "},"Ŕ":{"ha":821,"x_min":0,"x_max":0,"o":"m 456 1036 l 626 1215 l 478 1215 l 326 1036 m 472 864 b 599 811 521 864 563 846 b 651 683 634 776 651 733 b 599 557 651 634 634 592 b 472 504 563 522 521 504 l 239 504 l 239 864 m 129 0 l 239 0 l 239 396 l 463 396 l 642 0 l 760 0 l 571 418 b 708 519 626 438 672 471 b 760 683 743 568 760 622 b 675 889 760 763 731 831 b 472 972 619 944 552 972 l 129 972 "},"ŕ":{"ha":465,"x_min":0,"x_max":0,"o":"m 279 793 l 450 972 l 301 972 l 150 793 m 97 0 l 206 0 l 206 365 b 281 535 208 433 233 489 b 451 603 329 580 386 603 l 451 711 b 306 676 397 711 348 700 b 225 617 276 662 249 642 b 214 605 221 613 218 609 b 203 592 210 601 206 596 l 203 694 l 97 694 "},"Ŗ":{"ha":821,"x_min":0,"x_max":0,"o":"m 415 -278 l 497 -83 l 375 -83 l 319 -278 m 472 864 b 599 811 521 864 563 846 b 651 683 634 776 651 733 b 599 557 651 634 634 592 b 472 504 563 522 521 504 l 239 504 l 239 864 m 129 0 l 239 0 l 239 396 l 463 396 l 642 0 l 760 0 l 571 418 b 708 519 626 438 672 471 b 760 683 743 568 760 622 b 675 889 760 763 731 831 b 472 972 619 944 552 972 l 129 972 "},"ŗ":{"ha":465,"x_min":0,"x_max":0,"o":"m 135 -278 l 217 -83 l 94 -83 l 39 -278 m 97 0 l 206 0 l 206 365 b 281 535 208 433 233 489 b 451 603 329 580 386 603 l 451 711 b 306 676 397 711 348 700 b 225 617 276 662 249 642 b 214 605 221 613 218 609 b 203 592 210 601 206 596 l 203 694 l 97 694 "},"Ř":{"ha":821,"x_min":0,"x_max":0,"o":"m 325 1036 l 468 1036 l 632 1215 l 499 1215 l 397 1113 l 294 1215 l 161 1215 m 472 864 b 599 811 521 864 563 846 b 651 683 634 776 651 733 b 599 557 651 634 634 592 b 472 504 563 522 521 504 l 239 504 l 239 864 m 129 0 l 239 0 l 239 396 l 463 396 l 642 0 l 760 0 l 571 418 b 708 519 626 438 672 471 b 760 683 743 568 760 622 b 675 889 760 763 731 831 b 472 972 619 944 552 972 l 129 972 "},"ř":{"ha":465,"x_min":0,"x_max":0,"o":"m 189 793 l 331 793 l 496 972 l 364 972 l 260 869 l 156 972 l 24 972 m 97 0 l 206 0 l 206 365 b 281 535 208 433 233 489 b 451 603 329 580 386 603 l 451 711 b 306 676 397 711 348 700 b 225 617 276 662 249 642 b 214 605 221 613 218 609 b 203 592 210 601 206 596 l 203 694 l 97 694 "},"Ś":{"ha":751,"x_min":0,"x_max":0,"o":"m 431 1036 l 600 1215 l 451 1215 l 301 1036 m 368 989 b 163 914 285 989 216 964 b 101 830 136 889 115 861 b 81 729 88 799 81 765 b 160 557 81 656 107 599 b 364 471 213 514 281 486 b 515 404 425 460 475 438 b 572 281 553 371 572 330 b 514 147 572 227 553 182 b 368 92 474 110 425 92 b 246 126 322 92 281 103 b 175 217 213 149 189 179 l 71 183 b 182 39 90 123 127 75 b 368 -17 236 2 298 -17 b 590 69 457 -17 531 12 b 682 281 651 128 682 198 b 594 478 682 361 653 427 b 371 578 536 530 462 563 b 225 640 303 590 255 611 b 189 729 201 663 189 693 b 239 838 189 774 206 810 b 368 881 271 866 314 881 b 476 854 412 881 448 872 b 536 779 505 837 525 812 l 640 814 b 540 942 623 868 589 910 b 368 989 492 973 435 989 "},"ś":{"ha":600,"x_min":0,"x_max":0,"o":"m 351 793 l 522 972 l 374 972 l 222 793 m 515 581 b 436 676 499 621 472 653 b 301 711 398 700 353 711 b 144 656 238 711 186 693 b 82 515 103 619 82 573 b 138 390 82 464 100 423 b 203 348 157 375 179 360 b 283 318 228 335 255 325 b 326 306 299 314 313 310 b 363 289 339 301 351 295 b 433 203 410 267 433 238 b 394 121 434 171 421 144 b 293 88 369 99 335 88 b 160 165 229 88 185 113 l 58 129 b 150 22 79 84 109 48 b 294 -17 191 -4 239 -17 b 469 44 364 -17 422 4 b 544 201 519 86 544 138 b 485 339 544 256 525 302 b 325 418 450 372 397 399 b 290 429 313 422 301 425 b 257 440 278 433 267 437 b 192 514 213 460 192 484 b 221 581 191 541 200 563 b 301 607 239 598 266 607 b 372 590 328 607 352 601 b 413 544 393 578 406 563 l 515 581 "},"Ŝ":{"ha":751,"x_min":0,"x_max":0,"o":"m 267 1036 l 369 1140 l 472 1036 l 606 1036 l 436 1215 l 303 1215 l 133 1036 m 368 989 b 163 914 285 989 216 964 b 101 830 136 889 115 861 b 81 729 88 799 81 765 b 160 557 81 656 107 599 b 364 471 213 514 281 486 b 515 404 425 460 475 438 b 572 281 553 371 572 330 b 514 147 572 227 553 182 b 368 92 474 110 425 92 b 246 126 322 92 281 103 b 175 217 213 149 189 179 l 71 183 b 182 39 90 123 127 75 b 368 -17 236 2 298 -17 b 590 69 457 -17 531 12 b 682 281 651 128 682 198 b 594 478 682 361 653 427 b 371 578 536 530 462 563 b 225 640 303 590 255 611 b 189 729 201 663 189 693 b 239 838 189 774 206 810 b 368 881 271 866 314 881 b 476 854 412 881 448 872 b 536 779 505 837 525 812 l 640 814 b 540 942 623 868 589 910 b 368 989 492 973 435 989 "},"ŝ":{"ha":600,"x_min":0,"x_max":0,"o":"m 200 793 l 303 897 l 404 793 l 538 793 l 369 972 l 235 972 l 67 793 m 515 581 b 436 676 499 621 472 653 b 301 711 398 700 353 711 b 144 656 238 711 186 693 b 82 515 103 619 82 573 b 138 390 82 464 100 423 b 203 348 157 375 179 360 b 283 318 228 335 255 325 b 326 306 299 314 313 310 b 363 289 339 301 351 295 b 433 203 410 267 433 238 b 394 121 434 171 421 144 b 293 88 369 99 335 88 b 160 165 229 88 185 113 l 58 129 b 150 22 79 84 109 48 b 294 -17 191 -4 239 -17 b 469 44 364 -17 422 4 b 544 201 519 86 544 138 b 485 339 544 256 525 302 b 325 418 450 372 397 399 b 290 429 313 422 301 425 b 257 440 278 433 267 437 b 192 514 213 460 192 484 b 221 581 191 541 200 563 b 301 607 239 598 266 607 b 372 590 328 607 352 601 b 413 544 393 578 406 563 l 515 581 "},"Ş":{"ha":751,"x_min":0,"x_max":0,"o":"m 394 4 b 439 -33 413 -3 428 -16 b 457 -92 451 -52 457 -71 b 425 -165 457 -120 446 -145 b 350 -197 405 -187 380 -197 b 288 -176 327 -197 306 -190 l 272 -194 b 228 -250 262 -206 247 -225 b 350 -292 263 -278 304 -292 b 492 -233 406 -292 453 -272 b 550 -92 531 -194 550 -146 b 485 57 550 -32 528 17 m 368 989 b 163 914 285 989 216 964 b 101 830 136 889 115 861 b 81 729 88 799 81 765 b 160 557 81 656 107 599 b 364 471 213 514 281 486 b 515 404 425 460 475 438 b 572 281 553 371 572 330 b 514 147 572 227 553 182 b 368 92 474 110 425 92 b 246 126 322 92 281 103 b 175 217 213 149 189 179 l 71 183 b 182 39 90 123 127 75 b 368 -17 236 2 298 -17 b 590 69 457 -17 531 12 b 682 281 651 128 682 198 b 594 478 682 361 653 427 b 371 578 536 530 462 563 b 225 640 303 590 255 611 b 189 729 201 663 189 693 b 239 838 189 774 206 810 b 368 881 271 866 314 881 b 476 854 412 881 448 872 b 536 779 505 837 525 812 l 640 814 b 540 942 623 868 589 910 b 368 989 492 973 435 989 "},"ş":{"ha":600,"x_min":0,"x_max":0,"o":"m 314 4 b 358 -33 332 -3 347 -16 b 375 -92 369 -50 375 -69 b 344 -165 375 -120 365 -145 b 268 -197 323 -187 298 -197 b 206 -176 245 -197 224 -190 l 190 -194 b 147 -250 180 -206 166 -225 b 268 -292 181 -278 222 -292 b 410 -232 324 -292 371 -272 b 468 -92 449 -193 468 -146 b 403 58 468 -32 446 18 m 515 581 b 436 676 499 621 472 653 b 301 711 398 700 353 711 b 144 656 238 711 186 693 b 82 515 103 619 82 573 b 138 390 82 464 100 423 b 203 348 157 375 179 360 b 283 318 228 335 255 325 b 326 306 299 314 313 310 b 363 289 339 301 351 295 b 433 203 410 267 433 238 b 394 121 434 171 421 144 b 293 88 369 99 335 88 b 160 165 229 88 185 113 l 58 129 b 150 22 79 84 109 48 b 294 -17 191 -4 239 -17 b 469 44 364 -17 422 4 b 544 201 519 86 544 138 b 485 339 544 256 525 302 b 325 418 450 372 397 399 b 290 429 313 422 301 425 b 257 440 278 433 267 437 b 192 514 213 460 192 484 b 221 581 191 541 200 563 b 301 607 239 598 266 607 b 372 590 328 607 352 601 b 413 544 393 578 406 563 l 515 581 "},"Š":{"ha":751,"x_min":0,"x_max":0,"o":"m 303 1036 l 444 1036 l 610 1215 l 476 1215 l 374 1113 l 269 1215 l 139 1215 m 368 989 b 163 914 285 989 216 964 b 101 830 136 889 115 861 b 81 729 88 799 81 765 b 160 557 81 656 107 599 b 364 471 213 514 281 486 b 515 404 425 460 475 438 b 572 281 553 371 572 330 b 514 147 572 227 553 182 b 368 92 474 110 425 92 b 246 126 322 92 281 103 b 175 217 213 149 189 179 l 71 183 b 182 39 90 123 127 75 b 368 -17 236 2 298 -17 b 590 69 457 -17 531 12 b 682 281 651 128 682 198 b 594 478 682 361 653 427 b 371 578 536 530 462 563 b 225 640 303 590 255 611 b 189 729 201 663 189 693 b 239 838 189 774 206 810 b 368 881 271 866 314 881 b 476 854 412 881 448 872 b 536 779 505 837 525 812 l 640 814 b 540 942 623 868 589 910 b 368 989 492 973 435 989 "},"š":{"ha":600,"x_min":0,"x_max":0,"o":"m 233 793 l 375 793 l 540 972 l 407 972 l 304 869 l 201 972 l 69 972 m 515 581 b 436 676 499 621 472 653 b 301 711 398 700 353 711 b 144 656 238 711 186 693 b 82 515 103 619 82 573 b 138 390 82 464 100 423 b 203 348 157 375 179 360 b 283 318 228 335 255 325 b 326 306 299 314 313 310 b 363 289 339 301 351 295 b 433 203 410 267 433 238 b 394 121 434 171 421 144 b 293 88 369 99 335 88 b 160 165 229 88 185 113 l 58 129 b 150 22 79 84 109 48 b 294 -17 191 -4 239 -17 b 469 44 364 -17 422 4 b 544 201 519 86 544 138 b 485 339 544 256 525 302 b 325 418 450 372 397 399 b 290 429 313 422 301 425 b 257 440 278 433 267 437 b 192 514 213 460 192 484 b 221 581 191 541 200 563 b 301 607 239 598 266 607 b 372 590 328 607 352 601 b 413 544 393 578 406 563 l 515 581 "},"Ţ":{"ha":767,"x_min":0,"x_max":0,"o":"m 15 864 l 329 864 l 329 0 l 439 0 l 439 864 l 751 864 l 751 972 l 15 972 m 346 14 b 371 -2 356 10 364 5 b 389 -25 377 -9 383 -17 b 407 -82 401 -44 407 -62 b 376 -157 407 -112 397 -137 b 300 -189 356 -178 331 -189 b 238 -167 278 -189 257 -181 l 222 -185 b 179 -240 212 -198 198 -216 b 300 -282 213 -268 254 -282 b 442 -224 356 -282 403 -262 b 501 -82 481 -185 501 -137 b 435 67 501 -23 479 27 "},"ţ":{"ha":506,"x_min":0,"x_max":0,"o":"m 146 694 l 25 694 l 25 586 l 146 586 l 146 285 b 229 85 146 207 174 140 b 431 0 285 28 352 0 l 465 0 l 465 108 l 431 108 b 306 161 381 108 340 126 b 254 285 271 194 254 236 l 254 586 l 467 586 l 467 694 l 254 694 l 254 911 l 146 911 m 376 18 b 421 -22 394 10 409 -4 b 438 -78 432 -39 438 -57 b 407 -154 438 -108 427 -134 b 331 -185 386 -175 360 -185 b 268 -162 307 -185 287 -177 l 253 -181 b 208 -237 243 -194 228 -212 b 331 -279 244 -265 284 -279 b 472 -219 386 -279 433 -259 b 531 -78 511 -181 531 -133 b 465 71 531 -19 509 30 "},"Ť":{"ha":767,"x_min":0,"x_max":0,"o":"m 310 1036 l 451 1036 l 617 1215 l 485 1215 l 381 1113 l 276 1215 l 146 1215 m 15 864 l 329 864 l 329 0 l 439 0 l 439 864 l 751 864 l 751 972 l 15 972 "},"ť":{"ha":540,"x_min":0,"x_max":0,"o":"m 146 694 l 25 694 l 25 586 l 146 586 l 146 285 b 229 85 146 207 174 140 b 431 0 285 28 352 0 l 465 0 l 465 108 l 431 108 b 306 161 381 108 340 126 b 254 285 271 194 254 236 l 254 586 l 467 586 l 467 694 l 254 694 l 254 911 l 146 911 m 417 767 l 504 1001 l 388 1001 l 321 767 "},"Ŧ":{"ha":767,"x_min":0,"x_max":0,"o":"m 15 864 l 329 864 l 329 0 l 439 0 l 439 864 l 751 864 l 751 972 l 15 972 m 611 406 l 611 514 l 163 514 l 163 406 "},"ŧ":{"ha":506,"x_min":0,"x_max":0,"o":"m 146 694 l 25 694 l 25 586 l 146 586 l 146 285 b 229 85 146 207 174 140 b 431 0 285 28 352 0 l 465 0 l 465 108 l 431 108 b 306 161 381 108 340 126 b 254 285 271 194 254 236 l 254 586 l 467 586 l 467 694 l 254 694 l 254 911 l 146 911 m 460 360 l 460 453 l 31 453 l 31 360 "},"Ũ":{"ha":982,"x_min":0,"x_max":0,"o":"m 115 401 b 224 99 115 277 151 176 b 490 -17 295 22 384 -17 b 758 99 598 -17 687 22 b 840 233 794 138 822 182 b 867 401 858 283 867 339 l 867 972 l 758 972 l 758 401 b 681 178 758 308 732 233 b 490 92 629 120 565 92 b 301 178 416 92 353 120 b 225 401 250 233 225 308 l 225 972 l 115 972 m 571 1024 b 668 1065 609 1024 641 1038 b 715 1167 694 1091 710 1125 l 621 1167 b 571 1114 615 1131 599 1114 b 536 1129 558 1114 546 1119 b 521 1145 531 1134 526 1139 b 504 1164 515 1151 510 1157 b 401 1214 475 1197 441 1214 b 303 1172 365 1214 332 1200 b 254 1072 274 1144 258 1111 l 350 1072 b 403 1124 358 1106 376 1124 b 435 1108 414 1124 425 1119 b 449 1092 439 1104 444 1098 b 464 1074 453 1086 458 1080 b 571 1024 492 1040 527 1024 "},"ũ":{"ha":756,"x_min":0,"x_max":0,"o":"m 79 325 b 165 78 79 223 108 141 b 379 -17 224 15 295 -17 b 592 78 463 -17 533 15 b 678 325 649 141 678 223 l 678 694 l 569 694 l 569 324 b 514 156 569 254 551 198 b 379 92 478 113 433 92 b 243 156 324 92 278 113 b 188 324 206 198 188 254 l 188 694 l 79 694 m 464 786 b 561 826 502 786 534 800 b 608 928 587 852 603 886 l 514 928 b 464 875 508 893 492 875 b 429 890 451 875 439 880 b 414 906 425 895 419 900 b 397 925 408 912 403 919 b 294 975 369 958 334 975 b 196 933 258 975 225 961 b 147 833 167 906 151 872 l 243 833 b 296 886 251 869 269 886 b 328 871 307 886 318 881 b 342 855 332 866 337 861 b 357 836 346 849 351 843 b 464 786 385 803 420 786 "},"Ū":{"ha":982,"x_min":0,"x_max":0,"o":"m 706 1042 l 706 1146 l 281 1146 l 281 1042 m 115 401 b 224 99 115 277 151 176 b 490 -17 295 22 384 -17 b 758 99 598 -17 687 22 b 840 233 794 138 822 182 b 867 401 858 283 867 339 l 867 972 l 758 972 l 758 401 b 681 178 758 308 732 233 b 490 92 629 120 565 92 b 301 178 416 92 353 120 b 225 401 250 233 225 308 l 225 972 l 115 972 "},"ū":{"ha":756,"x_min":0,"x_max":0,"o":"m 593 799 l 593 903 l 167 903 l 167 799 m 79 325 b 165 78 79 223 108 141 b 379 -17 224 15 295 -17 b 592 78 463 -17 533 15 b 678 325 649 141 678 223 l 678 694 l 569 694 l 569 324 b 514 156 569 254 551 198 b 379 92 478 113 433 92 b 243 156 324 92 278 113 b 188 324 206 198 188 254 l 188 694 l 79 694 "},"Ŭ":{"ha":982,"x_min":0,"x_max":0,"o":"m 282 1215 b 342 1082 282 1163 302 1119 b 493 1028 381 1046 432 1028 b 643 1082 554 1028 604 1046 b 704 1215 684 1120 704 1164 l 606 1215 b 574 1150 606 1188 595 1167 b 493 1124 551 1132 525 1124 b 414 1150 463 1124 436 1132 b 381 1215 392 1167 381 1188 l 282 1215 m 115 401 b 224 99 115 277 151 176 b 490 -17 295 22 384 -17 b 758 99 598 -17 687 22 b 840 233 794 138 822 182 b 867 401 858 283 867 339 l 867 972 l 758 972 l 758 401 b 681 178 758 308 732 233 b 490 92 629 120 565 92 b 301 178 416 92 353 120 b 225 401 250 233 225 308 l 225 972 l 115 972 "},"ŭ":{"ha":756,"x_min":0,"x_max":0,"o":"m 176 972 b 238 839 176 920 197 876 b 389 783 276 802 327 783 b 538 839 449 783 499 802 b 600 972 579 877 600 921 l 500 972 b 468 907 500 945 489 924 b 388 881 446 889 419 881 b 308 907 357 881 331 889 b 275 972 286 924 275 945 l 176 972 m 79 325 b 165 78 79 223 108 141 b 379 -17 224 15 295 -17 b 592 78 463 -17 533 15 b 678 325 649 141 678 223 l 678 694 l 569 694 l 569 324 b 514 156 569 254 551 198 b 379 92 478 113 433 92 b 243 156 324 92 278 113 b 188 324 206 198 188 254 l 188 694 l 79 694 "},"Ů":{"ha":982,"x_min":0,"x_max":0,"o":"m 492 1274 b 401 1235 456 1274 426 1261 b 364 1144 376 1210 364 1180 b 401 1054 364 1109 376 1079 b 492 1015 427 1028 457 1015 b 583 1054 527 1015 557 1028 b 622 1144 609 1079 622 1109 b 583 1235 622 1180 609 1210 b 492 1274 558 1261 528 1274 m 492 1199 b 531 1182 506 1199 519 1193 b 547 1144 542 1172 547 1159 b 531 1107 547 1131 542 1118 b 492 1090 519 1096 506 1090 b 454 1107 478 1090 465 1096 b 439 1144 444 1118 439 1131 b 454 1182 439 1159 444 1172 b 492 1199 465 1193 478 1199 m 115 401 b 224 99 115 277 151 176 b 490 -17 295 22 384 -17 b 758 99 598 -17 687 22 b 840 233 794 138 822 182 b 867 401 858 283 867 339 l 867 972 l 758 972 l 758 401 b 681 178 758 308 732 233 b 490 92 629 120 565 92 b 301 178 416 92 353 120 b 225 401 250 233 225 308 l 225 972 l 115 972 "},"ů":{"ha":756,"x_min":0,"x_max":0,"o":"m 386 1031 b 296 992 351 1031 321 1018 b 258 901 271 967 258 937 b 296 810 258 865 271 835 b 386 772 321 785 351 772 b 478 810 422 772 453 785 b 515 901 503 835 515 865 b 478 992 515 937 503 967 b 386 1031 453 1018 422 1031 m 386 956 b 425 939 401 956 414 950 b 440 901 435 929 440 916 b 425 864 440 887 435 874 b 386 847 414 853 401 847 b 349 864 372 847 360 853 b 332 901 338 875 332 888 b 349 939 332 916 338 929 b 386 956 360 950 372 956 m 79 325 b 165 78 79 223 108 141 b 379 -17 224 15 295 -17 b 592 78 463 -17 533 15 b 678 325 649 141 678 223 l 678 694 l 569 694 l 569 324 b 514 156 569 254 551 198 b 379 92 478 113 433 92 b 243 156 324 92 278 113 b 188 324 206 198 188 254 l 188 694 l 79 694 "},"Ű":{"ha":982,"x_min":0,"x_max":0,"o":"m 674 1036 l 819 1215 l 676 1215 l 547 1036 m 432 1036 l 576 1215 l 433 1215 l 306 1036 m 115 401 b 224 99 115 277 151 176 b 490 -17 295 22 384 -17 b 758 99 598 -17 687 22 b 840 233 794 138 822 182 b 867 401 858 283 867 339 l 867 972 l 758 972 l 758 401 b 681 178 758 308 732 233 b 490 92 629 120 565 92 b 301 178 416 92 353 120 b 225 401 250 233 225 308 l 225 972 l 115 972 "},"ű":{"ha":756,"x_min":0,"x_max":0,"o":"m 571 793 l 715 972 l 572 972 l 443 793 m 328 793 l 472 972 l 331 972 l 201 793 m 79 325 b 165 78 79 223 108 141 b 379 -17 224 15 295 -17 b 592 78 463 -17 533 15 b 678 325 649 141 678 223 l 678 694 l 569 694 l 569 324 b 514 156 569 254 551 198 b 379 92 478 113 433 92 b 243 156 324 92 278 113 b 188 324 206 198 188 254 l 188 694 l 79 694 "},"Ų":{"ha":982,"x_min":0,"x_max":0,"o":"m 115 401 b 224 99 115 277 151 176 b 490 -17 295 22 384 -17 b 758 99 598 -17 687 22 b 840 233 794 138 822 182 b 867 401 858 283 867 339 l 867 972 l 758 972 l 758 401 b 681 178 758 308 732 233 b 490 92 629 120 565 92 b 301 178 416 92 353 120 b 225 401 250 233 225 308 l 225 972 l 115 972 m 642 -161 b 639 -165 641 -162 640 -163 b 635 -168 638 -166 637 -167 b 596 -185 624 -179 611 -185 b 557 -168 581 -185 568 -179 b 540 -129 546 -158 540 -145 b 557 -90 540 -113 546 -100 l 685 38 l 583 38 b 536 10 566 29 550 20 b 501 -19 522 1 511 -9 b 451 -132 468 -53 451 -90 b 493 -232 451 -171 465 -204 b 596 -275 522 -261 556 -275 b 699 -232 636 -275 670 -261 b 708 -224 701 -229 704 -226 b 715 -214 711 -221 713 -218 "},"ų":{"ha":756,"x_min":0,"x_max":0,"o":"m 472 -181 b 469 -184 471 -181 470 -183 b 465 -189 469 -185 467 -187 b 428 -204 455 -199 443 -204 b 388 -189 412 -204 399 -199 b 372 -149 377 -178 372 -164 b 376 -128 372 -141 373 -134 b 388 -110 378 -122 382 -116 l 517 18 l 414 18 b 332 -39 379 0 351 -19 b 282 -151 299 -72 282 -110 b 324 -251 282 -190 296 -224 b 428 -294 352 -280 387 -294 b 529 -251 468 -294 501 -280 b 538 -243 532 -249 535 -246 b 547 -233 541 -240 544 -237 m 79 325 b 165 78 79 223 108 141 b 379 -17 224 15 295 -17 b 592 78 463 -17 533 15 b 678 325 649 141 678 223 l 678 694 l 569 694 l 569 324 b 514 156 569 254 551 198 b 379 92 478 113 433 92 b 243 156 324 92 278 113 b 188 324 206 198 188 254 l 188 694 l 79 694 "},"Ŵ":{"ha":1276,"x_min":0,"x_max":0,"o":"m 533 1029 l 635 1133 l 738 1029 l 872 1029 l 703 1208 l 568 1208 l 400 1029 m 924 200 l 697 972 l 581 972 l 356 200 l 129 972 l 13 972 l 299 0 l 413 0 l 639 769 l 867 0 l 981 0 l 1265 972 l 1147 972 "},"ŵ":{"ha":1075,"x_min":0,"x_max":0,"o":"m 428 793 l 531 897 l 633 793 l 765 793 l 597 972 l 463 972 l 294 793 m 763 171 l 596 694 l 481 694 l 296 171 l 128 694 l 14 694 l 236 0 l 350 0 l 536 524 l 704 0 l 817 0 l 1063 694 l 949 694 "},"Ŷ":{"ha":754,"x_min":0,"x_max":0,"o":"m 272 1029 l 375 1133 l 476 1029 l 610 1029 l 442 1208 l 307 1208 l 139 1029 m 324 443 l 324 0 l 432 0 l 432 443 l 743 972 l 614 972 l 378 568 l 142 972 l 13 972 "},"ŷ":{"ha":728,"x_min":0,"x_max":0,"o":"m 258 793 l 361 897 l 464 793 l 596 793 l 428 972 l 294 972 l 125 793 m 307 1 l 276 -68 b 206 -154 261 -105 237 -134 b 94 -186 172 -175 135 -186 l 44 -186 l 44 -294 l 94 -294 b 264 -244 156 -294 213 -278 b 331 -186 290 -228 312 -208 b 376 -111 349 -164 364 -139 l 717 694 l 599 694 l 364 142 l 131 694 l 13 694 "},"Ÿ":{"ha":754,"x_min":0,"x_max":0,"o":"m 206 1231 b 158 1211 186 1231 170 1224 b 139 1164 145 1199 139 1183 b 158 1117 139 1145 145 1130 b 206 1097 171 1104 187 1097 b 253 1117 224 1097 240 1104 b 272 1164 266 1130 272 1145 b 253 1211 272 1182 266 1198 b 206 1231 241 1224 225 1231 m 547 1231 b 501 1211 529 1231 513 1224 b 481 1164 488 1198 481 1182 b 501 1117 481 1145 488 1130 b 547 1097 514 1104 530 1097 b 596 1117 566 1097 582 1104 b 614 1164 608 1130 614 1145 b 596 1211 614 1183 608 1199 b 547 1231 583 1224 567 1231 m 324 443 l 324 0 l 432 0 l 432 443 l 743 972 l 614 972 l 378 568 l 142 972 l 13 972 "},"Ź":{"ha":838,"x_min":0,"x_max":0,"o":"m 488 1036 l 658 1215 l 510 1215 l 358 1036 m 769 0 l 769 108 l 204 108 l 774 864 l 774 972 l 69 972 l 69 864 l 633 864 l 65 108 l 65 0 "},"ź":{"ha":656,"x_min":0,"x_max":0,"o":"m 363 793 l 532 972 l 383 972 l 233 793 m 594 0 l 594 108 l 207 108 l 594 586 l 594 694 l 63 694 l 63 586 l 450 586 l 63 108 l 63 0 "},"Ż":{"ha":838,"x_min":0,"x_max":0,"o":"m 513 1168 b 493 1218 513 1188 506 1205 b 443 1238 480 1231 463 1238 b 393 1218 423 1238 406 1231 b 374 1168 380 1205 374 1188 b 393 1119 374 1149 380 1132 b 443 1099 407 1106 424 1099 b 493 1119 463 1099 479 1106 b 513 1168 506 1132 513 1149 m 769 0 l 769 108 l 204 108 l 774 864 l 774 972 l 69 972 l 69 864 l 633 864 l 65 108 l 65 0 "},"ż":{"ha":656,"x_min":0,"x_max":0,"o":"m 399 925 b 379 975 399 945 392 962 b 329 994 366 988 350 994 b 279 975 309 994 292 988 b 260 925 266 962 260 945 b 279 876 260 906 266 889 b 329 856 293 863 310 856 b 379 876 349 856 365 863 b 399 925 392 889 399 906 m 594 0 l 594 108 l 207 108 l 594 586 l 594 694 l 63 694 l 63 586 l 450 586 l 63 108 l 63 0 "},"Ž":{"ha":838,"x_min":0,"x_max":0,"o":"m 372 1036 l 514 1036 l 678 1215 l 546 1215 l 443 1113 l 340 1215 l 207 1215 m 769 0 l 769 108 l 204 108 l 774 864 l 774 972 l 69 972 l 69 864 l 633 864 l 65 108 l 65 0 "},"ž":{"ha":656,"x_min":0,"x_max":0,"o":"m 258 793 l 400 793 l 564 972 l 432 972 l 329 869 l 226 972 l 93 972 m 594 0 l 594 108 l 207 108 l 594 586 l 594 694 l 63 694 l 63 586 l 450 586 l 63 108 l 63 0 "},"ſ":{"ha":431,"x_min":0,"x_max":0,"o":"m 347 992 b 183 924 283 992 229 969 b 115 761 138 879 115 825 l 115 0 l 225 0 l 225 761 b 261 847 225 794 237 823 b 347 883 284 871 313 883 l 425 883 l 425 992 l 347 992 "},"Ɔ":{"ha":936,"x_min":0,"x_max":0,"o":"m 396 989 b 738 842 535 989 649 940 b 838 681 782 794 816 740 b 872 486 861 621 872 556 b 838 292 872 416 861 351 b 738 131 816 234 782 180 b 396 -17 649 32 535 -17 b 203 25 326 -17 262 -3 b 120 73 174 38 147 54 b 49 139 94 92 70 114 l 126 217 b 396 92 198 133 288 92 b 658 207 502 92 590 130 b 764 486 729 285 764 378 b 658 765 764 594 729 687 b 396 881 590 842 502 881 b 126 756 288 880 198 838 l 49 835 b 120 900 70 860 94 881 b 203 949 147 919 174 935 b 296 979 232 963 263 973 b 396 989 328 986 362 989 "},"Ǝ":{"ha":821,"x_min":0,"x_max":0,"o":"m 129 0 l 129 108 l 597 108 l 597 442 l 219 442 l 219 551 l 597 551 l 597 864 l 129 864 l 129 972 l 707 972 l 707 0 "},"Ə":{"ha":1076,"x_min":0,"x_max":0,"o":"m 536 989 b 436 979 502 989 469 986 b 343 949 404 973 373 963 b 260 900 314 935 287 919 b 188 835 233 881 209 860 l 267 756 b 536 881 338 838 428 880 b 779 783 632 880 713 847 b 897 540 847 717 886 636 l 61 540 l 61 486 b 194 131 61 347 106 229 b 536 -17 284 32 398 -17 b 875 128 673 -17 786 31 b 1011 486 966 226 1011 345 b 878 842 1011 625 967 744 b 536 989 789 940 675 989 m 896 432 b 779 189 886 337 847 256 b 536 92 713 124 632 92 b 293 189 441 92 360 124 b 176 432 225 256 187 337 "},"ƒ":{"ha":546,"x_min":0,"x_max":0,"o":"m 192 -1 b 136 -137 192 -54 173 -100 b -1 -196 97 -176 51 -196 l -1 -304 b 213 -215 82 -304 153 -275 b 301 -1 272 -156 301 -85 l 301 10 l 192 10 m 424 1001 b 260 933 360 1001 305 979 b 192 771 214 888 192 834 l 192 704 l 65 704 l 65 594 l 192 594 l 192 10 l 301 10 l 301 594 l 501 594 l 501 704 l 301 704 l 301 771 b 336 857 301 804 313 833 b 424 892 360 880 389 892 l 501 892 l 501 1001 l 424 1001 "},"Ɲ":{"ha":1014,"x_min":0,"x_max":0,"o":"m 129 0 l 239 0 l 239 778 l 776 0 l 885 0 l 885 972 l 776 972 l 776 194 l 239 972 l 129 972 m 129 -31 b 83 -140 129 -73 114 -110 b -26 -186 54 -171 17 -186 l -65 -186 l -65 -296 l -26 -296 b 161 -217 47 -296 109 -269 b 239 -31 213 -165 239 -103 l 239 0 l 129 0 "},"Ơ":{"ha":1076,"x_min":0,"x_max":0,"o":"m 918 672 b 1010 726 951 681 982 700 b 1057 794 1030 748 1046 770 b 1075 871 1068 817 1074 843 b 1025 1004 1076 924 1059 968 l 954 940 b 978 869 973 920 981 896 b 940 796 974 842 962 817 b 920 779 934 789 927 784 b 897 767 913 775 906 770 m 539 881 b 800 765 644 881 731 842 b 904 486 869 687 904 594 b 800 207 904 378 869 285 b 539 92 731 130 644 92 b 276 207 432 92 345 130 b 172 486 207 285 172 378 b 198 638 172 541 181 591 b 276 765 215 684 241 726 b 539 881 345 842 432 881 m 539 989 b 197 842 401 989 287 940 b 64 486 108 744 64 626 b 197 129 64 346 108 227 b 539 -17 287 32 401 -17 b 878 128 676 -17 789 31 b 1014 486 969 226 1014 345 b 879 843 1014 626 969 745 b 539 989 790 940 677 989 "},"ơ":{"ha":800,"x_min":0,"x_max":0,"o":"m 674 422 b 733 460 695 430 715 442 b 799 606 776 503 798 552 b 750 739 800 658 784 703 l 678 674 b 701 604 697 654 705 631 b 664 529 699 575 686 550 b 653 519 661 525 658 522 b 640 513 649 517 645 514 m 401 603 b 569 529 470 603 526 578 b 635 347 613 480 635 419 b 569 165 635 276 613 215 b 401 92 526 116 470 92 b 231 165 331 92 274 116 b 165 347 187 215 165 276 b 231 529 165 419 187 480 b 401 603 274 578 331 603 m 401 711 b 154 606 301 711 219 676 b 57 347 89 535 57 449 b 154 89 57 246 89 160 b 401 -17 219 19 301 -17 b 646 89 500 -17 581 19 b 744 347 712 160 744 246 b 646 606 744 449 712 535 b 401 711 581 676 500 711 "},"Ư":{"ha":982,"x_min":0,"x_max":0,"o":"m 824 869 b 914 924 857 879 887 897 b 963 992 935 946 951 969 b 981 1069 974 1016 980 1042 b 931 1203 981 1122 965 1167 l 858 1138 b 883 1068 878 1118 886 1095 b 844 993 880 1039 867 1014 b 825 976 839 987 832 981 b 803 965 818 972 810 968 m 115 401 b 224 99 115 277 151 176 b 490 -17 295 22 384 -17 b 758 99 598 -17 687 22 b 867 401 831 176 867 277 l 867 972 l 758 972 l 758 401 b 681 178 758 308 732 233 b 490 92 629 120 565 92 b 301 178 416 92 353 120 b 225 401 250 233 225 308 l 225 972 l 115 972 "},"ư":{"ha":756,"x_min":0,"x_max":0,"o":"m 629 603 b 660 618 639 606 650 612 b 689 640 670 625 680 632 b 754 786 731 684 752 732 b 704 919 756 839 739 883 l 633 854 b 657 785 652 835 660 812 b 619 710 653 756 641 731 b 608 700 616 706 612 703 b 596 693 605 697 600 695 m 79 325 b 165 78 79 223 108 141 b 379 -17 224 15 295 -17 b 592 78 463 -17 533 15 b 678 325 649 141 678 223 l 678 694 l 569 694 l 569 324 b 555 228 569 288 565 256 b 514 156 545 200 531 176 b 453 108 496 134 476 118 b 379 92 431 97 406 92 b 243 156 324 92 278 113 b 188 324 206 198 188 254 l 188 694 l 79 694 "},"Ǎ":{"ha":856,"x_min":0,"x_max":0,"o":"m 354 1036 l 496 1036 l 661 1215 l 529 1215 l 425 1113 l 321 1215 l 190 1215 m 426 819 l 593 368 l 263 368 m 633 258 l 726 0 l 843 0 l 482 972 l 371 972 l 13 0 l 131 0 l 224 258 "},"ǎ":{"ha":835,"x_min":0,"x_max":0,"o":"m 344 793 l 486 793 l 650 972 l 518 972 l 415 869 l 311 972 l 179 972 m 635 588 b 625 602 631 592 628 597 b 614 617 622 607 619 612 b 399 711 560 680 488 711 b 153 606 300 711 218 676 b 57 347 89 535 57 449 b 153 89 57 246 89 160 b 399 -17 218 19 300 -17 b 614 78 489 -17 561 15 b 625 91 619 81 622 86 b 635 106 628 96 631 101 l 635 0 l 739 0 l 739 694 l 635 694 m 401 603 b 567 529 470 603 525 578 b 613 448 587 505 603 478 b 629 347 624 418 629 384 b 613 247 629 311 624 278 b 567 165 603 217 587 189 b 401 92 525 116 470 92 b 232 165 332 92 275 116 b 167 347 188 215 167 276 b 232 529 167 419 188 480 b 401 603 275 578 332 603 "},"ǝ":{"ha":760,"x_min":0,"x_max":0,"o":"m 51 347 b 73 204 51 295 59 248 b 138 88 87 161 109 122 b 371 -17 195 18 273 -17 b 617 89 469 -17 551 19 b 714 347 681 160 714 246 b 615 606 714 449 681 535 b 368 711 549 676 466 711 b 86 607 250 711 156 676 l 161 528 b 368 603 211 578 280 603 b 522 543 427 603 479 583 b 572 478 543 524 559 502 b 596 396 584 454 592 426 l 51 396 m 371 90 b 229 147 312 90 264 109 b 168 296 196 184 175 234 l 597 296 b 524 150 589 238 564 189 b 371 90 481 110 430 90 "},"Ǫ":{"ha":1076,"x_min":0,"x_max":0,"o":"m 586 -181 l 583 -184 l 578 -189 b 540 -204 568 -199 555 -204 b 501 -189 525 -204 513 -199 b 483 -149 489 -177 483 -163 b 501 -110 483 -135 489 -122 l 629 18 l 526 18 b 444 -39 491 0 464 -19 b 394 -151 411 -72 394 -110 b 436 -251 394 -190 408 -224 b 540 -294 465 -280 500 -294 b 642 -251 580 -294 614 -280 l 650 -243 b 658 -233 653 -240 656 -237 m 539 881 b 800 765 644 881 731 842 b 904 486 869 687 904 594 b 800 207 904 378 869 285 b 539 92 731 130 644 92 b 276 207 432 92 345 130 b 172 486 207 285 172 378 b 198 638 172 541 181 591 b 276 765 215 684 241 726 b 539 881 345 842 432 881 m 539 989 b 197 842 401 989 287 940 b 64 486 108 744 64 626 b 197 129 64 346 108 227 b 539 -17 287 32 401 -17 b 878 128 676 -17 789 31 b 1014 486 969 226 1014 345 b 879 843 1014 626 969 745 b 539 989 790 940 677 989 "},"ǫ":{"ha":800,"x_min":0,"x_max":0,"o":"m 451 -181 l 448 -184 b 444 -189 447 -185 445 -187 b 406 -204 433 -199 420 -204 b 367 -189 391 -204 378 -199 b 350 -149 356 -177 350 -163 b 367 -110 350 -135 356 -122 l 494 18 l 392 18 b 310 -39 356 0 329 -19 b 260 -151 276 -72 260 -110 b 303 -251 260 -190 274 -224 b 406 -294 331 -280 365 -294 b 507 -251 445 -294 479 -280 b 517 -243 511 -249 514 -246 b 524 -233 519 -240 522 -237 m 401 603 b 569 529 470 603 526 578 b 635 347 613 480 635 419 b 569 165 635 276 613 215 b 401 92 526 116 470 92 b 231 165 331 92 274 116 b 165 347 187 215 165 276 b 231 529 165 419 187 480 b 401 603 274 578 331 603 m 401 711 b 154 606 301 711 219 676 b 57 347 89 535 57 449 b 154 89 57 246 89 160 b 401 -17 219 19 301 -17 b 646 89 500 -17 581 19 b 744 347 712 160 744 246 b 646 606 744 449 712 535 b 401 711 581 676 500 711 "},"Ș":{"ha":751,"x_min":0,"x_max":0,"o":"m 356 -278 l 436 -83 l 315 -83 l 260 -278 m 368 989 b 163 914 285 989 216 964 b 101 830 136 889 115 861 b 81 729 88 799 81 765 b 160 557 81 656 107 599 b 364 471 213 514 281 486 b 515 404 425 460 475 438 b 572 281 553 371 572 330 b 514 147 572 227 553 182 b 368 92 474 110 425 92 b 246 126 322 92 281 103 b 175 217 213 149 189 179 l 71 183 b 182 39 90 123 127 75 b 368 -17 236 2 298 -17 b 590 69 457 -17 531 12 b 682 281 651 128 682 198 b 594 478 682 361 653 427 b 371 578 536 530 462 563 b 225 640 303 590 255 611 b 189 729 201 663 189 693 b 239 838 189 774 206 810 b 368 881 271 866 314 881 b 476 854 412 881 448 872 b 536 779 505 837 525 812 l 640 814 b 540 942 623 868 589 910 b 368 989 492 973 435 989 "},"ș":{"ha":600,"x_min":0,"x_max":0,"o":"m 288 -278 l 369 -83 l 247 -83 l 192 -278 m 515 581 b 436 676 499 621 472 653 b 301 711 398 700 353 711 b 144 656 238 711 186 693 b 82 515 103 619 82 573 b 138 390 82 464 100 423 b 203 348 157 375 179 360 b 283 318 228 335 255 325 b 326 306 299 314 313 310 b 363 289 339 301 351 295 b 433 203 410 267 433 238 b 394 121 434 171 421 144 b 293 88 369 99 335 88 b 160 165 229 88 185 113 l 58 129 b 150 22 79 84 109 48 b 294 -17 191 -4 239 -17 b 469 44 364 -17 422 4 b 544 201 519 86 544 138 b 485 339 544 256 525 302 b 325 418 450 372 397 399 b 290 429 313 422 301 425 b 257 440 278 433 267 437 b 192 514 213 460 192 484 b 221 581 191 541 200 563 b 301 607 239 598 266 607 b 372 590 328 607 352 601 b 413 544 393 578 406 563 l 515 581 "},"Ț":{"ha":767,"x_min":0,"x_max":0,"o":"m 368 -278 l 450 -83 l 329 -83 l 274 -278 m 15 864 l 329 864 l 329 0 l 439 0 l 439 864 l 751 864 l 751 972 l 15 972 "},"ț":{"ha":506,"x_min":0,"x_max":0,"o":"m 281 -278 l 363 -83 l 240 -83 l 185 -278 m 146 694 l 25 694 l 25 586 l 146 586 l 146 285 b 229 85 146 207 174 140 b 431 0 285 28 352 0 l 465 0 l 465 108 l 431 108 b 306 161 381 108 340 126 b 254 285 271 194 254 236 l 254 586 l 467 586 l 467 694 l 254 694 l 254 911 l 146 911 "},"ȷ":{"ha":338,"x_min":0,"x_max":0,"o":"m 122 4 b 65 -132 122 -49 103 -94 b -72 -190 27 -171 -19 -190 l -72 -299 b 143 -210 12 -299 84 -269 b 210 -111 173 -179 195 -146 b 232 4 225 -76 232 -37 l 232 694 l 122 694 "},"ɔ":{"ha":686,"x_min":0,"x_max":0,"o":"m 286 711 b 532 606 385 711 467 676 b 631 347 598 535 631 449 b 532 89 631 246 598 160 b 286 -17 467 19 385 -17 b 42 88 188 -17 106 18 l 117 167 b 286 92 162 117 219 92 b 456 165 356 92 412 116 b 521 347 499 215 521 276 b 456 529 521 419 499 480 b 286 603 412 578 356 603 b 117 528 219 603 162 578 l 42 607 b 286 711 106 676 188 711 "},"ə":{"ha":760,"x_min":0,"x_max":0,"o":"m 51 347 b 73 204 51 295 59 248 b 138 88 87 161 109 122 b 371 -17 195 18 273 -17 b 617 89 469 -17 551 19 b 714 347 681 160 714 246 b 615 606 714 449 681 535 b 368 711 549 676 466 711 b 86 607 250 711 156 676 l 161 528 b 368 603 211 578 280 603 b 522 543 427 603 479 583 b 572 478 543 524 559 502 b 596 396 584 454 592 426 l 51 396 m 371 90 b 229 147 312 90 264 109 b 168 296 196 184 175 234 l 597 296 b 524 150 589 238 564 189 b 371 90 481 110 430 90 "},"ɛ":{"ha":554,"x_min":0,"x_max":0,"o":"m 308 425 b 203 458 261 425 226 436 b 183 486 194 467 188 476 b 176 519 179 496 176 507 b 183 552 176 531 179 542 b 203 578 188 562 194 570 b 293 607 224 597 254 607 b 408 557 339 607 378 590 l 493 615 b 456 655 483 630 471 643 b 406 686 442 666 425 677 b 293 711 372 703 335 711 b 131 654 227 711 173 692 b 72 519 92 617 72 572 b 90 440 72 490 78 463 b 142 379 101 417 119 397 b 67 300 110 359 85 332 b 47 252 58 284 52 268 b 39 201 41 236 39 219 b 117 40 39 136 65 82 b 297 -17 167 2 227 -17 b 528 86 397 -17 474 18 l 442 149 b 297 92 403 112 355 93 b 186 124 249 92 212 102 b 149 201 161 143 149 169 b 158 247 149 218 152 233 b 188 285 165 260 175 273 b 308 322 213 310 253 322 l 415 322 l 415 425 "},"ɲ":{"ha":774,"x_min":0,"x_max":0,"o":"m 696 369 b 676 508 696 420 689 467 b 614 617 662 550 642 586 b 406 711 558 680 489 711 b 219 628 329 711 267 683 b 211 618 217 625 214 622 l 203 607 l 203 694 l 97 694 l 97 0 l 206 0 l 206 371 b 220 467 206 407 210 439 b 261 539 230 494 244 519 b 397 603 297 581 343 603 b 533 539 453 603 498 581 b 574 468 552 519 566 495 b 588 374 583 441 588 410 l 588 0 l 696 0 m 97 -31 b 51 -140 97 -73 82 -110 b -58 -186 21 -171 -16 -186 l -97 -186 l -97 -296 l -58 -296 b 128 -217 14 -296 76 -269 b 206 -31 180 -165 206 -103 l 206 0 l 97 0 "},"ʻ":{"ha":292,"x_min":0,"x_max":0,"o":"m 174 700 b 193 853 174 754 180 805 b 253 994 206 902 226 949 l 150 994 b 61 700 91 912 61 814 l 174 700 "},"ʼ":{"ha":292,"x_min":0,"x_max":0,"o":"m 100 692 l 192 692 l 210 994 l 83 994 "},"ˆ":{"ha":501,"x_min":0,"x_max":0,"o":"m 146 793 l 249 897 l 351 793 l 485 793 l 315 972 l 182 972 l 13 793 "},"ˇ":{"ha":501,"x_min":0,"x_max":0,"o":"m 178 793 l 319 793 l 483 972 l 351 972 l 249 869 l 146 972 l 13 972 "},"˘":{"ha":469,"x_min":0,"x_max":0,"o":"m 25 972 b 86 839 25 921 45 877 b 236 783 125 802 175 783 b 388 839 297 783 348 802 b 447 972 427 876 447 920 l 349 972 b 315 907 349 945 338 924 b 236 881 293 889 267 881 b 156 907 205 881 178 889 b 124 972 134 924 124 945 l 25 972 "},"˙":{"ha":138,"x_min":0,"x_max":0,"o":"m 139 925 b 118 975 139 944 132 961 b 69 994 105 988 89 994 b 21 975 50 994 34 988 b 0 925 7 961 0 944 b 21 876 0 906 7 890 b 69 856 35 863 51 856 b 118 876 88 856 104 863 b 139 925 132 890 139 906 "},"˚":{"ha":456,"x_min":0,"x_max":0,"o":"m 236 1031 b 146 993 201 1031 171 1018 b 108 901 121 968 108 938 b 146 811 108 866 121 836 b 236 774 171 786 201 774 b 328 811 272 774 303 786 b 357 853 341 824 350 838 b 367 901 363 868 367 884 b 328 993 367 937 354 967 b 236 1031 303 1018 272 1031 m 236 949 b 269 936 250 949 261 944 b 283 901 279 927 283 915 b 269 869 283 889 279 879 b 236 856 260 860 249 856 b 204 869 224 856 213 860 b 190 901 195 879 190 889 b 194 921 190 909 191 915 b 204 936 196 926 200 931 b 236 949 213 944 223 949 "},"˛":{"ha":340,"x_min":0,"x_max":0,"o":"m 254 -181 b 251 -184 253 -181 252 -183 b 249 -189 250 -185 250 -187 b 210 -204 238 -199 225 -204 b 171 -189 194 -204 181 -199 b 156 -149 161 -179 156 -165 b 158 -128 156 -141 156 -134 b 171 -110 160 -122 164 -116 l 299 18 l 196 18 b 150 -9 179 10 164 1 b 115 -39 136 -19 125 -29 b 64 -151 81 -72 64 -110 b 107 -251 64 -190 78 -224 b 210 -294 135 -280 169 -294 b 313 -251 250 -294 284 -280 b 322 -243 315 -249 318 -246 b 329 -233 325 -240 327 -237 "},"˜":{"ha":476,"x_min":0,"x_max":0,"o":"m 324 786 b 422 826 362 786 394 800 b 469 928 448 852 464 886 l 374 928 b 324 875 368 893 351 875 b 289 890 311 875 299 880 b 275 906 285 895 281 900 b 258 925 269 912 264 919 b 156 975 230 958 195 975 b 57 933 119 975 87 961 b 24 889 43 920 32 906 b 8 833 15 872 10 854 l 103 833 b 157 886 111 869 129 886 b 189 871 168 886 179 881 b 203 855 194 866 198 861 b 218 836 207 849 213 843 b 324 786 245 803 280 786 "},"˝":{"ha":546,"x_min":0,"x_max":0,"o":"m 392 793 l 536 972 l 394 972 l 265 793 m 150 793 l 294 972 l 151 972 l 24 793 "},"̀":{"ha":0,"x_min":0,"x_max":0,"o":"m 486 793 l 333 974 l 185 974 l 358 793 "},"́":{"ha":0,"x_min":0,"x_max":0,"o":"m 449 793 l 618 972 l 471 972 l 319 793 "},"̂":{"ha":0,"x_min":0,"x_max":0,"o":"m 133 793 l 236 897 l 339 793 l 472 793 l 303 972 l 169 972 l 0 793 "},"̃":{"ha":0,"x_min":0,"x_max":0,"o":"m 463 786 b 560 826 500 786 533 800 b 607 928 586 852 601 886 l 513 928 b 463 875 507 893 490 875 b 428 890 449 875 437 880 b 413 906 423 895 418 900 b 396 925 407 912 401 919 b 293 975 367 958 333 975 b 194 933 257 975 224 961 b 161 889 181 920 169 906 b 146 833 153 872 148 854 l 242 833 b 294 886 250 869 268 886 b 326 871 306 886 316 881 b 340 855 331 866 336 861 b 356 836 345 849 350 843 b 463 786 383 803 419 786 "},"̄":{"ha":0,"x_min":0,"x_max":0,"o":"m 421 799 l 421 903 l -4 903 l -4 799 "},"̆":{"ha":0,"x_min":0,"x_max":0,"o":"m 25 972 b 86 839 25 921 45 877 b 236 783 125 802 175 783 b 388 839 297 783 348 802 b 447 972 427 876 447 920 l 349 972 b 315 907 349 945 338 924 b 236 881 293 889 267 881 b 156 907 205 881 178 889 b 124 972 134 924 124 945 l 25 972 "},"̇":{"ha":0,"x_min":0,"x_max":0,"o":"m 139 925 b 118 975 139 944 132 961 b 69 994 105 988 89 994 b 21 975 50 994 34 988 b 0 925 7 961 0 944 b 21 876 0 906 7 890 b 69 856 35 863 51 856 b 118 876 88 856 104 863 b 139 925 132 890 139 906 "},"̈":{"ha":0,"x_min":0,"x_max":0,"o":"m 50 994 b 1 975 31 994 14 988 b -17 928 -11 963 -17 947 b 1 881 -17 909 -11 894 b 50 861 15 868 31 861 b 97 881 68 861 83 868 b 117 928 110 894 117 909 b 97 975 117 946 110 962 b 50 994 84 988 69 994 m 393 994 b 346 975 374 994 358 988 b 326 928 333 962 326 946 b 346 881 326 909 333 894 b 393 861 359 868 375 861 b 440 881 412 861 427 868 b 460 928 453 894 460 909 b 440 975 460 947 453 963 b 393 994 428 988 413 994 "},"̊":{"ha":0,"x_min":0,"x_max":0,"o":"m 201 1031 b 110 992 165 1031 135 1018 b 71 901 84 967 71 937 b 110 810 71 865 84 835 b 201 772 135 785 165 772 b 292 810 237 772 267 785 b 329 901 317 835 329 865 b 292 992 329 937 317 967 b 201 1031 267 1018 237 1031 m 201 956 b 239 939 215 956 228 950 b 254 901 249 929 254 916 b 239 864 254 887 249 874 b 201 847 228 853 215 847 b 163 864 186 847 173 853 b 147 901 152 874 147 887 b 163 939 147 916 152 929 b 201 956 173 950 186 956 "},"̋":{"ha":0,"x_min":0,"x_max":0,"o":"m 378 793 l 522 972 l 381 972 l 251 793 m 136 793 l 281 972 l 138 972 l 10 793 "},"̌":{"ha":0,"x_min":0,"x_max":0,"o":"m 165 793 l 307 793 l 472 972 l 339 972 l 236 869 l 133 972 l 1 972 "},"̒":{"ha":0,"x_min":0,"x_max":0,"o":"m 100 990 l 0 807 l 124 807 l 194 990 "},"̣":{"ha":801,"x_min":0,"x_max":0,"o":"m 471 -154 b 450 -99 471 -132 464 -113 b 394 -76 435 -84 417 -76 b 339 -99 372 -76 354 -84 b 317 -154 324 -113 317 -132 b 339 -208 317 -175 324 -194 b 394 -232 355 -224 373 -232 b 450 -208 416 -232 434 -224 b 471 -154 464 -194 471 -175 "},"̦":{"ha":0,"x_min":0,"x_max":0,"o":"m 119 -278 l 201 -83 l 81 -83 l 25 -278 "},"̧":{"ha":0,"x_min":0,"x_max":0,"o":"m 399 4 b 443 -33 417 -3 432 -16 b 460 -92 454 -50 460 -69 b 428 -165 460 -119 449 -144 b 353 -197 406 -187 381 -197 b 290 -176 331 -197 310 -190 l 275 -194 b 232 -250 265 -206 250 -225 b 353 -292 266 -278 306 -292 b 494 -233 408 -292 456 -272 b 554 -92 534 -194 554 -146 b 488 57 554 -32 532 17 "},"̨":{"ha":0,"x_min":0,"x_max":0,"o":"m 254 -181 b 251 -184 253 -181 252 -183 b 249 -189 250 -185 250 -187 b 210 -204 238 -199 225 -204 b 171 -189 194 -204 181 -199 b 156 -149 161 -179 156 -165 b 158 -128 156 -141 156 -134 b 171 -110 160 -122 164 -116 l 299 18 l 196 18 b 150 -9 179 10 164 1 b 115 -39 136 -19 125 -29 b 64 -151 81 -72 64 -110 b 107 -251 64 -190 78 -224 b 210 -294 135 -280 169 -294 b 313 -251 250 -294 284 -280 b 322 -243 315 -249 318 -246 b 329 -233 325 -240 327 -237 "},"΄":{"ha":0,"x_min":0,"x_max":0,"o":"m 456 793 l 544 972 l 422 972 l 351 793 "},"΅":{"ha":0,"x_min":0,"x_max":0,"o":"m 219 842 l 344 1031 l 210 1031 l 104 842 m 33 994 b -14 975 14 994 -2 988 b -33 928 -27 963 -33 947 b -14 881 -33 909 -27 894 b 33 861 -1 868 15 861 b 81 881 52 861 68 868 b 100 928 94 894 100 909 b 81 975 100 946 94 962 b 33 994 68 988 52 994 m 408 994 b 363 975 390 994 375 988 b 342 928 349 962 342 946 b 363 881 342 909 349 894 b 408 861 375 868 391 861 b 457 881 427 861 443 868 b 475 928 469 894 475 909 b 457 975 475 947 469 963 b 408 994 444 988 428 994 "},"Ά":{"ha":856,"x_min":0,"x_max":0,"o":"m 147 793 l 236 972 l 114 972 l 44 793 m 843 0 l 482 972 l 371 972 l 726 0 m 131 0 l 482 972 l 371 972 l 13 0 m 697 258 l 697 368 l 157 368 l 157 258 "},"·":{"ha":353,"x_min":0,"x_max":0,"o":"m 254 453 b 232 507 254 475 247 493 b 176 529 217 522 199 529 b 121 507 154 529 136 522 b 100 453 107 493 100 475 b 121 399 100 431 107 413 b 176 375 137 383 155 375 b 232 399 198 375 216 383 b 254 453 247 413 254 431 "},"Έ":{"ha":821,"x_min":0,"x_max":0,"o":"m 11 793 l 100 972 l -24 972 l -93 793 m 707 0 l 707 108 l 239 108 l 239 442 l 615 442 l 615 551 l 239 551 l 239 864 l 706 864 l 706 972 l 129 972 l 129 0 "},"Ή":{"ha":1008,"x_min":0,"x_max":0,"o":"m 13 793 l 103 972 l -21 972 l -90 793 m 881 0 l 881 972 l 771 972 l 771 0 m 239 0 l 239 972 l 129 972 l 129 0 m 782 446 l 782 554 l 229 554 l 229 446 "},"Ί":{"ha":367,"x_min":0,"x_max":0,"o":"m 25 793 l 114 972 l -10 972 l -79 793 m 239 0 l 239 972 l 129 972 l 129 0 "},"Ό":{"ha":1076,"x_min":0,"x_max":0,"o":"m 74 793 l 163 972 l 39 972 l -31 793 m 539 989 b 197 842 401 989 287 940 b 64 486 108 744 64 626 b 197 129 64 346 108 227 b 539 -17 287 32 401 -17 b 878 128 676 -17 789 31 b 1014 486 969 226 1014 345 b 879 843 1014 626 969 745 b 539 989 790 940 677 989 m 539 881 b 800 765 644 881 731 842 b 878 638 834 726 860 684 b 904 486 895 591 904 541 b 800 207 904 378 869 285 b 539 92 731 130 644 92 b 276 207 432 92 345 130 b 172 486 207 285 172 378 b 198 638 172 541 181 591 b 276 765 215 684 241 726 b 539 881 345 842 432 881 "},"Ύ":{"ha":754,"x_min":0,"x_max":0,"o":"m -103 793 l -14 972 l -136 972 l -206 793 m 324 475 l 324 443 l 432 443 l 743 972 l 614 972 m 324 443 l 432 443 l 432 475 l 142 972 l 13 972 m 324 0 l 432 0 l 432 443 l 324 443 "},"Ώ":{"ha":1075,"x_min":0,"x_max":0,"o":"m 71 793 l 160 972 l 38 972 l -32 793 m 536 989 b 194 842 398 989 284 940 b 61 486 106 744 61 626 b 157 182 61 370 93 269 b 410 10 220 96 304 38 l 410 108 b 236 253 338 135 281 183 b 171 486 193 323 171 401 b 275 765 171 594 206 687 b 536 881 344 842 431 881 b 797 765 642 881 729 842 b 876 638 832 726 859 684 b 903 486 894 591 903 541 b 886 365 903 444 897 404 b 836 253 875 325 858 288 b 760 165 815 219 790 189 b 663 108 731 141 699 122 l 663 10 b 805 74 715 25 763 46 b 915 182 847 103 884 138 b 1011 486 979 269 1011 370 b 876 844 1011 627 966 746 b 536 989 788 941 674 989 m 61 0 l 410 0 l 410 108 l 61 108 m 663 0 l 1011 0 l 1011 108 l 663 108 "},"ΐ":{"ha":419,"x_min":0,"x_max":0,"o":"m 129 204 b 190 60 129 149 150 100 b 333 0 230 20 278 0 l 367 0 l 367 108 l 333 108 b 267 136 307 108 285 118 b 239 204 248 155 239 177 l 239 694 l 129 694 m 243 758 l 367 947 l 232 947 l 128 758 m 57 911 b 8 892 38 911 22 905 b -10 844 -4 879 -10 863 b 8 796 -10 825 -4 809 b 57 778 21 784 38 778 b 104 796 76 778 92 784 b 124 844 117 809 124 825 b 104 892 124 863 117 879 b 57 911 91 905 75 911 m 432 911 b 385 892 414 911 399 905 b 365 844 372 878 365 862 b 385 796 365 826 372 810 b 432 778 398 784 413 778 b 479 796 450 778 466 784 b 499 844 492 810 499 826 b 479 892 499 862 492 878 b 432 911 465 905 450 911 "},"Α":{"ha":856,"x_min":0,"x_max":0,"o":"m 426 819 l 593 368 l 263 368 m 633 258 l 726 0 l 843 0 l 482 972 l 371 972 l 13 0 l 131 0 l 224 258 "},"Β":{"ha":865,"x_min":0,"x_max":0,"o":"m 129 0 l 506 0 b 700 81 581 0 646 27 b 781 275 754 134 781 199 b 740 417 781 328 767 375 b 633 517 713 461 677 494 b 719 708 691 569 719 632 b 643 894 719 781 694 843 b 456 972 591 946 529 972 l 129 972 m 451 861 b 564 817 496 861 533 846 b 608 707 594 787 608 750 b 564 597 608 663 594 627 b 451 553 533 568 496 553 l 239 553 l 239 861 m 501 442 b 621 393 548 442 588 425 b 669 276 653 361 669 322 b 621 160 669 231 653 192 b 501 111 588 127 548 111 l 239 111 l 239 442 "},"Γ":{"ha":692,"x_min":0,"x_max":0,"o":"m 215 0 l 215 864 l 683 864 l 683 972 l 107 972 l 107 0 "},"Δ":{"ha":857,"x_min":0,"x_max":0,"o":"m 14 0 l 844 0 l 460 972 l 399 972 m 683 108 l 175 108 l 429 756 "},"Ε":{"ha":821,"x_min":0,"x_max":0,"o":"m 707 0 l 707 108 l 239 108 l 239 442 l 615 442 l 615 551 l 239 551 l 239 864 l 706 864 l 706 972 l 129 972 l 129 0 "},"Ζ":{"ha":838,"x_min":0,"x_max":0,"o":"m 769 0 l 769 108 l 204 108 l 774 864 l 774 972 l 69 972 l 69 864 l 633 864 l 65 108 l 65 0 "},"Η":{"ha":1008,"x_min":0,"x_max":0,"o":"m 239 0 l 239 446 l 771 446 l 771 0 l 881 0 l 881 972 l 771 972 l 771 554 l 239 554 l 239 972 l 129 972 l 129 0 "},"Θ":{"ha":1076,"x_min":0,"x_max":0,"o":"m 539 989 b 199 843 402 989 288 940 b 98 682 154 795 121 741 b 64 486 75 623 64 557 b 196 132 64 347 108 229 b 539 -17 286 33 400 -17 b 878 128 676 -17 789 31 b 1014 486 969 226 1014 345 b 878 844 1014 627 969 746 b 539 989 789 941 676 989 m 539 881 b 800 765 644 881 731 842 b 878 638 834 726 860 684 b 904 486 895 591 904 541 b 800 207 904 378 869 285 b 539 92 731 130 644 92 b 276 207 432 92 345 130 b 172 486 207 285 172 378 b 198 638 172 541 181 591 b 276 765 215 684 241 726 b 539 881 345 842 432 881 m 740 432 l 740 540 l 338 540 l 338 432 "},"Ι":{"ha":367,"x_min":0,"x_max":0,"o":"m 239 0 l 239 972 l 129 972 l 129 0 "},"Κ":{"ha":836,"x_min":0,"x_max":0,"o":"m 239 0 l 239 360 l 326 453 l 692 0 l 829 0 l 400 535 l 813 972 l 667 972 l 239 524 l 239 972 l 129 972 l 129 0 "},"Λ":{"ha":856,"x_min":0,"x_max":0,"o":"m 371 972 l 13 0 l 131 0 l 426 819 l 726 0 l 843 0 l 482 972 "},"Μ":{"ha":1101,"x_min":0,"x_max":0,"o":"m 17 0 l 126 0 l 258 765 l 490 117 l 613 117 l 843 765 l 975 0 l 1086 0 l 921 972 l 800 972 l 551 276 l 301 972 l 182 972 "},"Ν":{"ha":1014,"x_min":0,"x_max":0,"o":"m 129 0 l 239 0 l 239 778 l 776 0 l 885 0 l 885 972 l 776 972 l 776 194 l 239 972 l 129 972 "},"Ξ":{"ha":881,"x_min":0,"x_max":0,"o":"m 115 864 l 767 864 l 767 972 l 115 972 m 206 442 l 676 442 l 676 551 l 206 551 m 115 0 l 767 0 l 767 108 l 115 108 "},"Ο":{"ha":1076,"x_min":0,"x_max":0,"o":"m 539 989 b 197 842 401 989 287 940 b 64 486 108 744 64 626 b 197 129 64 346 108 227 b 539 -17 287 32 401 -17 b 878 128 676 -17 789 31 b 1014 486 969 226 1014 345 b 879 843 1014 626 969 745 b 539 989 790 940 677 989 m 539 881 b 800 765 644 881 731 842 b 878 638 834 726 860 684 b 904 486 895 591 904 541 b 800 207 904 378 869 285 b 539 92 731 130 644 92 b 276 207 432 92 345 130 b 172 486 207 285 172 378 b 198 638 172 541 181 591 b 276 765 215 684 241 726 b 539 881 345 842 432 881 "},"Π":{"ha":914,"x_min":0,"x_max":0,"o":"m 107 0 l 215 0 l 215 864 l 700 864 l 700 0 l 810 0 l 810 972 l 107 972 "},"Ρ":{"ha":794,"x_min":0,"x_max":0,"o":"m 129 0 l 239 0 l 239 357 l 453 357 b 671 447 537 357 610 387 b 760 664 730 506 760 579 b 671 882 760 750 730 823 b 453 972 611 942 538 972 l 129 972 m 453 864 b 593 804 506 864 553 844 b 651 664 632 765 651 719 b 593 525 651 610 632 564 b 453 465 553 485 506 465 l 239 465 l 239 864 "},"Σ":{"ha":756,"x_min":0,"x_max":0,"o":"m 361 497 l 14 0 l 642 0 l 642 108 l 222 108 l 494 497 l 238 864 l 642 864 l 642 972 l 28 972 "},"Τ":{"ha":767,"x_min":0,"x_max":0,"o":"m 15 864 l 329 864 l 329 0 l 439 0 l 439 864 l 751 864 l 751 972 l 15 972 "},"Υ":{"ha":754,"x_min":0,"x_max":0,"o":"m 324 443 l 324 0 l 432 0 l 432 443 l 743 972 l 614 972 l 378 568 l 142 972 l 13 972 "},"Φ":{"ha":1174,"x_min":0,"x_max":0,"o":"m 533 989 b 197 842 397 987 285 938 b 64 486 108 744 64 625 b 197 129 64 346 108 227 b 533 -17 286 34 398 -15 l 533 -206 l 642 -206 l 642 -17 b 975 128 777 -16 888 32 b 1111 486 1066 226 1111 345 b 976 843 1111 626 1066 745 b 642 989 889 938 778 987 l 642 1181 l 533 1181 m 533 93 b 276 207 430 94 344 132 b 172 486 207 285 172 378 b 276 765 172 595 207 688 b 533 879 344 840 430 878 m 642 879 b 897 765 744 878 830 840 b 975 638 931 726 957 684 b 1001 486 993 591 1001 541 b 897 207 1001 378 967 285 b 642 93 830 132 744 94 l 642 879 "},"Χ":{"ha":779,"x_min":0,"x_max":0,"o":"m 390 589 l 144 972 l 17 972 l 326 488 l 15 0 l 143 0 l 390 385 l 636 0 l 767 0 l 456 488 l 765 972 l 635 972 "},"Ψ":{"ha":932,"x_min":0,"x_max":0,"o":"m 57 660 b 176 371 57 547 97 450 b 413 254 244 303 323 264 l 413 0 l 521 0 l 521 254 b 647 292 565 260 607 272 b 756 371 686 311 722 338 b 876 660 836 450 876 547 l 876 972 l 767 972 l 767 660 b 679 447 767 577 738 506 b 521 367 634 402 581 375 l 521 972 l 413 972 l 413 367 b 253 447 352 375 299 402 b 165 660 194 506 165 577 l 165 972 l 57 972 "},"Ω":{"ha":1076,"x_min":0,"x_max":0,"o":"m 539 989 b 197 842 401 989 287 940 b 64 486 108 744 64 626 b 151 193 64 376 93 278 b 187 148 163 177 174 162 b 226 108 199 134 213 120 l 64 108 l 64 0 l 413 0 l 413 108 b 238 253 340 135 282 183 b 172 486 194 323 172 401 b 276 765 172 595 207 688 b 539 881 345 842 432 881 b 800 765 644 881 731 842 b 878 638 834 726 860 684 b 904 486 895 591 904 541 b 839 253 904 401 882 323 b 763 165 818 219 792 189 b 665 108 734 141 701 122 l 665 0 l 1014 0 l 1014 108 l 851 108 b 891 148 865 120 878 134 b 926 193 903 162 915 177 b 1014 486 985 278 1014 376 b 878 844 1014 627 969 746 b 539 989 789 941 676 989 "},"Ϊ":{"ha":367,"x_min":0,"x_max":0,"o":"m 239 0 l 239 972 l 129 972 l 129 0 m 74 1244 b 25 1225 54 1244 38 1238 b 7 1178 13 1213 7 1197 b 25 1131 7 1159 13 1144 b 74 1111 38 1118 54 1111 b 119 1131 91 1111 106 1118 b 140 1178 133 1144 140 1160 b 119 1225 140 1196 133 1212 b 74 1244 107 1238 92 1244 m 290 1244 b 243 1225 271 1244 255 1238 b 224 1178 230 1213 224 1197 b 243 1131 224 1159 230 1144 b 290 1111 256 1118 272 1111 b 339 1131 309 1111 325 1118 b 357 1178 351 1144 357 1159 b 339 1225 357 1197 351 1213 b 290 1244 326 1238 310 1244 "},"Ϋ":{"ha":754,"x_min":0,"x_max":0,"o":"m 324 443 l 324 0 l 432 0 l 432 443 l 743 972 l 614 972 l 378 568 l 142 972 l 13 972 m 203 1238 b 156 1218 183 1238 168 1231 b 136 1171 143 1206 136 1190 b 156 1124 136 1152 143 1137 b 203 1104 169 1111 184 1104 b 250 1124 221 1104 237 1111 b 269 1171 263 1137 269 1152 b 250 1218 269 1189 263 1205 b 203 1238 237 1231 221 1238 m 546 1238 b 499 1218 527 1238 512 1231 b 479 1171 486 1205 479 1189 b 499 1124 479 1152 486 1137 b 546 1104 513 1111 528 1104 b 594 1124 564 1104 581 1111 b 613 1171 606 1137 613 1152 b 594 1218 613 1190 606 1206 b 546 1238 581 1231 565 1238 "},"ά":{"ha":926,"x_min":0,"x_max":0,"o":"m 410 708 b 158 604 310 708 226 674 b 57 347 91 534 57 448 b 83 206 57 296 66 249 b 158 88 100 162 125 123 b 410 -19 226 16 310 -19 b 568 22 467 -19 520 -6 b 636 73 593 37 616 54 b 693 139 656 92 675 114 b 712 104 699 127 705 115 b 735 74 719 93 726 83 b 791 26 750 54 769 38 b 864 0 813 14 837 6 l 864 113 b 832 128 852 116 841 121 b 807 153 823 134 814 143 b 788 190 800 163 793 175 b 774 240 782 204 777 221 b 771 256 773 244 772 249 b 768 278 770 262 769 269 b 828 475 795 340 815 406 b 849 694 841 544 848 618 l 739 694 b 735 588 739 657 738 622 b 719 490 732 553 727 521 b 713 511 718 498 715 505 l 704 531 b 586 661 679 585 640 629 b 410 708 533 693 475 708 m 410 600 b 536 565 457 600 499 588 b 622 468 574 543 603 511 b 639 406 628 456 633 435 b 654 289 644 376 650 337 b 629 238 645 269 637 253 b 610 206 622 224 615 213 b 521 121 587 169 557 141 b 469 97 505 110 488 102 b 410 90 450 93 430 90 b 235 164 339 90 281 115 b 165 347 188 214 165 275 b 235 526 165 418 188 477 b 410 600 281 575 339 600 m 469 793 l 558 972 l 436 972 l 367 793 "},"έ":{"ha":554,"x_min":0,"x_max":0,"o":"m 308 425 b 203 458 261 425 226 436 b 176 519 185 476 176 496 b 203 578 176 543 185 562 b 293 607 224 597 254 607 b 408 557 339 607 378 590 l 493 615 b 456 655 483 630 471 643 b 406 686 442 666 425 677 b 293 711 372 703 335 711 b 131 654 227 711 173 692 b 72 519 92 617 72 572 b 142 379 72 460 95 413 b 99 344 125 369 111 357 b 67 300 87 330 76 316 b 39 201 48 269 39 236 b 117 40 39 136 65 82 b 297 -17 167 2 227 -17 b 528 86 397 -17 474 18 l 442 149 b 297 92 403 112 355 93 b 186 124 249 92 212 102 b 149 201 161 143 149 169 b 188 285 149 231 162 259 b 308 322 213 310 253 322 l 415 322 l 415 425 m 332 793 l 421 972 l 297 972 l 228 793 "},"ή":{"ha":793,"x_min":0,"x_max":0,"o":"m 699 369 b 678 508 699 420 692 467 b 615 617 664 550 643 586 b 407 711 560 680 490 711 b 208 618 325 711 258 680 b 198 605 205 613 201 609 b 190 592 195 601 192 596 b 176 619 187 601 182 610 b 156 646 171 629 164 638 b 36 694 123 678 83 694 l 7 694 l 7 589 l 36 589 b 81 569 54 589 69 582 b 99 525 93 557 99 543 l 99 0 l 133 0 l 189 0 l 208 0 l 208 371 b 261 539 208 442 226 498 b 399 603 297 581 343 603 b 535 539 454 603 500 581 b 589 371 571 498 589 442 l 589 -278 l 699 -278 m 457 793 l 546 972 l 422 972 l 353 793 "},"ί":{"ha":335,"x_min":0,"x_max":0,"o":"m 92 204 b 150 60 92 148 111 100 b 296 0 191 20 239 0 l 329 0 l 329 108 l 296 108 b 228 136 269 108 246 118 b 200 204 209 155 200 177 l 200 694 l 92 694 m 197 793 l 286 972 l 163 972 l 93 793 "},"ΰ":{"ha":731,"x_min":0,"x_max":0,"o":"m 28 586 l 39 586 b 122 547 72 586 100 573 b 140 457 145 522 151 492 l 100 325 b 93 188 84 275 82 229 b 116 130 99 167 106 148 b 151 79 126 112 138 95 b 199 40 166 64 182 51 b 254 8 215 28 234 18 b 315 -10 274 0 294 -6 b 376 -17 335 -15 356 -17 b 589 78 461 -17 531 15 b 675 325 646 141 675 223 b 592 694 676 463 648 586 l 467 694 b 497 643 478 678 488 661 b 521 589 505 625 513 607 b 555 468 536 553 547 513 b 567 324 563 424 567 375 b 511 156 567 254 548 198 b 376 92 476 113 431 92 b 238 156 320 92 274 113 b 208 324 198 201 188 257 l 250 457 b 257 506 255 474 257 490 b 247 553 257 521 254 537 b 205 623 238 580 224 603 b 133 672 186 643 162 659 b 87 689 118 680 102 685 b 39 694 72 693 56 694 l 28 694 m 338 793 l 461 982 l 328 982 l 222 793 m 151 946 b 104 926 132 946 116 939 b 85 879 91 914 85 899 b 104 832 85 861 91 845 b 151 813 117 819 133 813 b 199 832 169 813 185 819 b 218 879 212 845 218 861 b 199 926 218 898 212 913 b 151 946 186 939 170 946 m 525 946 b 479 926 506 946 491 939 b 458 879 465 913 458 898 b 479 832 458 861 465 845 b 525 813 492 819 507 813 b 574 832 544 813 561 819 b 592 879 586 845 592 861 b 574 926 592 899 586 914 b 525 946 561 939 544 946 "},"α":{"ha":926,"x_min":0,"x_max":0,"o":"m 410 708 b 158 604 310 708 226 674 b 57 347 91 534 57 448 b 83 206 57 296 66 249 b 158 88 100 162 125 123 b 410 -19 226 16 310 -19 b 568 22 467 -19 520 -6 b 636 73 593 37 616 54 b 693 139 656 92 675 114 b 712 104 699 127 705 115 b 735 74 719 93 726 83 b 791 26 750 54 769 38 b 864 0 813 14 837 6 l 864 113 b 832 128 852 116 841 121 b 807 153 823 134 814 143 b 788 190 800 163 793 175 b 774 240 782 204 777 221 b 771 256 773 244 772 249 b 768 278 770 262 769 269 b 828 475 795 340 815 406 b 849 694 841 544 848 618 l 739 694 b 735 588 739 657 738 622 b 719 490 732 553 727 521 b 713 511 718 498 715 505 l 704 531 b 586 661 679 585 640 629 b 410 708 533 693 475 708 m 410 600 b 536 565 457 600 499 588 b 622 468 574 543 603 511 b 639 406 628 456 633 435 b 654 289 644 376 650 337 b 629 238 645 269 637 253 b 610 206 622 224 615 213 b 521 121 587 169 557 141 b 469 97 505 110 488 102 b 410 90 450 93 430 90 b 235 164 339 90 281 115 b 165 347 188 214 165 275 b 235 526 165 418 188 477 b 410 600 281 575 339 600 "},"β":{"ha":756,"x_min":0,"x_max":0,"o":"m 381 989 b 179 907 302 989 235 962 b 97 713 125 853 97 788 l 97 -278 l 206 -278 l 206 60 b 397 0 261 20 325 0 b 607 81 480 0 550 27 b 693 275 664 135 693 200 b 683 350 693 300 690 325 b 654 424 677 375 667 400 b 558 526 629 470 597 504 b 606 568 576 540 592 554 b 639 614 619 582 631 597 b 659 667 648 631 655 648 b 665 724 663 685 665 704 b 583 913 665 800 638 863 b 381 989 528 963 460 989 m 206 713 b 257 831 206 759 223 798 b 381 881 291 864 332 881 b 507 836 431 881 473 866 b 557 724 540 807 557 770 b 508 617 557 678 541 643 b 397 575 476 589 439 575 l 289 575 l 289 467 l 397 467 b 529 407 447 467 491 447 b 583 275 565 367 583 323 b 531 157 583 229 566 189 b 397 108 494 125 450 108 b 206 196 322 108 258 138 "},"γ":{"ha":690,"x_min":0,"x_max":0,"o":"m 292 8 l 292 -278 l 400 -278 l 400 8 l 679 694 l 561 694 l 346 163 l 129 694 l 13 694 "},"δ":{"ha":717,"x_min":0,"x_max":0,"o":"m 365 989 b 178 906 288 989 225 961 b 115 726 132 852 112 792 b 144 628 118 690 128 657 b 174 588 153 614 163 601 b 214 554 186 576 199 564 l 151 493 b 65 282 94 435 65 364 b 151 71 65 200 94 129 b 364 -17 210 13 281 -17 b 575 71 446 -17 517 13 b 650 192 609 106 634 146 b 663 262 657 216 662 239 b 658 331 665 284 663 307 b 567 497 644 399 614 455 b 509 540 550 513 531 527 b 432 574 487 553 462 564 b 343 606 395 588 365 598 b 299 622 321 613 306 619 b 264 648 285 630 273 638 b 239 683 255 658 246 669 b 247 818 216 731 219 775 b 365 881 275 860 314 881 b 472 842 408 881 444 868 b 535 746 501 817 522 785 l 636 783 b 542 925 617 838 585 885 b 365 989 496 968 438 989 m 313 499 b 333 492 318 497 325 494 b 360 482 341 489 350 486 b 383 474 369 479 377 477 b 396 471 390 472 394 471 b 490 419 438 455 470 438 b 551 307 523 391 543 353 b 544 222 557 277 555 249 b 526 183 540 208 534 195 b 499 147 518 170 509 158 b 364 92 462 110 417 92 b 229 147 310 92 265 110 b 174 282 192 184 174 229 b 229 417 174 335 192 380 l 313 499 "},"ε":{"ha":554,"x_min":0,"x_max":0,"o":"m 308 425 b 203 458 261 425 226 436 b 176 519 185 476 176 496 b 203 578 176 543 185 562 b 293 607 224 597 254 607 b 408 557 339 607 378 590 l 493 615 b 456 655 483 630 471 643 b 406 686 442 666 425 677 b 293 711 372 703 335 711 b 131 654 227 711 173 692 b 72 519 92 617 72 572 b 142 379 72 460 95 413 b 99 344 125 369 111 357 b 67 300 87 330 76 316 b 39 201 48 269 39 236 b 117 40 39 136 65 82 b 297 -17 167 2 227 -17 b 528 86 397 -17 474 18 l 442 149 b 297 92 403 112 355 93 b 186 124 249 92 212 102 b 149 201 161 143 149 169 b 188 285 149 231 162 259 b 308 322 213 310 253 322 l 415 322 l 415 425 "},"ζ":{"ha":763,"x_min":0,"x_max":0,"o":"m 76 864 l 508 864 l 506 860 b 488 839 504 857 498 850 b 438 783 477 828 461 809 b 342 674 416 757 384 721 b 182 490 301 626 248 565 b 58 206 89 386 48 291 b 146 54 67 141 96 90 b 318 0 198 18 255 0 b 482 -32 390 0 445 -11 b 543 -111 514 -51 535 -78 b 506 -278 556 -161 544 -217 l 628 -278 b 656 -176 644 -243 653 -209 b 647 -83 659 -143 656 -112 b 536 63 628 -18 591 31 b 318 108 481 93 409 108 b 215 139 277 108 243 119 b 167 218 186 159 169 186 b 264 419 161 271 194 338 b 466 649 318 481 385 557 b 750 972 547 741 642 849 l 76 972 "},"η":{"ha":793,"x_min":0,"x_max":0,"o":"m 699 369 b 678 508 699 420 692 467 b 615 617 664 550 643 586 b 407 711 560 680 490 711 b 208 618 325 711 258 680 b 198 605 205 613 201 609 b 190 592 195 601 192 596 b 176 619 187 601 182 610 b 156 646 171 629 164 638 b 36 694 123 678 83 694 l 7 694 l 7 589 l 36 589 b 81 569 54 589 69 582 b 99 525 93 557 99 543 l 99 0 l 133 0 l 189 0 l 208 0 l 208 371 b 261 539 208 442 226 498 b 399 603 297 581 343 603 b 535 539 454 603 500 581 b 589 371 571 498 589 442 l 589 -278 l 699 -278 "},"θ":{"ha":833,"x_min":0,"x_max":0,"o":"m 417 881 b 535 844 463 881 502 869 b 658 540 610 794 651 692 l 175 540 b 296 842 182 689 223 790 b 417 881 329 868 369 881 m 417 989 b 249 942 353 989 297 973 b 88 681 170 889 116 802 b 69 586 79 650 73 619 b 64 486 66 554 64 520 b 69 386 64 452 66 419 b 88 290 73 354 79 322 b 151 134 102 229 123 177 b 249 31 178 91 211 56 b 417 -17 297 -1 353 -17 b 586 31 481 -17 538 -1 b 685 134 625 56 658 91 b 747 290 712 177 732 229 b 765 386 755 322 760 354 b 771 486 769 419 771 452 b 765 586 771 520 769 554 b 747 681 760 619 755 650 b 586 942 718 803 664 890 b 417 989 538 973 481 989 m 658 432 b 533 125 650 278 608 176 b 417 92 502 103 463 92 b 300 126 370 92 331 103 b 175 432 225 177 183 279 l 658 432 "},"ι":{"ha":335,"x_min":0,"x_max":0,"o":"m 92 204 b 150 60 92 148 111 100 b 296 0 191 20 239 0 l 329 0 l 329 108 l 296 108 b 228 136 269 108 246 118 b 200 204 209 155 200 177 l 200 694 l 92 694 "},"κ":{"ha":685,"x_min":0,"x_max":0,"o":"m 97 0 l 206 0 l 206 225 l 310 333 l 539 0 l 672 0 l 386 414 l 510 544 b 610 586 538 572 571 586 l 640 586 l 640 694 l 610 694 b 507 672 575 694 540 687 b 467 649 493 666 480 658 b 431 618 455 641 443 630 l 206 383 l 206 694 l 97 694 "},"λ":{"ha":746,"x_min":0,"x_max":0,"o":"m 111 881 l 131 881 b 203 858 157 881 181 873 b 251 799 224 844 240 824 l 292 693 l 14 0 l 132 0 l 350 547 l 529 101 b 589 28 542 70 562 45 b 681 0 618 9 648 0 l 733 0 l 733 108 l 681 108 b 632 142 656 108 640 119 l 351 838 b 264 947 335 882 306 919 b 131 989 222 975 178 989 l 111 989 "},"μ":{"ha":764,"x_min":0,"x_max":0,"o":"m 379 -17 b 571 74 460 -17 524 13 b 581 86 575 77 578 81 b 589 100 584 91 587 95 b 602 74 593 91 597 82 b 621 50 607 65 613 57 b 740 0 653 17 693 0 l 751 0 l 751 106 l 740 106 b 697 125 724 106 709 112 b 678 169 684 138 678 153 l 678 694 l 569 694 l 569 324 b 514 156 569 254 551 198 b 379 92 478 113 433 92 b 243 156 324 92 278 113 b 188 324 206 198 188 254 l 188 694 l 79 694 l 79 -278 l 185 -278 l 185 83 b 379 -17 231 17 296 -17 "},"ν":{"ha":697,"x_min":0,"x_max":0,"o":"m 279 0 l 381 0 b 434 66 400 22 418 44 b 481 132 450 88 466 110 b 679 694 611 331 677 519 l 576 694 b 512 408 572 598 550 503 b 347 126 473 313 419 219 l 129 694 l 13 694 "},"ξ":{"ha":696,"x_min":0,"x_max":0,"o":"m 121 867 l 179 867 b 139 797 162 845 148 822 b 125 715 130 771 125 744 b 151 606 125 676 134 640 b 181 559 160 589 170 573 b 221 519 193 545 206 531 b 126 419 181 494 150 460 b 92 283 103 379 92 333 b 169 93 92 206 118 143 b 260 33 196 68 226 48 b 372 0 293 17 331 6 b 483 -33 419 -6 456 -17 b 538 -111 510 -50 528 -76 b 538 -192 544 -137 544 -164 b 500 -278 531 -219 519 -248 l 622 -278 b 653 -175 639 -242 649 -207 b 646 -83 656 -143 654 -112 b 567 38 630 -32 604 8 b 372 108 520 74 456 97 b 249 165 323 113 282 132 b 200 283 216 198 200 237 b 251 407 200 331 217 373 b 376 458 286 441 327 458 l 579 458 l 579 567 l 382 567 b 278 610 341 567 306 581 b 246 658 264 624 253 640 b 235 715 238 676 235 695 b 278 819 235 756 249 791 b 382 864 306 849 341 864 l 635 864 l 635 972 l 121 972 "},"ο":{"ha":800,"x_min":0,"x_max":0,"o":"m 401 711 b 154 606 301 711 219 676 b 57 347 89 535 57 449 b 154 89 57 246 89 160 b 401 -17 219 19 301 -17 b 646 89 500 -17 581 19 b 744 347 712 160 744 246 b 646 606 744 449 712 535 b 401 711 581 676 500 711 m 401 603 b 569 529 470 603 526 578 b 635 347 613 480 635 419 b 619 248 635 311 629 278 b 569 165 608 218 592 190 b 401 92 526 116 470 92 b 231 165 331 92 274 116 b 165 347 187 215 165 276 b 182 447 165 383 171 416 b 231 529 193 477 209 504 b 401 603 274 578 331 603 "},"π":{"ha":779,"x_min":0,"x_max":0,"o":"m 35 586 l 153 586 l 153 0 l 261 0 l 261 586 l 528 586 l 528 204 b 588 60 528 149 548 100 b 732 0 627 20 675 0 l 746 0 l 746 108 l 732 108 b 664 136 705 108 682 118 b 636 204 645 155 636 177 l 636 586 l 746 586 l 746 694 l 35 694 "},"ρ":{"ha":808,"x_min":0,"x_max":0,"o":"m 410 603 b 579 529 479 603 536 578 b 644 347 623 480 644 419 b 579 165 644 276 623 215 b 410 92 536 116 479 92 b 240 165 340 92 284 116 b 175 347 197 215 175 276 b 240 529 175 419 197 480 b 410 603 284 578 340 603 m 410 711 b 164 606 311 711 229 676 b 65 347 98 535 65 449 l 65 -278 l 175 -278 l 175 86 b 410 -17 235 18 313 -17 b 656 89 509 -17 591 19 b 753 347 720 160 753 246 b 656 606 753 449 720 535 b 410 711 591 676 509 711 "},"ς":{"ha":700,"x_min":0,"x_max":0,"o":"m 401 711 b 154 606 301 711 219 676 b 57 347 89 535 57 449 b 146 97 57 247 87 164 b 385 -17 205 31 285 -6 b 543 -125 475 -25 527 -61 b 546 -198 550 -148 550 -172 b 515 -278 541 -223 531 -250 l 636 -278 b 656 -175 648 -243 655 -208 b 640 -78 656 -142 651 -109 b 385 92 608 21 523 78 b 224 171 314 99 261 125 b 165 347 185 219 165 278 b 232 529 165 418 188 478 b 401 603 276 578 333 603 b 569 528 469 603 525 578 l 647 607 b 401 711 581 676 500 711 "},"σ":{"ha":835,"x_min":0,"x_max":0,"o":"m 401 711 b 154 606 301 711 219 676 b 57 347 89 535 57 449 b 154 89 57 246 89 160 b 401 -17 219 19 301 -17 b 646 89 500 -17 581 19 b 744 347 712 160 744 246 b 738 421 744 372 742 397 b 717 490 733 445 726 468 b 685 551 708 512 698 532 b 643 603 673 570 659 587 l 822 603 l 822 711 l 401 711 m 401 603 b 569 529 470 603 526 578 b 635 347 613 480 635 419 b 619 248 635 311 629 278 b 569 165 608 218 592 190 b 401 92 526 116 470 92 b 231 165 331 92 274 116 b 165 347 187 215 165 276 b 182 447 165 383 171 416 b 231 529 193 477 209 504 b 401 603 274 578 331 603 "},"τ":{"ha":640,"x_min":0,"x_max":0,"o":"m 21 586 l 264 586 l 264 204 b 322 60 264 148 283 100 b 468 0 363 20 412 0 l 482 0 l 482 108 l 468 108 b 400 136 441 108 419 118 b 372 204 381 155 372 177 l 372 586 l 621 586 l 621 694 l 21 694 "},"υ":{"ha":731,"x_min":0,"x_max":0,"o":"m 28 586 l 39 586 b 122 547 72 586 100 573 b 140 457 145 522 151 492 l 100 325 b 93 188 84 275 82 229 b 116 130 99 167 106 148 b 151 79 126 112 138 95 b 199 40 166 64 182 51 b 254 8 215 28 234 18 b 315 -10 274 0 294 -6 b 376 -17 335 -15 356 -17 b 589 78 461 -17 531 15 b 675 325 646 141 675 223 b 592 694 676 463 648 586 l 467 694 b 497 643 478 678 488 661 b 521 589 505 625 513 607 b 555 468 536 553 547 513 b 567 324 563 424 567 375 b 511 156 567 254 548 198 b 376 92 476 113 431 92 b 238 156 320 92 274 113 b 208 324 198 201 188 257 l 250 457 b 257 506 255 474 257 490 b 247 553 257 521 254 537 b 205 623 238 580 224 603 b 133 672 186 643 162 659 b 87 689 118 680 102 685 b 39 694 72 693 56 694 l 28 694 "},"φ":{"ha":926,"x_min":0,"x_max":0,"o":"m 624 708 b 472 646 563 708 513 688 b 410 496 431 605 410 555 l 410 101 b 236 201 340 113 282 146 b 165 392 189 257 165 320 b 193 514 165 435 175 476 b 226 569 201 533 212 552 b 269 615 239 586 254 601 l 193 694 b 135 631 171 675 151 654 b 92 557 118 607 104 583 b 57 390 69 504 57 449 b 158 122 57 288 91 199 b 410 -11 226 46 310 2 l 410 -278 l 518 -278 l 518 -11 b 771 122 619 2 703 46 b 847 247 805 160 831 202 b 872 390 864 291 872 339 b 855 518 872 438 866 480 b 803 619 843 556 826 590 b 624 708 758 679 699 708 m 624 600 b 728 542 670 600 705 581 b 763 392 751 503 763 453 b 693 201 763 319 739 256 b 518 101 647 146 588 113 l 518 496 b 550 568 518 524 529 548 b 624 600 570 589 595 600 "},"χ":{"ha":751,"x_min":0,"x_max":0,"o":"m 24 586 b 65 581 38 586 52 584 b 103 564 78 577 91 571 b 135 539 115 557 125 549 b 160 506 144 529 152 518 l 319 206 l 29 -278 l 156 -278 l 379 93 l 501 -135 b 544 -193 513 -156 528 -175 b 601 -239 561 -211 580 -226 b 740 -278 646 -265 692 -278 l 740 -169 b 697 -163 725 -169 711 -167 b 657 -146 683 -159 670 -153 b 622 -119 644 -138 632 -129 b 597 -83 612 -108 604 -96 l 446 203 l 740 694 l 614 694 l 385 315 l 256 558 b 158 657 233 600 201 633 b 24 694 118 682 73 694 "},"ψ":{"ha":935,"x_min":0,"x_max":0,"o":"m 79 372 b 193 97 79 265 117 173 b 413 -12 256 34 329 -2 l 413 -278 l 522 -278 l 522 -12 b 641 23 565 -7 604 5 b 743 97 678 41 712 66 b 828 223 781 135 809 177 b 857 372 847 269 857 319 l 857 694 l 747 694 l 747 372 b 667 174 747 294 720 228 b 599 125 646 153 624 137 b 522 100 575 113 549 105 l 522 938 l 413 938 l 413 100 b 271 174 358 108 311 133 b 188 372 215 229 188 295 l 188 694 l 79 694 "},"ω":{"ha":1051,"x_min":0,"x_max":0,"o":"m 260 694 b 57 279 125 601 57 463 b 76 165 57 238 63 200 b 133 68 89 130 108 98 b 318 -17 183 12 245 -17 b 380 -10 339 -17 360 -14 b 436 13 400 -5 419 2 b 485 45 454 22 470 33 b 525 89 500 58 513 72 b 567 45 538 72 552 58 b 614 13 581 33 597 22 b 733 -17 650 -7 690 -17 b 918 68 806 -17 868 12 b 994 279 969 126 994 197 b 792 694 994 463 927 601 l 711 621 b 885 279 827 538 885 424 b 874 207 885 253 881 229 b 840 146 866 185 855 164 b 733 92 812 110 776 92 b 625 138 691 92 655 107 b 581 244 595 167 581 203 l 581 479 l 471 479 l 471 244 b 460 186 471 224 467 205 b 426 138 452 168 441 151 b 318 92 397 107 361 92 b 210 146 275 92 239 110 b 165 279 180 183 165 227 b 340 621 165 424 224 538 l 260 694 "},"ϊ":{"ha":335,"x_min":0,"x_max":0,"o":"m 92 204 b 150 60 92 148 111 100 b 296 0 191 20 239 0 l 329 0 l 329 108 l 296 108 b 228 136 269 108 246 118 b 200 204 209 155 200 177 l 200 694 l 92 694 m 42 994 b -6 975 22 994 6 988 b -25 928 -19 963 -25 947 b -6 881 -25 909 -19 894 b 42 861 7 868 23 861 b 89 881 59 861 75 868 b 108 928 102 894 108 909 b 89 975 108 946 102 962 b 42 994 76 988 60 994 m 260 994 b 213 975 241 994 225 988 b 193 928 200 962 193 946 b 213 881 193 909 200 894 b 260 861 226 868 242 861 b 307 881 278 861 294 868 b 326 928 320 894 326 909 b 307 975 326 947 320 963 b 260 994 295 988 279 994 "},"ϋ":{"ha":731,"x_min":0,"x_max":0,"o":"m 28 586 l 39 586 b 122 547 72 586 100 573 b 140 457 145 522 151 492 l 100 325 b 93 188 84 275 82 229 b 116 130 99 167 106 148 b 151 79 126 112 138 95 b 199 40 166 64 182 51 b 254 8 215 28 234 18 b 315 -10 274 0 294 -6 b 376 -17 335 -15 356 -17 b 589 78 461 -17 531 15 b 675 325 646 141 675 223 b 592 694 676 463 648 586 l 467 694 b 497 643 478 678 488 661 b 521 589 505 625 513 607 b 555 468 536 553 547 513 b 567 324 563 424 567 375 b 511 156 567 254 548 198 b 376 92 476 113 431 92 b 238 156 320 92 274 113 b 208 324 198 201 188 257 l 250 457 b 257 506 255 474 257 490 b 247 553 257 521 254 537 b 205 623 238 580 224 603 b 133 672 186 643 162 659 b 87 689 118 680 102 685 b 39 694 72 693 56 694 l 28 694 m 158 994 b 111 975 140 994 124 988 b 93 928 99 963 93 947 b 111 881 93 909 99 894 b 158 861 124 868 140 861 b 206 881 177 861 193 868 b 225 928 219 894 225 909 b 206 975 225 947 219 963 b 158 994 194 988 178 994 m 501 994 b 454 975 482 994 466 988 b 433 928 440 962 433 946 b 454 881 433 909 440 894 b 501 861 467 868 483 861 b 549 881 520 861 536 868 b 568 928 562 894 568 909 b 549 975 568 946 562 962 b 501 994 537 988 521 994 "},"ό":{"ha":800,"x_min":0,"x_max":0,"o":"m 401 711 b 154 606 301 711 219 676 b 57 347 89 535 57 449 b 154 89 57 246 89 160 b 401 -17 219 19 301 -17 b 646 89 500 -17 581 19 b 744 347 712 160 744 246 b 646 606 744 449 712 535 b 401 711 581 676 500 711 m 401 603 b 569 529 470 603 526 578 b 635 347 613 480 635 419 b 619 248 635 311 629 278 b 569 165 608 218 592 190 b 401 92 526 116 470 92 b 231 165 331 92 274 116 b 165 347 187 215 165 276 b 182 447 165 383 171 416 b 231 529 193 477 209 504 b 401 603 274 578 331 603 m 446 793 l 535 972 l 413 972 l 343 793 "},"ύ":{"ha":731,"x_min":0,"x_max":0,"o":"m 28 586 l 39 586 b 122 547 72 586 100 573 b 140 457 145 522 151 492 l 100 325 b 93 188 84 275 82 229 b 116 130 99 167 106 148 b 151 79 126 112 138 95 b 199 40 166 64 182 51 b 254 8 215 28 234 18 b 315 -10 274 0 294 -6 b 376 -17 335 -15 356 -17 b 589 78 461 -17 531 15 b 675 325 646 141 675 223 b 592 694 676 463 648 586 l 467 694 b 497 643 478 678 488 661 b 521 589 505 625 513 607 b 555 468 536 553 547 513 b 567 324 563 424 567 375 b 511 156 567 254 548 198 b 376 92 476 113 431 92 b 238 156 320 92 274 113 b 208 324 198 201 188 257 l 250 457 b 257 506 255 474 257 490 b 247 553 257 521 254 537 b 205 623 238 580 224 603 b 133 672 186 643 162 659 b 87 689 118 680 102 685 b 39 694 72 693 56 694 l 28 694 m 388 793 l 478 972 l 353 972 l 283 793 "},"ώ":{"ha":1051,"x_min":0,"x_max":0,"o":"m 260 694 b 57 279 125 601 57 463 b 76 165 57 238 63 200 b 133 68 89 130 108 98 b 318 -17 183 12 245 -17 b 380 -10 339 -17 360 -14 b 436 13 400 -5 419 2 b 485 45 454 22 470 33 b 525 89 500 58 513 72 b 567 45 538 72 552 58 b 614 13 581 33 597 22 b 733 -17 650 -7 690 -17 b 918 68 806 -17 868 12 b 994 279 969 126 994 197 b 792 694 994 463 927 601 l 711 621 b 885 279 827 538 885 424 b 874 207 885 253 881 229 b 840 146 866 185 855 164 b 733 92 812 110 776 92 b 625 138 691 92 655 107 b 581 244 595 167 581 203 l 581 479 l 471 479 l 471 244 b 460 186 471 224 467 205 b 426 138 452 168 441 151 b 318 92 397 107 361 92 b 210 146 275 92 239 110 b 165 279 180 183 165 227 b 340 621 165 424 224 538 l 260 694 m 576 793 l 665 972 l 542 972 l 472 793 "},"Ѐ":{"ha":821,"x_min":0,"x_max":0,"o":"m 496 1036 l 343 1217 l 194 1217 l 367 1036 m 707 0 l 707 108 l 239 108 l 239 442 l 615 442 l 615 551 l 239 551 l 239 864 l 706 864 l 706 972 l 129 972 l 129 0 "},"Ё":{"ha":821,"x_min":0,"x_max":0,"o":"m 251 1238 b 206 1218 233 1238 218 1231 b 185 1171 192 1205 185 1189 b 206 1124 185 1152 192 1137 b 251 1104 219 1111 234 1104 b 299 1124 270 1104 286 1111 b 318 1171 312 1137 318 1152 b 299 1218 318 1189 312 1205 b 251 1238 286 1231 270 1238 m 594 1238 b 546 1218 575 1238 559 1231 b 528 1171 534 1206 528 1190 b 546 1124 528 1152 534 1137 b 594 1104 560 1111 576 1104 b 643 1124 613 1104 629 1111 b 661 1171 655 1137 661 1152 b 643 1218 661 1190 655 1206 b 594 1238 630 1231 614 1238 m 707 0 l 707 108 l 239 108 l 239 442 l 615 442 l 615 551 l 239 551 l 239 864 l 706 864 l 706 972 l 129 972 l 129 0 "},"Ђ":{"ha":997,"x_min":0,"x_max":0,"o":"m 15 864 l 329 864 l 329 0 l 439 0 l 439 497 l 639 497 b 775 440 692 497 737 478 b 833 303 814 401 833 356 b 775 165 833 250 814 204 b 639 108 737 127 692 108 l 639 0 b 853 89 722 0 794 30 b 942 303 912 148 942 219 b 853 517 942 386 912 457 b 639 606 794 576 722 606 l 439 606 l 439 864 l 751 864 l 751 972 l 15 972 "},"Ѓ":{"ha":692,"x_min":0,"x_max":0,"o":"m 215 0 l 215 864 l 683 864 l 683 972 l 107 972 l 107 0 m 429 1031 l 607 1201 l 465 1201 l 301 1031 "}}}
